<?xml version="1.0"?>
<svg xmlns="http://www.w3.org/2000/svg" id="Layer_1" data-name="Layer 1" viewBox="0 0 64 64"><title>Dusk Part 1</title><path d="M51,25h8a2,2,0,0,1,2,2V53a6,6,0,0,1-6,6h0a6,6,0,0,1-6-6V27a2,2,0,0,1,2-2Z" style="fill:#cda1a7;"/><path d="M52,59H11a6,6,0,0,1-6-6V8A3,3,0,0,1,8,5H46a3,3,0,0,1,3,3V56Z" style="fill:#faefde;"/><rect x="5" y="5" width="44" height="4" rx="2" ry="2" style="fill:#fff7f0;"/><path d="M49,49H5v4a6,6,0,0,0,6,6H52l-3-3Z" style="fill:#efd8be;"/><path d="M33,14h6a1,1,0,0,0,0-2H33a1,1,0,0,0,0,2Z" style="fill:#eb9697;"/><path d="M13,14H29a1,1,0,0,0,0-2H13a1,1,0,0,0,0,2Z" style="fill:#eb9697;"/><path d="M23,16H13a1,1,0,0,0,0,2H23a1,1,0,0,0,0-2Z" style="fill:#eb9697;"/><path d="M23,24H13a1,1,0,0,0,0,2H23a1,1,0,0,0,0-2Z" style="fill:#8d6c9f;"/><path d="M23,28H13a1,1,0,0,0,0,2H23a1,1,0,0,0,0-2Z" style="fill:#8d6c9f;"/><path d="M23,32H13a1,1,0,0,0,0,2H23a1,1,0,0,0,0-2Z" style="fill:#8d6c9f;"/><path d="M23,36H13a1,1,0,0,0,0,2H23a1,1,0,0,0,0-2Z" style="fill:#8d6c9f;"/><path d="M23,40H13a1,1,0,0,0,0,2H23a1,1,0,0,0,0-2Z" style="fill:#8d6c9f;"/><path d="M39,24H29a1,1,0,0,0,0,2H39a1,1,0,0,0,0-2Z" style="fill:#8d6c9f;"/><path d="M39,28H29a1,1,0,0,0,0,2H39a1,1,0,0,0,0-2Z" style="fill:#8d6c9f;"/><path d="M39,32H29a1,1,0,0,0,0,2H39a1,1,0,0,0,0-2Z" style="fill:#8d6c9f;"/><path d="M40,37a1,1,0,0,0-1-1H29a1,1,0,0,0,0,2H39A1,1,0,0,0,40,37Z" style="fill:#8d6c9f;"/><path d="M40,17a1,1,0,0,0-1-1H27a1,1,0,0,0,0,2H39A1,1,0,0,0,40,17Z" style="fill:#eb9697;"/><path d="M45,48H41a1,1,0,0,0,0,2h4a1,1,0,0,0,0-2Z" style="fill:#8d6c9f;"/><path d="M58,24H50V7a3,3,0,0,0-3-3H7A3,3,0,0,0,4,7V53a7,7,0,0,0,7,7H55a7,7,0,0,0,7-7V28A4,4,0,0,0,58,24ZM11,58a5,5,0,0,1-5-5V50H37a1,1,0,0,0,0-2H6V7A1,1,0,0,1,7,6H47a1,1,0,0,1,1,1V53a7,7,0,0,0,2,5Zm49-5a5,5,0,0,1-5,5,4.84,4.84,0,0,1-5-5V26h4.56A4,4,0,0,0,54,28V45a1,1,0,0,0,2,0V28a2,2,0,0,1,4,0Z" style="fill:#8d6c9f;"/><path d="M10,52a1,1,0,0,0-1,1v2a1,1,0,0,0,2,0V53A1,1,0,0,0,10,52Z" style="fill:#8d6c9f;"/><path d="M15,52a1,1,0,0,0-1,1v2a1,1,0,0,0,2,0V53A1,1,0,0,0,15,52Z" style="fill:#8d6c9f;"/><path d="M20,52a1,1,0,0,0-1,1v2a1,1,0,0,0,2,0V53A1,1,0,0,0,20,52Z" style="fill:#8d6c9f;"/><path d="M25,52a1,1,0,0,0-1,1v2a1,1,0,0,0,2,0V53A1,1,0,0,0,25,52Z" style="fill:#8d6c9f;"/><path d="M30,52a1,1,0,0,0-1,1v2a1,1,0,0,0,2,0V53A1,1,0,0,0,30,52Z" style="fill:#8d6c9f;"/><path d="M35,52a1,1,0,0,0-1,1v2a1,1,0,0,0,2,0V53A1,1,0,0,0,35,52Z" style="fill:#8d6c9f;"/><path d="M40,52a1,1,0,0,0-1,1v2a1,1,0,0,0,2,0V53A1,1,0,0,0,40,52Z" style="fill:#8d6c9f;"/><path d="M45,52a1,1,0,0,0-1,1v2a1,1,0,0,0,2,0V53A1,1,0,0,0,45,52Z" style="fill:#8d6c9f;"/></svg>
