<?xml version="1.0" encoding="utf-8"?>
<!-- Generator: Adobe Illustrator 21.0.2, SVG Export Plug-In . SVG Version: 6.00 Build 0)  -->
<svg xmlns="http://www.w3.org/2000/svg" xmlns:xlink="http://www.w3.org/1999/xlink" version="1.1" id="Layer_1" x="0px" y="0px" viewBox="0 0 48 48" style="enable-background:new 0 0 48 48;" xml:space="preserve">
<g id="surface1">
	<path style="fill:#455A64;" d="M31,16c0,0.6-0.4,1-1,1h-8c-0.6,0-1-0.4-1-1V7c0-0.6,0.4-1,1-1h8c0.6,0,1,0.4,1,1V16z"/>
	<path style="fill:#607D8B;" d="M24,7c0-0.6-0.4-1-1-1h-2c-1.4,0-2.6,1.2-2.7,1.3l-2,2C12.9,12.6,11,18.1,11,36h2   c0-12.5,1-18.6,2.6-22.2L24,11V7z"/>
	<path style="fill:#263238;" d="M34,9l-3,5V7h3"/>
	<path style="fill:#263238;" d="M20,11c-0.4,0-0.7-0.2-0.9-0.6c-0.2-0.5,0-1.1,0.4-1.3l2-1c0.5-0.2,1.1,0,1.3,0.4   c0.2,0.5,0,1.1-0.4,1.3l-2,1C20.3,11,20.2,11,20,11z"/>
	<path style="fill:#37474F;" d="M15,17c-3.3,0-6-2.7-6-6s2.7-6,6-6s6,2.7,6,6S18.3,17,15,17z M15,7c-2.2,0-4,1.8-4,4s1.8,4,4,4   s4-1.8,4-4S17.2,7,15,7z"/>
	<path style="fill:#63590D;" d="M21,15l-2,8h14l-2-8H21z"/>
	<path style="fill:#63590D;" d="M36.9,29c0,0-1.3-0.1-1.3-1s0.8-1,0.8-1c-1-2.7-4.3-5.1-6.8-6c0,0-2.4,0-3.6,0s-3.6,0-3.6,0   c-2.5,0.9-5.8,3.3-6.8,6c0,0,0.8,0,0.8,1s-1.3,1-1.3,1C15,29.6,16,30.3,16,31c0,1.3-0.8,2.6-0.5,4c0,0,1.3,0,1.3,1c0,1-0.7,1-0.7,1   c1.1,2.9,3.9,5.6,5.9,7h8c2-1.4,4.8-4.1,5.9-7c0,0-0.7,0-0.7-1c0-1,1.3-1,1.3-1c0.4-1.4-0.5-2.7-0.5-4C36,30.3,37,29.6,36.9,29z"/>
	<path style="fill:#FFD600;" d="M20.5,17h11L31,15H21L20.5,17z"/>
	<path style="fill:#827717;" d="M26,21c-0.3,0-0.6,0-0.9,0c-0.9,1-2,2.8-2.6,6h7.1c-0.6-3.2-1.7-5-2.6-6C26.6,21,26.3,21,26,21z"/>
	<path style="fill:#827717;" d="M31.6,27h4.8c-0.4-4-0.2-6-7.2-6C30,22.3,31.1,24.5,31.6,27z"/>
	<path style="fill:#827717;" d="M27,44c0.8-1.5,1.8-3.9,2.5-7h-6.9c0.6,3.1,1.7,5.5,2.5,7H27z"/>
	<path style="fill:#827717;" d="M22,32c0,1,0.1,2,0.2,3h7.6c0.1-1,0.2-2,0.2-3c0-1.1-0.1-2.1-0.2-3h-7.7C22.1,29.9,22,30.9,22,32z"/>
	<path style="fill:#827717;" d="M22.8,21c-7,0-6.8,2-7.2,6h4.8C20.9,24.5,22,22.3,22.8,21z"/>
	<path style="fill:#827717;" d="M20,32c0-1.1,0.1-2.1,0.1-3h-5c-0.1,0.7-0.1,1.3-0.1,2c0,1.3,0.2,2.6,0.5,4h4.7C20.1,34,20,33,20,32   z"/>
	<path style="fill:#827717;" d="M29.2,44h1.3c2.1-1.9,4.4-4.4,5.3-7h-4.4C30.9,39.9,30,42.3,29.2,44z"/>
	<path style="fill:#827717;" d="M36.9,29h-5c0.1,0.9,0.1,1.9,0.1,3c0,1-0.1,2-0.2,3h4.7c0.3-1.4,0.5-2.7,0.5-4   C37,30.3,36.9,29.7,36.9,29z"/>
	<path style="fill:#827717;" d="M20.5,37h-4.4c0.9,2.6,3.2,5.1,5.3,7h1.3C22,42.3,21.1,39.9,20.5,37z"/>
	<path style="fill:#827717;" d="M20,19h12l-0.5-2h-11L20,19z"/>
</g>
</svg>
