<?xml version="1.0"?>
<svg xmlns="http://www.w3.org/2000/svg" id="Layer_1" data-name="Layer 1" viewBox="0 0 64 64"><title>Icons8 RSL Colored Part 7</title><path d="M47.9,15.21a9.23,9.23,0,0,0-4.11-4.41,4.31,4.31,0,0,0,.06-.58A4.31,4.31,0,0,0,38,6.14a4.33,4.33,0,0,0-8.16-1.81,2.89,2.89,0,0,0-5.35,1.54A5.8,5.8,0,0,0,19,9.75l-.33,0a6.75,6.75,0,0,0-5,2.24h0a6.35,6.35,0,0,0-5.29,5.84L8,23.46A5.19,5.19,0,0,0,13.2,29h0" style="fill:#f5c872;"/><path d="M43.79,10.8a4.31,4.31,0,0,0,.06-.58A4.31,4.31,0,0,0,38,6.14,4.34,4.34,0,0,0,33.7,2a4.29,4.29,0,0,0-3.18,1.41A4.34,4.34,0,0,1,33,7.14a4.25,4.25,0,0,1,5.76,4.66,9.23,9.23,0,0,1,4.11,4.41L11.47,28.7a5.18,5.18,0,0,0,1.73.3h0L47.9,15.21A9.23,9.23,0,0,0,43.79,10.8Z" style="fill:#f6d397;"/><path d="M15.91,15H46.09a2,2,0,0,1,2,1.9L50,57H12l1.91-40.1A2,2,0,0,1,15.91,15Z" style="fill:#e3f2ff;"/><path d="M15.91,15a2,2,0,0,0-2,1.9L12,57H23l2-42Z" style="fill:#f0f7fc;"/><path d="M46.09,15a2,2,0,0,1,2,1.9L50,57H39L37,15Z" style="fill:#c5e4fa;"/><path d="M16,52H46a4,4,0,0,1,4,4v1a0,0,0,0,1,0,0H12a0,0,0,0,1,0,0V56A4,4,0,0,1,16,52Z" style="fill:#c5e4fa;"/><path d="M51,61H11a2,2,0,0,1-2-2H9a2,2,0,0,1,2-2H51a2,2,0,0,1,2,2h0A2,2,0,0,1,51,61Z" style="fill:#c5e4fa;"/><path d="M16,50a1,1,0,0,0-1,1v2a1,1,0,0,0,2,0V51A1,1,0,0,0,16,50Z" style="fill:#8d6c9f;"/><path d="M21,50a1,1,0,0,0-1,1v2a1,1,0,0,0,2,0V51A1,1,0,0,0,21,50Z" style="fill:#8d6c9f;"/><path d="M26,50a1,1,0,0,0-1,1v2a1,1,0,0,0,2,0V51A1,1,0,0,0,26,50Z" style="fill:#8d6c9f;"/><path d="M31,50a1,1,0,0,0-1,1v2a1,1,0,0,0,2,0V51A1,1,0,0,0,31,50Z" style="fill:#8d6c9f;"/><path d="M36,50a1,1,0,0,0-1,1v2a1,1,0,0,0,2,0V51A1,1,0,0,0,36,50Z" style="fill:#8d6c9f;"/><path d="M41,50a1,1,0,0,0-1,1v2a1,1,0,0,0,2,0V51A1,1,0,0,0,41,50Z" style="fill:#8d6c9f;"/><path d="M46,50a1,1,0,0,0-1,1v2a1,1,0,0,0,2,0V51A1,1,0,0,0,46,50Z" style="fill:#8d6c9f;"/><path d="M36,18H18a1,1,0,0,0,0,2H36a1,1,0,0,0,0-2Z" style="fill:#8d6c9f;"/><path d="M44,18H40a1,1,0,0,0,0,2h4a1,1,0,0,0,0-2Z" style="fill:#8d6c9f;"/><path d="M58,24.74A8,8,0,0,0,52,22H51a4,4,0,0,0-1.65.37l-.26-5.51a3,3,0,0,0-.32-1.19,1,1,0,0,0,0-.86,10.26,10.26,0,0,0-4-4.55v0a5.33,5.33,0,0,0-6-5.3,5.32,5.32,0,0,0-9.08-2.16A3.86,3.86,0,0,0,27.41,2a3.91,3.91,0,0,0-3.79,3,6.81,6.81,0,0,0-5.25,3.82,7.79,7.79,0,0,0-5.2,2.31,7.32,7.32,0,0,0-5.79,6.7L7,23.39a6.18,6.18,0,0,0,5.27,6.53L11,56h0a3,3,0,0,0,0,6H51a3,3,0,0,0,0-6h0l-.48-10a9,9,0,0,0,8.46-7.76l1-7.14A8,8,0,0,0,58,24.74ZM10.13,26.67A4.15,4.15,0,0,1,9,23.53l.38-5.64A5.33,5.33,0,0,1,13.82,13a1,1,0,0,0,.61-.32,5.78,5.78,0,0,1,4.29-1.91H19a1,1,0,0,0,1-.67,4.8,4.8,0,0,1,4.53-3.21,1,1,0,0,0,1-1,1.89,1.89,0,0,1,3.5-1,1,1,0,0,0,.88.47,1,1,0,0,0,.85-.53A3.33,3.33,0,0,1,37,6.19a1,1,0,0,0,1.34.89,3.3,3.3,0,0,1,1.13-.21,3.35,3.35,0,0,1,3.35,3.35,2.42,2.42,0,0,1,0,.34v.1a1,1,0,0,0,.52,1A8.24,8.24,0,0,1,46,14H15.91a3,3,0,0,0-3,2.86l-.53,11.06A4.14,4.14,0,0,1,10.13,26.67ZM52,59a1,1,0,0,1-1,1H11a1,1,0,0,1,0-2H51A1,1,0,0,1,52,59ZM13,56l1.86-39a1,1,0,0,1,1-1H46.09a1,1,0,0,1,1,1L49,56ZM57.93,30.81l-1,7.14a7,7,0,0,1-6.57,6l-.92-19.35a1,1,0,0,0,.21-.12A2,2,0,0,1,51,24h1a6,6,0,0,1,5.95,6.81Z" style="fill:#8d6c9f;"/></svg>
