<?xml version="1.0" encoding="iso-8859-1"?>
<!-- Generator: Adobe Illustrator 19.1.1, SVG Export Plug-In . SVG Version: 6.00 Build 0)  -->
<svg version="1.1"  xmlns="http://www.w3.org/2000/svg" xmlns:xlink="http://www.w3.org/1999/xlink" x="0px" y="0px"
	 viewBox="0 0 48 48" style="enable-background:new 0 0 48 48;" xml:space="preserve">
<path style="fill:#827717;" d="M39.251,21.205c-4.51-3.613-9.513-8.534-13.726-13.499L24,5.909l-1.525,1.797
	c-4.213,4.965-9.216,9.885-13.726,13.499L8,21.805v20.574l2.941-1.626c0.056-0.031,0.142-0.075,0.256-0.134
	c5.647-2.936,9.905-6.495,12.782-9.366c2.877,2.871,7.135,6.43,12.782,9.366c0.113,0.059,0.199,0.103,0.256,0.134L40,42.379V21.805
	L39.251,21.205z"/>
<path style="fill:#FFD600;" d="M38,29.121v3.72c-3.669-2.397-8.852-6.653-14-12.118c-5.148,5.465-10.331,9.721-14,12.118v-3.72
	c3.89-2.756,9.07-7.087,14-12.897C28.93,22.034,34.11,26.365,38,29.121z M24,9c-4.93,5.81-10.11,10.648-14,13.766v3.984
	c3.669-2.679,8.852-7.785,14-13.25c5.148,5.465,10.331,10.571,14,13.25v-3.984C34.11,19.648,28.93,14.81,24,9z M23.979,23.91
	c-4.923,5.795-10.115,9.338-14,11.534V39c0.853-0.468,7.61-3.681,14-10.634c6.39,6.953,13.147,10.166,14,10.634v-3.556
	C34.094,33.248,28.902,29.705,23.979,23.91z"/>
</svg>
