<?xml version="1.0"?>
<svg xmlns="http://www.w3.org/2000/svg" id="Layer_1" data-name="Layer 1" viewBox="0 0 64 64"><title>Icons8 RSL Colored Part 6</title><path d="M9,33h2a0,0,0,0,1,0,0V55a0,0,0,0,1,0,0H9a8,8,0,0,1-8-8V41A8,8,0,0,1,9,33Z" style="fill:#9fddff;"/><path d="M44.16,19.61a2,2,0,0,1-2.78.16,13.85,13.85,0,0,0-18.79,0,2,2,0,0,1-2.77-.15L15,14.47A21.23,21.23,0,0,1,31,7h2.1A21.23,21.23,0,0,1,49,14.43Z" style="fill:#c2cde7;"/><path d="M1,44v3a8,8,0,0,0,8,8h2V44Z" style="fill:#85cbf8;"/><path d="M31,12.7a20.86,20.86,0,0,0-13.54,5.07l2.41,2.57a2,2,0,0,0,2.77.15,13.85,13.85,0,0,1,18.79,0,2,2,0,0,0,2.78-.16l2.4-2.57a20.86,20.86,0,0,0-13.51-5Z" style="fill:#acb7d0;"/><path d="M15,33V55a2,2,0,0,1-2,2h0a2,2,0,0,1-2-2V33a2,2,0,0,1,2-2h0A2,2,0,0,1,15,33Z" style="fill:#acb7d0;"/><path d="M49,55V33a2,2,0,0,1,2-2h0a2,2,0,0,1,2,2V55a2,2,0,0,1-2,2h0A2,2,0,0,1,49,55Z" style="fill:#acb7d0;"/><path d="M61,33h2a0,0,0,0,1,0,0V55a0,0,0,0,1,0,0H61a8,8,0,0,1-8-8V41A8,8,0,0,1,61,33Z" transform="translate(116 88) rotate(180)" style="fill:#9fddff;"/><path d="M63,44v3a8,8,0,0,1-8,8H53V44Z" style="fill:#85cbf8;"/><path d="M32,10a1,1,0,0,0-1,1v2a1,1,0,0,0,2,0V11A1,1,0,0,0,32,10Z" style="fill:#8d6c9f;"/><path d="M27.4,11.47a1,1,0,0,0-1.93.52L26,13.92a1,1,0,1,0,1.93-.52Z" style="fill:#8d6c9f;"/><path d="M43.25,13a1,1,0,0,0-1.37.37l-1,1.73a1,1,0,0,0,1.73,1l1-1.73A1,1,0,0,0,43.25,13Z" style="fill:#8d6c9f;"/><path d="M22.12,13.38a1,1,0,0,0-1.73,1l1,1.73a1,1,0,0,0,1.73-1Z" style="fill:#8d6c9f;"/><path d="M37.82,10.77a1,1,0,0,0-1.22.71l-.52,1.93a1,1,0,1,0,1.93.52L38.53,12A1,1,0,0,0,37.82,10.77Z" style="fill:#8d6c9f;"/><path d="M56,32.06V29A23,23,0,0,0,33,6H31A23,23,0,0,0,8,29v3.06A9,9,0,0,0,0,41v6a9,9,0,0,0,9,9h1.18A3,3,0,0,0,16,55V33a3,3,0,0,0-5.82-1H10V29a20.88,20.88,0,0,1,4.48-12.92L19,20.53a4,4,0,0,0,2.81,1.16,3.92,3.92,0,0,0,2.51-.91,12,12,0,0,1,15.33,0A4,4,0,0,0,45,20.5L49.49,16A20.88,20.88,0,0,1,54,29v3h-.18A3,3,0,0,0,48,33V55a3,3,0,0,0,5.82,1H55a9,9,0,0,0,9-9V41A9,9,0,0,0,56,32.06ZM2,47V41a7,7,0,0,1,7-7h1V54H9A7,7,0,0,1,2,47ZM13,32a1,1,0,0,1,1,1V55a1,1,0,0,1-2,0V33A1,1,0,0,1,13,32ZM43.57,19.07a2,2,0,0,1-2.64.14,14,14,0,0,0-17.88,0,2,2,0,0,1-2.64-.14l-4.62-4.53A20.92,20.92,0,0,1,31,8h2a20.92,20.92,0,0,1,15.18,6.53ZM51,56a1,1,0,0,1-1-1V33a1,1,0,0,1,2,0V55A1,1,0,0,1,51,56Zm11-9a7,7,0,0,1-7,7H54V34h1a7,7,0,0,1,7,7Z" style="fill:#8d6c9f;"/></svg>
