<?xml version="1.0" encoding="utf-8"?>
<!-- Generator: Adobe Illustrator 15.0.0, SVG Export Plug-In . SVG Version: 6.00 Build 0)  -->
<!DOCTYPE svg PUBLIC "-//W3C//DTD SVG 1.1//EN" "http://www.w3.org/Graphics/SVG/1.1/DTD/svg11.dtd">
<svg version="1.1"  xmlns="http://www.w3.org/2000/svg" xmlns:xlink="http://www.w3.org/1999/xlink" x="0px" y="0px"
	 width="48px" height="48px" viewBox="0 0 48 48" enable-background="new 0 0 48 48" xml:space="preserve">
<path fill="#7E57C2" d="M38,5L14,4.998c-2.207,0-4.816,1.068-4.984,6.002H9c0,0,0,19.824,0,28l0.018-0.054
	C9.2,42.585,11.565,43,12.607,43H36c0.188,0,0.5,0,1,0c2,0,2-2,2-2v-5.998V6C39,5.447,38.553,5,38,5z"/>
<path fill="#FFE0B2" d="M36,36H12.607C11.275,36,11,37.119,11,38.5c0,1.382,0.275,2.502,1.607,2.502L36,41V36z"/>
<path fill="#E0B990" d="M12.607,36c-1.167,0-1.522,0.858-1.593,2H36v-2H12.607z"/>
<rect x="14" y="10.998" fill="#FFECB3" width="21" height="5"/>
<path fill="#311B92" d="M38,36h-2v7c0.188,0,0.5,0,1,0c2,0,2-2,2-2v-5.998C39,35.553,38.553,36,38,36z"/>
</svg>
