<?xml version="1.0"?>
<svg xmlns="http://www.w3.org/2000/svg" id="Layer_1" data-name="Layer 1" viewBox="0 0 64 64"><title>Icons8 RSL Colored Part 11</title><path d="M29,13.13V7H21v6.13a4,4,0,0,1-1.44,3.07l-7,5.8A10,10,0,0,0,9,29.68V61a2,2,0,0,0,2,2H39a2,2,0,0,0,2-2V29.68A10,10,0,0,0,37.4,22l-7-5.8A4,4,0,0,1,29,13.13Z" style="fill:#cda1a7;"/><rect x="19" y="1" width="12" height="6" rx="1" ry="1" style="fill:#f9e3ae;"/><rect x="9" y="33" width="32" height="18" style="fill:#faefde;"/><path d="M52.23,63H33.77a2,2,0,0,1-2-1.75L29.14,40.12a1,1,0,0,1,1-1.12H55.87a1,1,0,0,1,1,1.12L54.22,61.25A2,2,0,0,1,52.23,63Z" style="fill:#bbdef9;"/><path d="M9,58H32a0,0,0,0,1,0,0v1a4,4,0,0,1-4,4H9a0,0,0,0,1,0,0V58A0,0,0,0,1,9,58Z" transform="translate(41 121) rotate(180)" style="fill:#c4939c;"/><path d="M56,46.74l-5.61-1.53a12,12,0,0,0-8.52.84l-.53.27a12,12,0,0,1-10.73,0l-.77-.38h0l1.91,15.32a2,2,0,0,0,2,1.75H52.23a2,2,0,0,0,2-1.75L56,46.74Z" style="fill:#f9dd8f;"/><path d="M36,58H50a4,4,0,0,1,4,4v1a0,0,0,0,1,0,0H32a0,0,0,0,1,0,0V62A4,4,0,0,1,36,58Z" style="fill:#efc88e;"/><circle cx="38" cy="57" r="2" style="fill:#faefde;"/><circle cx="48.5" cy="51.5" r="2.5" style="fill:#faefde;"/><path d="M57.37,38.68a2,2,0,0,0-1.5-.68H42V29.68a11,11,0,0,0-4-8.45l-7-5.8A3,3,0,0,1,30,13.13V8a2,2,0,0,0,2-2V2a2,2,0,0,0-2-2H20a2,2,0,0,0-2,2V6a2,2,0,0,0,2,2v5.13a3,3,0,0,1-1.08,2.3l-7,5.8a11,11,0,0,0-4,8.45V61a3,3,0,0,0,3,3H52.23a3,3,0,0,0,3-2.63l2.64-21.12A2,2,0,0,0,57.37,38.68Zm-2.18,6.79-4.5-1.23a13,13,0,0,0-9.23.91l-.53.27a11,11,0,0,1-9.84,0l-.29-.14L30.13,40H55.87ZM20,2H30V6H20ZM10,29.68a9,9,0,0,1,3.24-6.91l7-5.8A5,5,0,0,0,22,13.13V8h6v5.13A5,5,0,0,0,29.8,17l7,5.8A9,9,0,0,1,40,29.68V38H30.13a2,2,0,0,0-2,2.25L29.37,50H10V34H29a1,1,0,0,0,0-2H10ZM10,61V52H29.62l1.17,9.37a3,3,0,0,0,.16.63H11A1,1,0,0,1,10,61Zm43.23.12a1,1,0,0,1-1,.88H33.77a1,1,0,0,1-1-.88L31.08,47.59a12.95,12.95,0,0,0,10.73-.38l.53-.27a11,11,0,0,1,7.81-.77l4.77,1.3Z" style="fill:#8d6c9f;"/><path d="M23,56.06a1,1,0,0,0-1,1v2a1,1,0,0,0,2,0v-2A1,1,0,0,0,23,56.06Z" style="fill:#8d6c9f;"/><path d="M18,56.06a1,1,0,0,0-1,1v2a1,1,0,0,0,2,0v-2A1,1,0,0,0,18,56.06Z" style="fill:#8d6c9f;"/><path d="M13,56.06a1,1,0,0,0-1,1v2a1,1,0,0,0,2,0v-2A1,1,0,0,0,13,56.06Z" style="fill:#8d6c9f;"/><path d="M28,56.06a1,1,0,0,0-1,1v2a1,1,0,0,0,2,0v-2A1,1,0,0,0,28,56.06Z" style="fill:#8d6c9f;"/><path d="M13,26.06a1,1,0,0,0-1,1v2a1,1,0,0,0,2,0v-2A1,1,0,0,0,13,26.06Z" style="fill:#8d6c9f;"/><path d="M18,26.06a1,1,0,0,0-1,1v2a1,1,0,0,0,2,0v-2A1,1,0,0,0,18,26.06Z" style="fill:#8d6c9f;"/><path d="M23,26.06a1,1,0,0,0-1,1v2a1,1,0,0,0,2,0v-2A1,1,0,0,0,23,26.06Z" style="fill:#8d6c9f;"/><path d="M29,27.06a1,1,0,1,0-2,0v2a1,1,0,0,0,2,0Z" style="fill:#8d6c9f;"/><path d="M33,30.06a1,1,0,0,0,1-1v-2a1,1,0,1,0-2,0v2A1,1,0,0,0,33,30.06Z" style="fill:#8d6c9f;"/><path d="M38,30.06a1,1,0,0,0,1-1v-2a1,1,0,1,0-2,0v2A1,1,0,0,0,38,30.06Z" style="fill:#8d6c9f;"/><path d="M38,54a3,3,0,1,0,3,3A3,3,0,0,0,38,54Zm0,4a1,1,0,1,1,1-1A1,1,0,0,1,38,58Z" style="fill:#8d6c9f;"/><path d="M48.5,48A3.5,3.5,0,1,0,52,51.5,3.5,3.5,0,0,0,48.5,48Zm0,5A1.5,1.5,0,1,1,50,51.5,1.5,1.5,0,0,1,48.5,53Z" style="fill:#8d6c9f;"/><path d="M33,34h4a1,1,0,0,0,0-2H33a1,1,0,0,0,0,2Z" style="fill:#8d6c9f;"/><polygon points="22.5 37 23.74 39.26 26 40.5 23.74 41.74 22.5 44 21.26 41.74 19 40.5 21.26 39.26 22.5 37" style="fill:#fff;"/><polygon points="22.42 19 23.27 20.56 24.84 21.42 23.27 22.27 22.42 23.84 21.56 22.27 20 21.42 21.56 20.56 22.42 19" style="fill:#e2c5cb;"/><polygon points="15.65 44 16.23 45.06 17.3 45.65 16.23 46.23 15.65 47.3 15.06 46.23 14 45.65 15.06 45.06 15.65 44" style="fill:#fff;"/></svg>
