<?xml version="1.0"?>
<svg xmlns="http://www.w3.org/2000/svg" id="Layer_1" data-name="Layer 1" viewBox="0 0 64 64"><title>Icons8 RSL Colored Part 7</title><path d="M6,61.08,3.17,58.25a4,4,0,0,1,0-5.66L35.28,22.49,41.77,29,11.66,61.08A4,4,0,0,1,6,61.08Z" style="fill:#cda1a7;"/><path d="M57.62,23.61h0a3,3,0,0,1-4.24,0h0a3,3,0,0,1,0-4.24h0a1,1,0,0,0,0-1.41L39.94,4.51a12,12,0,0,0-17,0h0L33.11,14.66a6.17,6.17,0,0,1,1.65,4l.52,3.86L41.77,29l1.12-.54a4.24,4.24,0,0,1,4.83.83h0a3,3,0,0,1,0,4.24h0a1,1,0,0,0,0,1.41L49.84,37a4,4,0,0,0,5.66,0l5.66-5.66a4,4,0,0,0,0-5.66L59,23.61A1,1,0,0,0,57.62,23.61Z" style="fill:#ced8ed;"/><path d="M39.45,9.65l8.44,8.42a3.8,3.8,0,0,0,5.49-.12h0L39.45,4s-7-6.29-16,0l2.7,3S33.27,2,39.45,9.65Z" style="fill:#dae2ef;"/><polygon points="30.75 26.74 35.28 22.48 41.77 28.97 37.52 33.51 30.75 26.74" style="fill:#f5c872;"/><polygon points="47.46 33.88 58.5 23.27 61.53 26.3 62.33 30.36 53.88 38.21 50.35 37.49 47.46 33.88" style="fill:#b5c4e0;"/><path d="M16.61,46.23a1,1,0,0,0-1.41,1.41l1.41,1.41A1,1,0,0,0,18,47.65Z" style="fill:#8d6c9f;"/><path d="M20.14,42.7a1,1,0,0,0-1.41,1.41l1.42,1.41a1,1,0,0,0,1.41-1.41Z" style="fill:#8d6c9f;"/><path d="M23.68,39.16a1,1,0,0,0-1.41,1.41L23.68,42a1,1,0,0,0,1.41-1.41Z" style="fill:#8d6c9f;"/><path d="M27.21,35.63A1,1,0,0,0,25.8,37l1.41,1.41A1,1,0,0,0,28.63,37Z" style="fill:#8d6c9f;"/><path d="M9.54,53.3a1,1,0,0,0-1.41,1.41l1.41,1.42a1,1,0,0,0,1.41-1.41Z" style="fill:#8d6c9f;"/><path d="M13.07,49.77a1,1,0,0,0-1.41,1.41l1.41,1.41a1,1,0,0,0,1.41-1.41Z" style="fill:#8d6c9f;"/><path d="M32.16,33.51l-1.41-1.41a1,1,0,0,0-1.41,1.41l1.41,1.41a1,1,0,1,0,1.41-1.41Z" style="fill:#8d6c9f;"/><path d="M61.86,25,59.74,22.9a2,2,0,0,0-2.83,0,2,2,0,1,1-2.83-2.83,2,2,0,0,0,0-2.83L40.65,3.81a13,13,0,0,0-18.38,0,1,1,0,0,0,0,1.41L32.4,15.36a5.22,5.22,0,0,1,1.37,3.4l.45,3.35L2.46,51.89a5,5,0,0,0,0,7.07l2.83,2.83a5,5,0,0,0,3.53,1.46,5,5,0,0,0,3.57-1.48l30-32,1-.46A3.25,3.25,0,0,1,47,30a2,2,0,0,1,0,2.83,2,2,0,0,0,0,2.83l2.12,2.12a5,5,0,0,0,7.07,0l5.66-5.66A5,5,0,0,0,61.86,25ZM11,60.38a3,3,0,0,1-4.24,0L3.88,57.55a3,3,0,0,1,0-4.22L30.88,28l5.39,5.39ZM37.64,31.91l-5.3-5.3,2.92-2.74L40.38,29Zm10.78-3.36a5.24,5.24,0,0,0-6-1l-.49.23L36.23,22l-.47-3.49A7.19,7.19,0,0,0,33.82,14L27.27,7.4A7,7,0,0,1,36.41,8l4.27,4.27a1,1,0,0,0,1.41-1.41L37.82,6.64a9,9,0,0,0-12-.67L24.42,4.55a11,11,0,0,1,14.82.67L52.67,18.66a4,4,0,0,0,1.81,6.68l-5,5A4,4,0,0,0,48.42,28.55Zm12,2.12-5.66,5.66a3.07,3.07,0,0,1-4.24,0l-2.12-2.12,9.9-9.9,2.12,2.12A3,3,0,0,1,60.45,30.68Z" style="fill:#8d6c9f;"/><path d="M44.92,13.74a1,1,0,0,0-1.41,1.41l2.8,2.8a1,1,0,0,0,1.41-1.41Z" style="fill:#8d6c9f;"/></svg>
