<?xml version="1.0"?>
<svg xmlns="http://www.w3.org/2000/svg" id="Layer_1" data-name="Layer 1" viewBox="0 0 64 64"><title>Icons8 RSL Colored Part 7</title><path d="M57.19,61h-50a6,6,0,0,1-4.8-2.4L1.19,57h62L62,58.6A6,6,0,0,1,57.19,61Z" style="fill:#85cbf8;"/><rect x="7" y="35" width="50" height="22" style="fill:#faefde;"/><path d="M7,27H57a0,0,0,0,1,0,0V40a4,4,0,0,1-4,4H11a4,4,0,0,1-4-4V27A0,0,0,0,1,7,27Z" style="fill:#efd8be;"/><path d="M59,31h0a4.18,4.18,0,0,1,0,.54,7.49,7.49,0,0,1-14,3.68,7.48,7.48,0,0,1-13,0,7.48,7.48,0,0,1-13,0A7.49,7.49,0,0,1,5,31.54,4.18,4.18,0,0,1,5,31H5a4,4,0,0,1,4-4H55a4,4,0,0,1,4,4Z" style="fill:#cda1a7;"/><rect x="15" y="21" width="6" height="6" style="fill:#faefde;"/><rect x="29" y="17" width="6" height="10" style="fill:#faefde;"/><rect x="43" y="19" width="6" height="8" style="fill:#faefde;"/><path d="M36,10a4,4,0,0,1-8,0c0-2.21,4-8,4-8S36,7.79,36,10Z" style="fill:#f9dd8f;"/><path d="M49,13a3,3,0,0,1-6,0c0-1.66,3-6,3-6S49,11.34,49,13Z" style="fill:#f9dd8f;"/><path d="M21,15a3,3,0,0,1-6,0c0-1.66,3-6,3-6S21,13.34,21,15Z" style="fill:#f9dd8f;"/><path d="M64.08,56.55a1,1,0,0,0-.89-.55H58V37a8.56,8.56,0,0,0,2-5.41c0-.13,0-.26,0-.4A.76.76,0,0,0,60,31a5,5,0,0,0-5-5H50V19a1,1,0,0,0-1-1H47V16.86A4,4,0,0,0,50,13c0-1.87-2.65-5.8-3.18-6.57a1,1,0,0,0-1.65,0C44.65,7.2,42,11.13,42,13a4,4,0,0,0,3,3.86V18H43a1,1,0,0,0-1,1v7H36V17a1,1,0,0,0-1-1H33V14.9A5,5,0,0,0,37,10c0-2.4-3.48-7.56-4.18-8.57a1,1,0,0,0-1.65,0C30.48,2.44,27,7.6,27,10a5,5,0,0,0,4,4.9V16H29a1,1,0,0,0-1,1v9H22V21a1,1,0,0,0-1-1H19V18.86A4,4,0,0,0,22,15c0-1.87-2.65-5.8-3.18-6.57a1,1,0,0,0-1.65,0C16.65,9.2,14,13.13,14,15a4,4,0,0,0,3,3.86V20H15a1,1,0,0,0-1,1v5H9a5,5,0,0,0-5,5,.76.76,0,0,0,0,.15c0,.13,0,.26,0,.4A8.56,8.56,0,0,0,6,37V56H1.19a1,1,0,0,0-.8,1.6l1.2,1.6A7,7,0,0,0,7.19,62h50a7,7,0,0,0,5.6-2.8L64,57.6A1,1,0,0,0,64.08,56.55ZM44,13c0-.66.93-2.47,2-4.18,1.07,1.7,2,3.52,2,4.18a2,2,0,0,1-1,1.72V14a1,1,0,0,0-2,0v.72A2,2,0,0,1,44,13ZM29,10c0-1.09,1.56-3.94,3-6.19,1.44,2.25,3,5.1,3,6.19a3,3,0,0,1-2,2.82V11a1,1,0,0,0-2,0v1.82A3,3,0,0,1,29,10ZM16,15c0-.66.93-2.47,2-4.18,1.07,1.7,2,3.52,2,4.18a2,2,0,0,1-1,1.72V16a1,1,0,0,0-2,0v.72A2,2,0,0,1,16,15Zm28,5h4v6H44ZM30,18h4v8H30ZM16,22h4v4H16ZM6,30.8A3,3,0,0,1,9,28H55a3,3,0,0,1,3,2.79.9.9,0,0,0,0,.33c0,.14,0,.27,0,.41a6.6,6.6,0,0,1-.56,2.58A6.52,6.52,0,0,1,56,36.19a6.25,6.25,0,0,1-3,1.64A6.55,6.55,0,0,1,46.83,36a6.39,6.39,0,0,1-1-1.28,1,1,0,0,0-1.74,0,5.72,5.72,0,0,1-1,1.28,6.45,6.45,0,0,1-9.34,0,5.72,5.72,0,0,1-1-1.28,1,1,0,0,0-1.74,0,5.72,5.72,0,0,1-1,1.28,6.45,6.45,0,0,1-9.34,0,5.72,5.72,0,0,1-1-1.28,1,1,0,0,0-1.74,0,6.39,6.39,0,0,1-1,1.28A6.55,6.55,0,0,1,11,37.83a6.25,6.25,0,0,1-3-1.64,6.52,6.52,0,0,1-1.44-2.08A6.6,6.6,0,0,1,6,31.53c0-.14,0-.27,0-.41A.86.86,0,0,0,6,30.8ZM8,52H45a1,1,0,0,0,0-2H8V38.72a8.25,8.25,0,0,0,2.56,1.06A8.51,8.51,0,0,0,19,37a8.47,8.47,0,0,0,13,0,8.47,8.47,0,0,0,13,0,8.5,8.5,0,0,0,8.44,2.82A8.25,8.25,0,0,0,56,38.72V56H8Zm49.19,8h-50a5,5,0,0,1-4-2h58A5,5,0,0,1,57.19,60Z" style="fill:#8d6c9f;"/><path d="M53,50H49a1,1,0,0,0,0,2h4a1,1,0,0,0,0-2Z" style="fill:#8d6c9f;"/><path d="M12,42a1,1,0,0,0-1,1v2a1,1,0,0,0,2,0V43A1,1,0,0,0,12,42Z" style="fill:#8d6c9f;"/><path d="M17,42a1,1,0,0,0-1,1v2a1,1,0,0,0,2,0V43A1,1,0,0,0,17,42Z" style="fill:#8d6c9f;"/><path d="M22,42a1,1,0,0,0-1,1v2a1,1,0,0,0,2,0V43A1,1,0,0,0,22,42Z" style="fill:#8d6c9f;"/><path d="M27,42a1,1,0,0,0-1,1v2a1,1,0,0,0,2,0V43A1,1,0,0,0,27,42Z" style="fill:#8d6c9f;"/><path d="M32,42a1,1,0,0,0-1,1v2a1,1,0,0,0,2,0V43A1,1,0,0,0,32,42Z" style="fill:#8d6c9f;"/><path d="M37,42a1,1,0,0,0-1,1v2a1,1,0,0,0,2,0V43A1,1,0,0,0,37,42Z" style="fill:#8d6c9f;"/><path d="M42,42a1,1,0,0,0-1,1v2a1,1,0,0,0,2,0V43A1,1,0,0,0,42,42Z" style="fill:#8d6c9f;"/><path d="M48,43a1,1,0,0,0-2,0v2a1,1,0,0,0,2,0Z" style="fill:#8d6c9f;"/><path d="M52,46a1,1,0,0,0,1-1V43a1,1,0,0,0-2,0v2A1,1,0,0,0,52,46Z" style="fill:#8d6c9f;"/></svg>
