<?xml version="1.0"?>
<svg xmlns="http://www.w3.org/2000/svg" id="Layer_1" data-name="Layer 1" viewBox="0 0 64 64"><title>Icons8 RSL Colored Part 5</title><circle cx="31" cy="31.21" r="28" style="fill:#f9e3ae;"/><path d="M43.67,10.47l0,0a3,3,0,0,0-.74-4.79A28,28,0,0,0,7,15.62a3,3,0,0,0,2.55,4.59h0a3,3,0,0,0,2.49-1.35A22,22,0,0,1,40.2,11,3,3,0,0,0,43.67,10.47Z" style="fill:#faefde;"/><path d="M52.51,26.58c1.33,6.17.09,13.29-5.23,20.3a3.26,3.26,0,0,1-.62.62c-7,5.31-14.12,6.54-20.29,5.22a3,3,0,0,0-2.73.81h0a3,3,0,0,0,1.53,5.07c7.93,1.68,17.11,0,26-6.6a3.25,3.25,0,0,0,.66-.66c6.61-8.87,8.28-18,6.6-26a3,3,0,0,0-5.07-1.53h0A3,3,0,0,0,52.51,26.58Z" style="fill:#f6d397;"/><path d="M27.1,43.31c5.95,0,10.1-3.8,10.1-9.25a.85.85,0,0,0-.85-.85H17.85a.85.85,0,0,0-.85.85,9.15,9.15,0,0,0,1.64,5.4.84.84,0,0,0,.19.24A10.11,10.11,0,0,0,27.1,43.31Z" style="fill:#faefde;"/><path d="M31,2A29,29,0,1,0,60,31,29,29,0,0,0,31,2Zm0,56A27,27,0,1,1,58,31,27,27,0,0,1,31,58Z" style="fill:#8d6c9f;"/><path d="M41.21,49.36A21.26,21.26,0,0,1,27.3,51.67a1,1,0,1,0-.35,2A23.08,23.08,0,0,0,42.19,51.1a1,1,0,1,0-1-1.75Z" style="fill:#8d6c9f;"/><path d="M46.43,45.25a20.82,20.82,0,0,1-1.69,1.64A1,1,0,0,0,46,48.4,23.19,23.19,0,0,0,47.9,46.6a1,1,0,0,0-1.47-1.36Z" style="fill:#8d6c9f;"/><path d="M27.1,44c7,0,11.9-4.48,11.9-10.9a1,1,0,0,0-1-1H16.2a1,1,0,0,0-1,1,10.78,10.78,0,0,0,1.93,6.36,1,1,0,0,0,.22.28C19.41,42.42,22.83,44,27.1,44ZM37,34.1c-.47,4.77-4.31,7.9-9.85,7.9-3.58,0-6.4-1.24-8.1-3.38V37a1,1,0,0,0-1-1,1,1,0,0,0-.35.07,9.26,9.26,0,0,1-.41-2Z" style="fill:#8d6c9f;"/><path d="M23,40a1,1,0,0,0,1-1V37a1,1,0,0,0-2,0v2A1,1,0,0,0,23,40Z" style="fill:#8d6c9f;"/><path d="M33,40a1,1,0,0,0,1-1V37a1,1,0,0,0-2,0v2A1,1,0,0,0,33,40Z" style="fill:#8d6c9f;"/><path d="M28,40a1,1,0,0,0,1-1V37a1,1,0,0,0-2,0v2A1,1,0,0,0,28,40Z" style="fill:#8d6c9f;"/><path d="M21.55,23.83a1,1,0,0,0,0-1.66l-6-4a1,1,0,0,0-1.11,1.66L19.2,23l-4.75,3.17a1,1,0,1,0,1.11,1.66Z" style="fill:#8d6c9f;"/><path d="M32.45,23.83l6,4a1,1,0,0,0,1.11-1.66L34.8,23l4.75-3.17a1,1,0,1,0-1.11-1.66l-6,4a1,1,0,0,0,0,1.66Z" style="fill:#8d6c9f;"/></svg>
