<?xml version="1.0" encoding="iso-8859-1"?>
<!-- Generator: Adobe Illustrator 19.1.1, SVG Export Plug-In . SVG Version: 6.00 Build 0)  -->
<svg version="1.1"  xmlns="http://www.w3.org/2000/svg" xmlns:xlink="http://www.w3.org/1999/xlink" x="0px" y="0px"
	 viewBox="0 0 48 48" style="enable-background:new 0 0 48 48;" xml:space="preserve">
<path style="fill:#827717;" d="M25.525,6.706L24,4.909l-1.525,1.797C17.076,13.069,11.682,17.946,8,20.8v16.677l0.457,0.554
	c0.238,0.289,0.533,0.587,0.875,0.886C11.08,40.442,15.309,43,24,43c8.911,0,13.208-2.85,14.641-4.075
	c0.345-0.295,0.642-0.588,0.883-0.872L40,37.493V20.8C36.318,17.946,30.924,13.069,25.525,6.706z"/>
<path style="fill:#FFD600;" d="M38,28.121v3.72c-3.669-2.397-8.852-6.653-14-12.118c-5.148,5.465-10.331,9.721-14,12.118v-3.72
	c3.89-2.756,9.07-7.087,14-12.897C28.93,21.034,34.11,25.365,38,28.121z M24,8c-4.93,5.81-10.11,10.648-14,13.766v3.984
	c3.669-2.679,8.852-7.785,14-13.25c5.148,5.465,10.331,10.571,14,13.25v-3.984C34.11,18.648,28.93,13.81,24,8z M38,34.444v2.315
	c-0.165,0.194-0.386,0.413-0.658,0.646C35.586,38.905,31.511,41,24,41c-7.602,0-11.627-2.084-13.353-3.59
	c-0.268-0.234-0.486-0.455-0.647-0.651v-2.315c3.89-2.199,9.07-5.747,14-11.557C28.93,28.696,34.11,32.245,38,34.444z
	 M34.517,35.796c-3.148-1.893-6.839-4.507-10.517-8.41c-3.681,3.907-7.376,6.523-10.527,8.416C15.006,36.757,18.226,38,24,38
	C29.391,38,32.812,36.829,34.517,35.796z"/>
</svg>
