<?xml version="1.0" encoding="iso-8859-1"?>
<!-- Generator: Adobe Illustrator 22.0.1, SVG Export Plug-In . SVG Version: 6.00 Build 0)  -->
<svg xmlns="http://www.w3.org/2000/svg" xmlns:xlink="http://www.w3.org/1999/xlink" version="1.1" id="Layer_1" x="0px" y="0px" viewBox="0 0 64 64" style="enable-background:new 0 0 64 64;" xml:space="preserve">
<g>
	<path style="fill:#F9E3AE;" d="M58.837,33.717c0.441,1.094-0.04,2.341-1.116,2.824l-7.911,3.547L8.066,58.803   c-1.82,0.816-3.685-1.049-2.869-2.869L23.912,14.19l3.547-7.911c0.482-1.076,1.73-1.557,2.824-1.116   C43.255,10.39,53.61,20.745,58.837,33.717z"/>
	<path style="fill:#EFC88E;" d="M58.837,33.717C53.61,20.745,43.255,10.39,30.283,5.163c-1.094-0.441-2.341,0.04-2.824,1.116   L26.436,8.56c0.116,0.026,0.233,0.057,0.347,0.102C39.755,13.89,50.11,24.245,55.337,37.217c0.046,0.114,0.076,0.23,0.102,0.347   l2.282-1.023C58.797,36.058,59.278,34.811,58.837,33.717z"/>
	<path style="fill:#F9E3AE;" d="M49.81,40.088L8.066,58.803c-1.82,0.816-3.685-1.049-2.869-2.869L23.912,14.19   C36.112,18.238,45.762,27.888,49.81,40.088z"/>
	<path style="fill:#F7A1C8;" d="M8.066,58.803c-1.82,0.816-3.685-1.049-2.869-2.869l3.963-8.84C13.027,47.657,16,50.977,16,55   c0,0.085-0.01,0.167-0.013,0.252L8.066,58.803z M34,36c-4.418,0-8,3.582-8,8c0,1.99,0.731,3.806,1.933,5.206l13.988-6.271   C41.399,39.021,38.056,36,34,36z M15.19,32.183C16.598,34.47,19.117,36,22,36c4.418,0,8-3.582,8-8s-3.582-8-8-8   c-0.481,0-0.949,0.05-1.407,0.131L15.19,32.183z"/>
</g>
<g>
	<path style="fill:#8D6C9F;" d="M59.764,33.343L59.764,33.343C54.452,20.158,43.843,9.549,30.657,4.235   c-1.603-0.643-3.408,0.071-4.11,1.634l-3.177,7.087l0,0L4.285,55.524c-0.543,1.212-0.287,2.602,0.652,3.54   c0.611,0.611,1.414,0.933,2.233,0.933c0.439,0,0.884-0.093,1.306-0.282l7.921-3.551l0.003-0.002L50.219,41c0,0,0,0,0,0l7.911-3.547   C59.693,36.753,60.411,34.947,59.764,33.343z M22,21c3.86,0,7,3.141,7,7s-3.14,7-7,7c-2.03,0-3.916-0.874-5.247-2.396l5.202-11.602   C21.97,21.001,21.985,21,22,21z M6.351,57.65c-0.134-0.135-0.547-0.624-0.241-1.308l3.637-8.112   c2.895,0.748,5.038,3.316,5.234,6.376l-7.324,3.284C6.973,58.196,6.485,57.783,6.351,57.65z M27,44c0-3.859,3.14-7,7-7   c3.46,0,6.415,2.566,6.914,5.98L28.64,48.483C27.586,47.223,27,45.638,27,44z M57.312,35.629l-6.921,3.103   c-0.246-0.68-0.504-1.358-0.786-2.027c-0.214-0.508-0.801-0.746-1.31-0.533c-0.509,0.215-0.748,0.802-0.533,1.311   c0.288,0.682,0.55,1.376,0.798,2.07l-5.768,2.586C41.924,38.026,38.26,35,34,35c-4.962,0-9,4.037-9,9   c0,1.92,0.623,3.786,1.758,5.327l-9.857,4.419c-0.494-3.456-2.989-6.351-6.331-7.352l5.303-11.827C17.528,36.12,19.69,37,22,37   c4.962,0,9-4.037,9-9c0-4.682-3.594-8.536-8.167-8.958l1.618-3.609c7.131,2.547,13.355,7.053,18.042,13.073   c0.339,0.435,0.967,0.514,1.403,0.175s0.514-0.968,0.175-1.403c-4.889-6.28-11.383-10.967-18.811-13.651l3.111-6.939   C28.565,6.256,28.992,6,29.447,6c0.153,0,0.31,0.029,0.462,0.091c12.684,5.11,22.889,15.316,28,28h0   C58.152,34.693,57.89,35.369,57.312,35.629z"/>
	<path style="fill:#8D6C9F;" d="M46.398,30.581c-0.295-0.465-0.914-0.605-1.38-0.309c-0.466,0.296-0.604,0.914-0.309,1.381   c0.514,0.81,1.006,1.651,1.463,2.502c0.18,0.337,0.525,0.527,0.882,0.527c0.16,0,0.321-0.038,0.472-0.119   c0.486-0.261,0.669-0.867,0.408-1.354C47.455,32.316,46.938,31.433,46.398,30.581z"/>
	<path style="fill:#8D6C9F;" d="M31.683,8.96c-0.495-0.244-1.095-0.041-1.339,0.454l-0.885,1.794   c-0.244,0.495-0.041,1.095,0.455,1.339c0.142,0.07,0.293,0.104,0.441,0.104c0.369,0,0.724-0.204,0.898-0.558l0.885-1.794   C32.381,9.804,32.178,9.204,31.683,8.96z"/>
	<path style="fill:#8D6C9F;" d="M36.066,11.383c-0.471-0.289-1.086-0.143-1.376,0.327l-1.049,1.703   c-0.29,0.47-0.143,1.086,0.327,1.376c0.164,0.101,0.345,0.148,0.523,0.148c0.335,0,0.664-0.169,0.853-0.476l1.049-1.703   C36.683,12.289,36.536,11.673,36.066,11.383z"/>
	<path style="fill:#8D6C9F;" d="M38.805,14.4l-1.204,1.597c-0.333,0.44-0.245,1.067,0.196,1.4c0.18,0.136,0.392,0.201,0.601,0.201   c0.303,0,0.603-0.138,0.799-0.398l1.204-1.597c0.333-0.44,0.245-1.067-0.196-1.4C39.763,13.87,39.136,13.959,38.805,14.4z"/>
	<path style="fill:#8D6C9F;" d="M44.064,17.395c-0.408-0.373-1.041-0.341-1.413,0.065l-1.347,1.479   c-0.372,0.408-0.342,1.041,0.066,1.413c0.191,0.175,0.433,0.261,0.673,0.261c0.272,0,0.542-0.11,0.74-0.326l1.347-1.479   C44.502,18.399,44.472,17.767,44.064,17.395z"/>
	<path style="fill:#8D6C9F;" d="M45.388,23.956c0.24,0,0.481-0.086,0.673-0.261l1.479-1.347c0.408-0.372,0.438-1.004,0.066-1.413   c-0.372-0.407-1.004-0.438-1.413-0.065l-1.479,1.347c-0.408,0.372-0.438,1.004-0.066,1.413   C44.846,23.846,45.116,23.956,45.388,23.956z"/>
	<path style="fill:#8D6C9F;" d="M50.797,24.795c-0.333-0.44-0.959-0.529-1.401-0.197l-1.598,1.204   c-0.441,0.333-0.529,0.96-0.197,1.4c0.197,0.261,0.497,0.398,0.8,0.398c0.209,0,0.421-0.065,0.601-0.201l1.598-1.204   C51.042,25.862,51.129,25.235,50.797,24.795z"/>
	<path style="fill:#8D6C9F;" d="M53.617,28.935c-0.29-0.47-0.905-0.616-1.376-0.327l-1.703,1.049   c-0.47,0.29-0.617,0.906-0.327,1.376c0.189,0.307,0.517,0.476,0.853,0.476c0.179,0,0.36-0.048,0.523-0.148l1.703-1.049   C53.76,30.021,53.907,29.404,53.617,28.935z"/>
	<path style="fill:#8D6C9F;" d="M54.701,32.863l-1.793,0.885c-0.495,0.244-0.699,0.844-0.455,1.339   c0.174,0.354,0.529,0.558,0.898,0.558c0.148,0,0.299-0.033,0.441-0.104l1.793-0.885c0.495-0.244,0.699-0.844,0.455-1.339   S55.196,32.619,54.701,32.863z"/>
</g>
</svg>
