<?xml version="1.0" encoding="utf-8"?>
<!-- Generator: Adobe Illustrator 15.0.0, SVG Export Plug-In . SVG Version: 6.00 Build 0)  -->
<!DOCTYPE svg PUBLIC "-//W3C//DTD SVG 1.1//EN" "http://www.w3.org/Graphics/SVG/1.1/DTD/svg11.dtd">
<svg version="1.1"  xmlns="http://www.w3.org/2000/svg" xmlns:xlink="http://www.w3.org/1999/xlink" x="0px" y="0px"
	 width="48px" height="48px" viewBox="0 0 48 48" enable-background="new 0 0 48 48" xml:space="preserve">
<path fill="#C68632" d="M8.439,40c-10.095,0-3.046-6-3.046-14c0-9.941,8.183-18,18.278-18s18.278,8.059,18.278,18
	c0,7,8.064,14-2.031,14c0,0-11.17-2-16.247-2S8.439,40,8.439,40z"/>
<g>
	<path fill="#995F1A" d="M14.204,16.968c-0.459,1.052-0.185,2.274,1.213,1.991c1.063-0.22,1.46-1.447,2.613-1.658
		c1.049-0.186,2.785,0.717,3.605-0.146c1.018-1.088-0.356-1.542-0.984-2.211c-1.09-1.142-1.8-5.047-3.76-4.942
		c0.126-0.004-0.147,2.982-0.324,3.432C16.025,14.801,14.802,15.627,14.204,16.968z"/>
	<path fill="#995F1A" d="M27.404,16.16c1.041,0.697,1.463-0.22,2.429,0.737c0.618,0.583,0.854,1.68,1.466,2.327
		c0.746,0.801,1.635,1.396,1.648-0.399c0.004-0.581-0.545-0.872-0.624-1.429c-0.136-1.035,0.083-1.008,0.299-1.799
		c0.312-1.184,0.844-2.122-0.442-2.531c-1.095-0.35-2.174,0.778-3.094,1.246C28.627,14.565,26.012,15.232,27.404,16.16z"/>
	<path fill="#995F1A" d="M31.684,23.762c-3.266,0.8,0.689,1.884,1.549,2.335c0.543,0.278,0.9,0.795,1.414,1.156
		c1.16,0.789,2.246-1.189,2.53-2.061c0.869-2.66-1.241-1.346-2.843-1.262C33.479,23.986,32.529,23.548,31.684,23.762z"/>
	<path fill="#995F1A" d="M24.787,22.295c0.811,0.654-0.953,2.555-1.014,3.424c-0.047,0.953,0.999,2.127,0.316,3.004
		c-0.586,0.756-1.695-0.22-2.233-0.729c-0.655-0.658-1.05-1.515-2.002-1.813c-0.622-0.203-1.597,0.221-1.835-0.666
		c-0.134-0.527,0.455-1.053,0.854-1.256c1.045-0.509,2.164,0.056,3.17-0.556C22.862,23.195,23.521,21.273,24.787,22.295z"/>
	<path fill="#995F1A" d="M9.601,26.709c-0.027,0.016-0.042,0.043-0.069,0.059c-0.785,0.887-0.118,2.006-0.668,2.795
		c-1.095,1.582-1.765-2.922-1.682-3.59c0.194-1.572,1.385-1.667,2.686-1.619c0.698,0.031,2.979,0,2.059,1.203
		C11.467,26.163,10.23,26.092,9.601,26.709z"/>
</g>
<path fill="#56300D" d="M44,38c0-2-1.953-4-5-6c-3.045-2-3.123-2-15.309-2S12.046,30,9,32s-5,4-5,6c0,0-0.618,2.001,3.744,2
	c5.195-0.001,8.472-2,15.947-2s10.75,1.999,15.946,2C44,40.001,44,38,44,38z"/>
<path fill="#824C11" d="M42.236,28.425c-0.176-0.802-0.287-1.612-0.287-2.425c0-0.684-0.047-1.355-0.121-2.02
	C38.285,22.735,31.887,21,23.671,21c-8.215,0-14.614,1.735-18.156,2.98C5.44,24.645,5.393,25.316,5.393,26
	c0,0.818-0.076,1.614-0.198,2.387C7.569,27.412,14.384,25,23.671,25C33.018,25,39.93,27.477,42.236,28.425z"/>
</svg>
