<?xml version="1.0"?>
<svg xmlns="http://www.w3.org/2000/svg" id="Layer_1" data-name="Layer 1" viewBox="0 0 64 64"><title>Icons8 RSL Colored Part 8</title><path d="M57.83,53,9,40s-4-.12-5,3.13,3.42,6.94,3.42,6.94L54.25,62.42s4.9-.22,5.75-3.59S57.83,53,57.83,53Z" style="fill:#c4939c;"/><circle cx="55" cy="58" r="5" style="fill:#cda1a7;"/><path d="M38.79,29.43c1.86-2.48,3.82-10.32,3.9-13.12a.85.85,0,0,1,1.58-.43q.67,1.09,1.25,2.24a31.2,31.2,0,0,1,3.36,14.12v.47A18.15,18.15,0,0,1,31.65,51,17.87,17.87,0,0,1,13.13,33.13c0-9.49,6.6-11.43,7.12-20.33a.85.85,0,0,1,1.15-.74,13.4,13.4,0,0,1,4,2.37,40.55,40.55,0,0,0,0-13.82s6.46,1,12.05,10.68A20.17,20.17,0,0,1,38.79,29.43Z" style="fill:#f9dd8f;"/><path d="M31,45a11.86,11.86,0,0,1-9.88-5.28,11.7,11.7,0,0,1-2-6.74,10.45,10.45,0,0,1,1.4-5.27,3,3,0,0,0-.78-3.8h0a3,3,0,0,0-4.61,1,17.75,17.75,0,0,0-1.56,12.25,16.68,16.68,0,0,0,9.13,11.4L31,46.3S30.69,45,31,45Z" style="fill:#f6d397;"/><path d="M26.17,5c5.31,3.3,6.71,6.1,8.08,9.73,1.09,2.87,2.28,6.32,1.56,10.7a4.64,4.64,0,0,0,2.92,5.12h0a29.08,29.08,0,0,0,1.39-11.27C39.69,12.75,33.88,3.59,25.88.61Z" style="fill:#ffeb9b;"/><rect x="3" y="46.21" width="58" height="10" rx="5" ry="5" transform="translate(-12.16 10.03) rotate(-15)" style="fill:#cda1a7;"/><path d="M18.09,56.28,56.93,45.83a1.64,1.64,0,0,1,2,2.18l-.23.58L13.13,61.78h0A6.81,6.81,0,0,1,18.09,56.28Z" style="fill:#c4939c;"/><circle cx="8.82" cy="57.42" r="5" style="fill:#c4939c;"/><path d="M38,48l.73-7.18A1.62,1.62,0,0,0,37.17,39h0a1.62,1.62,0,0,0-1.54,1.11L32.84,49C36.44,49.84,38,48,38,48Z" style="fill:#dbb2ba;"/><path d="M56.74,51.63l-1.55-.41,1.55-.42a6,6,0,0,0-3.11-11.59l-5.49,1.47a19.25,19.25,0,0,0,1.73-8v-.46A32,32,0,0,0,46.4,17.67c-.39-.79-.83-1.57-1.29-2.32a1.86,1.86,0,0,0-3.43.93A16.92,16.92,0,0,1,41,20.45C40.37,12,35.32,4.17,26.91-.48a1.86,1.86,0,0,0-2.69,2.12,24.61,24.61,0,0,1,.66,11.14,15,15,0,0,0-3.12-1.66,1.84,1.84,0,0,0-2.5,1.62c-.23,4-1.77,6.51-3.4,9.14-1.83,3-3.72,6-3.72,11.25a18.6,18.6,0,0,0,1.3,6.9l-3.06-.82A6,6,0,1,0,7.27,50.8l1.55.42-1.55.41h0a5.94,5.94,0,0,0-1,.36l-.18.08a6,6,0,0,0-.77.48l-.24.18a6,6,0,0,0-.61.57l-.22.25a6,6,0,0,0-.49.69c0,.06-.08.1-.12.16A6,6,0,0,0,3,59c0,.06,0,.1.06.16a5.94,5.94,0,0,0,.24.65c.05.13.11.25.18.37s.14.25.21.37a6,6,0,0,0,.36.53l.23.28c.11.12.21.24.33.35s.29.27.44.39l.31.23q.23.17.48.31l.35.18.51.22.29.11a5.94,5.94,0,0,0,.7.18l.34.05.56,0,.23,0,.4,0,.26,0,.3,0,.47-.1.11,0L32,57.43l21.63,5.79.15,0,.37.08a5.85,5.85,0,0,0,1,.1,6,6,0,0,0,1.56-11.8ZM14.13,33.13c0-4.65,1.66-7.35,3.42-10.2,1.66-2.68,3.38-5.46,3.68-9.86,2.12.85,5.53,2.83,6.1,6.8a1,1,0,1,0,2-.29,9.41,9.41,0,0,0-2.65-5.29,27.57,27.57,0,0,0-.43-12.85C35.2,6.53,40,15.51,39,24.8a1,1,0,0,0,0,.45,23.64,23.64,0,0,1-.86,4,1,1,0,1,0,1.91.59,25.75,25.75,0,0,0,1-4.47,17,17,0,0,0,2.71-8.56c.34.58.66,1.16,1,1.75a30,30,0,0,1,3.25,13.67v.46a17.29,17.29,0,0,1-2.32,8.67L39.5,43l.26-2a2.57,2.57,0,0,0-.63-2,2.6,2.6,0,0,0-2-.89,2.63,2.63,0,0,0-2.49,1.79L33,44.72,32,45l-.62.17.16-1a1,1,0,0,0-2-.31l-.3,1.93-1.12.3L22.32,47.6a16.86,16.86,0,0,1-3-2.33,16.48,16.48,0,0,1-1.84-2.09,16.88,16.88,0,0,1-1.54-2.49A16.66,16.66,0,0,1,14.13,33.13ZM7.78,48.87a4,4,0,1,1,2.07-7.73l4.71,1.26a18.62,18.62,0,0,0,3.34,4.31,18.38,18.38,0,0,0,1.86,1.57l-7.08,1.9Zm2,12.44-.36.06a4,4,0,0,1-.46,0h-.3a4,4,0,0,1-.5-.05l-.29-.07a4,4,0,0,1-.46-.14L7.1,61a4,4,0,0,1-.42-.23l-.22-.16a4,4,0,0,1-.39-.32l-.16-.17a4,4,0,0,1-.35-.42l-.11-.18a4,4,0,0,1-.27-.5c0-.06,0-.13-.07-.19a4,4,0,0,1-.18-.57c0-.05,0-.11,0-.16a4,4,0,0,1-.06-.63c0-.06,0-.12,0-.19a4,4,0,0,1,.06-.6c0-.07,0-.14,0-.21a4,4,0,0,1,.17-.55l.08-.18a4,4,0,0,1,.28-.52l.11-.15A4,4,0,0,1,6,54.65l.17-.16a4,4,0,0,1,.4-.33L6.77,54a4,4,0,0,1,.41-.22l.33-.13a4,4,0,0,1,1.32-.24,4,4,0,0,1,.91,7.89Zm18.41-4.92-14,3.74A6,6,0,0,0,12.1,52.4l.58-.15,3.86-1L22,49.74l3-.81L32,47.07l.28-.07-.23.68A1,1,0,0,0,32.68,49,1.25,1.25,0,0,0,33,49a1,1,0,0,0,.95-.68l.65-1.94.75-2.28,1.23-3.68a.62.62,0,0,1,.59-.42.62.62,0,0,1,.61.7l-.35,2.85-.27,2.14L37,46.88a1,1,0,0,0,2,.24l.25-2,4.53-1.21,3.06-.82,7.32-2a4,4,0,1,1,2.07,7.73l-4.89,1.31-3.87,1L32,55.36Zm30.91,2.07a3.94,3.94,0,0,1-4.49,2.9l-.29,0a4,4,0,0,1-3.11-3.89,1,1,0,0,0-2,0,6,6,0,0,0,.65,2.71l-14-3.74,15.47-4.14,4.89,1.31A4,4,0,0,1,59.05,58.46Z" style="fill:#8d6c9f;"/><path d="M32.39,12.78a21,21,0,0,1,2.42,6.94,1,1,0,0,0,1,.84h.16a1,1,0,0,0,.83-1.15,23,23,0,0,0-2.64-7.6,1,1,0,1,0-1.75,1Z" style="fill:#8d6c9f;"/><path d="M30.58,10a1,1,0,1,0,1.58-1.22c-.4-.51-.82-1-1.25-1.49a1,1,0,0,0-1.48,1.34C29.83,9.11,30.22,9.57,30.58,10Z" style="fill:#8d6c9f;"/><path d="M24.35,44.85a1,1,0,0,0,1.37-.34l1-1.72a1,1,0,1,0-1.71-1l-1,1.72A1,1,0,0,0,24.35,44.85Z" style="fill:#8d6c9f;"/><path d="M19.81,40.77a1,1,0,0,0,1.4.19l1.6-1.21a1,1,0,1,0-1.21-1.6L20,39.37A1,1,0,0,0,19.81,40.77Z" style="fill:#8d6c9f;"/><path d="M18.09,36a1,1,0,0,0,.26,0l1.93-.52a1,1,0,0,0-.52-1.93l-1.93.52a1,1,0,0,0,.26,2Z" style="fill:#8d6c9f;"/></svg>
