<?xml version="1.0" encoding="utf-8"?>
<!-- Generator: Adobe Illustrator 21.1.0, SVG Export Plug-In . SVG Version: 6.00 Build 0)  -->
<svg xmlns="http://www.w3.org/2000/svg" xmlns:xlink="http://www.w3.org/1999/xlink" version="1.1" id="Layer_1" x="0px" y="0px" viewBox="0 0 64 64" enable-background="new 0 0 64 64" xml:space="preserve">
<g id="surface1">
	<path fill="#ED7899" d="M56.4,11.4c-6.1-6.1-15.9-6.1-22,0L31.7,14L29,11.4c-6.1-6.1-15.9-6.1-22,0c-6.1,6.1-6.1,15.9,0,22   l24.4,24.5l0.3-0.3l0.3,0.3l24.4-24.4C62.5,27.3,62.5,17.4,56.4,11.4z"/>
	<path fill="#F283A5" d="M18.6,17.6l4.9,4.9l8.1-8.1l-4.9-4.9c-2.2-2.2-5.9-2.2-8.1,0C16.3,11.7,16.3,15.3,18.6,17.6z"/>
	<path fill="#E0678F" d="M49.5,24.6L28.1,46c-1.1,1.1-1.8,2.7-1.8,4.2c0,1.6,0.6,3.1,1.8,4.2l3.5,3.5l25.6-25.6   c2.1-2.1,2.1-5.6,0-7.8C55.1,22.4,51.6,22.4,49.5,24.6z"/>
</g>
<g>
	<path fill="#8D6C9F" d="M57.2,10.8c-6.5-6.5-17-6.5-23.4,0l-1.8,1.8l-1.8-1.8c-6.5-6.5-17-6.5-23.4,0C3.6,14,1.9,18.1,1.9,22.6   c0,4.4,1.7,8.6,4.8,11.7L26.5,54c0,0,0,0.1,0.1,0.1l1.4,1.4c0,0,0.1,0,0.1,0.1l1.8,1.8c0.6,0.6,1.3,0.9,2.1,0.9   c0.8,0,1.6-0.3,2.1-0.9l23.1-23.1C60.3,31.1,62,27,62,22.6C62,18.1,60.3,14,57.2,10.8z M55.7,32.8L32.7,55.9c-0.4,0.4-1,0.4-1.4,0   L8.1,32.8c-2.7-2.7-4.3-6.4-4.3-10.3S5.4,15,8.2,12.3C11,9.4,14.7,8,18.4,8s7.5,1.4,10.3,4.3l1.8,1.8l-2.2,2.2   c-0.4,0.4-0.4,1,0,1.4c0.2,0.2,0.5,0.3,0.7,0.3s0.5-0.1,0.7-0.3l4.1-4.1l0,0l1.4-1.4c5.7-5.7,14.9-5.7,20.6,0   C58.5,15,60,18.7,60,22.6S58.5,30.1,55.7,32.8z"/>
	<path fill="#8D6C9F" d="M25.3,19.3l-2,2c-0.4,0.4-0.4,1,0,1.4c0.2,0.2,0.5,0.3,0.7,0.3s0.5-0.1,0.7-0.3l2-2c0.4-0.4,0.4-1,0-1.4   S25.7,18.9,25.3,19.3z"/>
	<path fill="#8D6C9F" d="M31.5,49.1c-0.4-0.4-1-0.4-1.4,0s-0.4,1,0,1.4l1.4,1.4c0.2,0.2,0.5,0.3,0.7,0.3s0.5-0.1,0.7-0.3   c0.4-0.4,0.4-1,0-1.4L31.5,49.1z"/>
	<path fill="#8D6C9F" d="M35,45.6c-0.4-0.4-1-0.4-1.4,0s-0.4,1,0,1.4l1.4,1.4c0.2,0.2,0.5,0.3,0.7,0.3s0.5-0.1,0.7-0.3   c0.4-0.4,0.4-1,0-1.4L35,45.6z"/>
	<path fill="#8D6C9F" d="M38.5,42c-0.4-0.4-1-0.4-1.4,0s-0.4,1,0,1.4l1.4,1.4c0.2,0.2,0.5,0.3,0.7,0.3s0.5-0.1,0.7-0.3   c0.4-0.4,0.4-1,0-1.4L38.5,42z"/>
	<path fill="#8D6C9F" d="M42.1,38.5c-0.4-0.4-1-0.4-1.4,0c-0.4,0.4-0.4,1,0,1.4l1.4,1.4c0.2,0.2,0.5,0.3,0.7,0.3s0.5-0.1,0.7-0.3   c0.4-0.4,0.4-1,0-1.4L42.1,38.5z"/>
	<path fill="#8D6C9F" d="M45.6,35c-0.4-0.4-1-0.4-1.4,0s-0.4,1,0,1.4l1.4,1.4c0.2,0.2,0.5,0.3,0.7,0.3s0.5-0.1,0.7-0.3   c0.4-0.4,0.4-1,0-1.4L45.6,35z"/>
	<path fill="#8D6C9F" d="M49.1,31.4c-0.4-0.4-1-0.4-1.4,0s-0.4,1,0,1.4l1.4,1.4c0.2,0.2,0.5,0.3,0.7,0.3s0.5-0.1,0.7-0.3   c0.4-0.4,0.4-1,0-1.4L49.1,31.4z"/>
	<path fill="#8D6C9F" d="M52.7,27.9c-0.4-0.4-1-0.4-1.4,0s-0.4,1,0,1.4l1.4,1.4c0.2,0.2,0.5,0.3,0.7,0.3s0.5-0.1,0.7-0.3   c0.4-0.4,0.4-1,0-1.4L52.7,27.9z"/>
</g>
</svg>
