<?xml version="1.0"?>
<svg xmlns="http://www.w3.org/2000/svg" id="Layer_1" data-name="Layer 1" viewBox="0 0 64 64"><title>Icons8 RSL Colored Part 9</title><path d="M59.69,10.07,54,4.41a2,2,0,0,1,0-2.83h0a2,2,0,0,1,2.83,0l5.66,5.66a2,2,0,0,1,0,2.83h0A2,2,0,0,1,59.69,10.07Z" style="fill:#81d6bb;"/><path d="M53.17,16.59l6.52-6.52L54,4.41l-6.52,6.52a4,4,0,0,1-2.62,1.17l-7.3.38A12,12,0,0,0,29.74,16L2.59,43.13a2,2,0,0,0,0,2.83L18.14,61.52a2,2,0,0,0,2.83,0L48.12,34.37a12,12,0,0,0,3.5-7.85l.38-7.3A4,4,0,0,1,53.17,16.59Z" style="fill:#5dbc9d;"/><rect x="18.94" y="23.85" width="26" height="16.64" transform="translate(32.1 -13.16) rotate(45)" style="fill:#faefde;"/><rect x="22.8" y="25.12" width="26" height="6.36" transform="translate(30.5 -17.03) rotate(45)" style="fill:#fff7f0;"/><path d="M3.05,49.22h18a4,4,0,0,1,4,4v0a1.66,1.66,0,0,1-1.66,1.66H.71A1.66,1.66,0,0,1-.95,53.22v0a4,4,0,0,1,4-4Z" transform="translate(40.34 6.72) rotate(45)" style="fill:#52af8d;"/><path d="M13.9,48.79,12.49,50.2a1,1,0,1,0,1.41,1.41l1.41-1.41a1,1,0,0,0-1.41-1.41Z" style="fill:#8d6c9f;"/><path d="M6.83,41.72,5.41,43.13a1,1,0,1,0,1.41,1.41l1.41-1.41a1,1,0,1,0-1.41-1.41Z" style="fill:#8d6c9f;"/><path d="M10.36,45.25,8.95,46.67a1,1,0,1,0,1.41,1.41l1.41-1.41a1,1,0,0,0-1.41-1.41Z" style="fill:#8d6c9f;"/><path d="M16,53.74a1,1,0,1,0,1.41,1.41l1.41-1.41a1,1,0,0,0-1.41-1.41Z" style="fill:#8d6c9f;"/><path d="M20.26,59a1,1,0,0,0,.71-.29l1.41-1.41A1,1,0,0,0,21,55.86l-1.41,1.41A1,1,0,0,0,20.26,59Z" style="fill:#8d6c9f;"/><path d="M63.23,6.54,57.57.88a3.07,3.07,0,0,0-4.24,0,3,3,0,0,0-.58,3.41L46.8,10.23a3,3,0,0,1-2,.87l-7.3.38A13,13,0,0,0,29,15.28L1.88,42.43a3,3,0,0,0,0,4.24L17.44,62.23a3,3,0,0,0,4.24,0L35.24,48.66h0L48.43,35.48l.4-.4a13,13,0,0,0,3.79-8.51l.38-7.3a3,3,0,0,1,.87-2l5.94-5.94a3,3,0,0,0,3.4-4.82Zm-28,39.29-17-17L28.63,18.51l17,17Zm-15,15a1,1,0,0,1-1.41,0L3.29,45.25a1,1,0,0,1,0-1.41L16.86,30.27l17,17Zm32.2-44.93A5,5,0,0,0,51,19.16l-.38,7.3a11,11,0,0,1-3.21,7.2l-.4.4-17-17,.4-.4a11,11,0,0,1,7.2-3.21l7.3-.38a5,5,0,0,0,3.27-1.46L54,5.83l2.12,2.12,2.12,2.12Zm9.35-6.52a1,1,0,0,1-1.41,0L54.74,3.71a1,1,0,0,1,0-1.41,1,1,0,0,1,1.41,0l5.66,5.66A1,1,0,0,1,61.81,9.36Z" style="fill:#8d6c9f;"/><path d="M37.82,36.18a1,1,0,0,0,1.41-1.41l-2.83-2.83A1,1,0,0,0,35,33.35Z" style="fill:#8d6c9f;"/><path d="M27.92,24.87a1,1,0,0,0,0,1.41l4.24,4.24a1,1,0,0,0,1.41-1.41l-4.24-4.24A1,1,0,0,0,27.92,24.87Z" style="fill:#8d6c9f;"/><path d="M25.09,27.7a1,1,0,0,0,0,1.41l7.78,7.78a1,1,0,0,0,1.41-1.41L26.51,27.7A1,1,0,0,0,25.09,27.7Z" style="fill:#8d6c9f;"/></svg>
