<?xml version="1.0" encoding="iso-8859-1"?>
<!-- Generator: Adobe Illustrator 22.0.1, SVG Export Plug-In . SVG Version: 6.00 Build 0)  -->
<svg xmlns="http://www.w3.org/2000/svg" xmlns:xlink="http://www.w3.org/1999/xlink" version="1.1" id="Layer_1" x="0px" y="0px" viewBox="0 0 64 64" style="enable-background:new 0 0 64 64;" xml:space="preserve">
<path style="fill:#C5E4FA;" d="M54.662,14.968l5.153-5.153L53.93,4.386l-4.926,4.926c-1.763,1.763-3.91,3.096-6.273,3.895  L32.65,16.612c-3.65,1.233-6.966,3.292-9.69,6.016L1.572,44.016c-0.781,0.781-0.781,2.047,0,2.828l15.556,15.556  c0.781,0.781,2.047,0.781,2.828,0l21.388-21.388c2.724-2.724,4.783-6.04,6.016-9.69l3.406-10.082  C51.565,18.878,52.898,16.732,54.662,14.968z"/>
<path style="fill:#E3F2FF;" d="M54.064,10.936L57.41,7.59L54,4l-7.834,7.979L27,19L1.75,43.704  c-0.959,0.938-0.955,2.482,0.009,3.415l12.297,11.824L37.28,34.858c2.47-2.562,4.603-5.428,6.348-8.529l3.555-6.319  C49.052,16.685,51.367,13.633,54.064,10.936z"/>
<path style="fill:#F0F7FC;" d="M47,12.628l7-7L53,5l-6,6l-21,9L1.75,43.704c-0.959,0.938-0.955,2.482,0.009,3.415L8,52.944  L34.944,25L47,12.628z"/>
<rect x="14.46" y="28.192" transform="matrix(0.7071 0.7071 -0.7071 0.7071 33.8615 -8.7225)" style="fill:#FAEFDE;" width="26" height="16.642"/>
<rect x="30.468" y="19.39" transform="matrix(0.7071 -0.7071 0.7071 0.7071 -12.6654 32.2441)" style="fill:#ED7899;" width="4.243" height="24.042"/>
<rect x="21.175" y="28.683" transform="matrix(0.7071 -0.7071 0.7071 0.7071 -22.6654 28.102)" style="fill:#ED7899;" width="2.828" height="25.456"/>
<path style="fill:#C5E4FA;" d="M17.527,62.515L1.485,46.473c-0.647-0.647-0.647-1.696,0-2.343l0,0c1.562-1.562,4.095-1.562,5.657,0  L19.87,56.858c1.562,1.562,1.562,4.095,0,5.657l0,0C19.223,63.162,18.174,63.162,17.527,62.515z"/>
<path style="fill:#8D6C9F;" d="M12.886,49.673l-1.414,1.414c-0.391,0.391-0.391,1.023,0,1.414c0.195,0.195,0.451,0.293,0.707,0.293  s0.512-0.098,0.707-0.293l1.414-1.414c0.391-0.391,0.391-1.023,0-1.414S13.276,49.282,12.886,49.673z"/>
<path style="fill:#8D6C9F;" d="M5.815,42.602L4.4,44.016c-0.391,0.391-0.391,1.023,0,1.414c0.195,0.195,0.451,0.293,0.707,0.293  s0.512-0.098,0.707-0.293l1.415-1.415c0.391-0.391,0.391-1.023,0-1.414S6.206,42.211,5.815,42.602z"/>
<path style="fill:#8D6C9F;" d="M9.351,46.137l-1.415,1.414c-0.391,0.39-0.391,1.023,0,1.414c0.195,0.195,0.451,0.293,0.707,0.293  s0.512-0.098,0.707-0.293l1.415-1.414c0.391-0.39,0.391-1.023,0-1.414S9.741,45.747,9.351,46.137z"/>
<path style="fill:#8D6C9F;" d="M15.007,54.623c-0.391,0.391-0.391,1.023,0,1.414c0.195,0.195,0.451,0.293,0.707,0.293  s0.512-0.098,0.707-0.293l1.414-1.414c0.391-0.391,0.391-1.023,0-1.414s-1.023-0.391-1.414,0L15.007,54.623z"/>
<path style="fill:#8D6C9F;" d="M19.25,59.865c0.256,0,0.512-0.098,0.707-0.293l1.414-1.415c0.391-0.391,0.391-1.024,0-1.414  c-0.391-0.391-1.024-0.391-1.414,0l-1.414,1.415c-0.391,0.391-0.391,1.024,0,1.414C18.738,59.768,18.994,59.865,19.25,59.865z"/>
<path style="fill:#8D6C9F;" d="M22.293,31.293c-0.391,0.391-0.391,1.023,0,1.414l9,9C31.488,41.902,31.744,42,32,42  s0.512-0.098,0.707-0.293c0.391-0.391,0.391-1.023,0-1.414l-9-9C23.316,30.902,22.684,30.902,22.293,31.293z"/>
<path style="fill:none;stroke:#8D6C9F;stroke-width:2;stroke-miterlimit:10;" d="M55,15l3-3l-6-5.883L49,9  c-1.763,1.763-3.905,3.407-6.268,4.206L32.65,16.612c-3.65,1.233-6.966,3.292-9.69,6.016L1.572,44.016  c-0.781,0.781-0.781,2.047,0,2.828l15.556,15.556c0.781,0.781,2.047,0.781,2.828,0l21.388-21.388c2.724-2.724,4.783-6.04,6.016-9.69  l3.406-10.082C51.565,18.878,53.237,16.763,55,15z"/>
<path style="fill:#ED7899;" d="M58,12l-6-5.883l4.208-4.539c0.771-0.771,2.021-0.771,2.792,0L62.422,5  c0.771,0.771,0.771,2.021,0,2.792L58,12z"/>
<path style="fill:none;stroke:#8D6C9F;stroke-width:2;stroke-miterlimit:10;" d="M58,12l-6-5.883l4.539-4.539  c0.771-0.771,2.021-0.771,2.792,0l3.208,3.091c0.771,0.771,0.771,2.021,0,2.792L58,12z"/>
<line style="fill:none;stroke:#8D6C9F;stroke-width:2;stroke-linecap:round;stroke-miterlimit:10;" x1="12.589" y1="34.411" x2="29.589" y2="51.411"/>
<line style="fill:none;stroke:#8D6C9F;stroke-width:2;stroke-linecap:round;stroke-miterlimit:10;" x1="25.089" y1="21.911" x2="42.089" y2="38.911"/>
</svg>
