<?xml version="1.0" encoding="iso-8859-1"?>
<!-- Generator: Adobe Illustrator 22.0.1, SVG Export Plug-In . SVG Version: 6.00 Build 0)  -->
<svg xmlns="http://www.w3.org/2000/svg" xmlns:xlink="http://www.w3.org/1999/xlink" version="1.1" id="Layer_1" x="0px" y="0px" viewBox="0 0 64 64" style="enable-background:new 0 0 64 64;" xml:space="preserve">
<path style="fill:#CDA1A7;" d="M41.261,8.971L42,7H22l0.749,1.997c1.372,3.659,0.487,7.781-2.265,10.555l-2.352,2.37  c-5.555,5.599-7.301,13.94-4.458,21.297L19,57h26l5.334-13.869c2.837-7.377,1.064-15.733-4.525-21.322l-2.256-2.256  C40.78,16.78,39.884,12.643,41.261,8.971z"/>
<path style="fill:#DBB2BA;" d="M29.132,21.922l2.352-2.37c2.752-2.774,3.637-6.896,2.265-10.555L33,7H22l0.749,1.997  c1.372,3.659,0.487,7.781-2.265,10.555l-2.352,2.37c-5.555,5.599-7.302,13.94-4.458,21.297L19,57h11l-5.326-13.782  C21.831,35.861,23.577,27.52,29.132,21.922z"/>
<path style="fill:#F6D397;" d="M45,5c0,1.1-0.9,2-2,2H21c-0.55,0-1.05-0.22-1.41-0.59C19.22,6.05,19,5.55,19,5c0-1.1,0.9-2,2-2h22  c0.55,0,1.05,0.22,1.41,0.59C44.78,3.95,45,4.45,45,5z"/>
<path style="fill:#F6D397;" d="M47,59c0,1.1-0.9,2-2,2H19c-0.55,0-1.05-0.22-1.41-0.59C17.22,60.05,17,59.55,17,59c0-1.1,0.9-2,2-2  h26c0.55,0,1.05,0.22,1.41,0.59C46.78,57.95,47,58.45,47,59z"/>
<path style="fill:#F9E3AE;" d="M33,3v4H21c-0.55,0-1.05-0.22-1.41-0.59C19.22,6.05,19,5.55,19,5c0-1.1,0.9-2,2-2H33z"/>
<path style="fill:#F9E3AE;" d="M30,57v4H19c-0.55,0-1.05-0.22-1.41-0.59C17.22,60.05,17,59.55,17,59c0-1.1,0.9-2,2-2H30z"/>
<g>
	<path style="fill:#8D6C9F;" d="M46.517,21.103l-2.257-2.257c-2.489-2.489-3.299-6.228-2.062-9.523L42.693,8H43c1.654,0,3-1.346,3-3   s-1.346-3-3-3H21c-1.654,0-3,1.346-3,3s1.346,3,3,3h0.307l0.506,1.349c1.231,3.281,0.431,7.01-2.038,9.499l-2.353,2.37   c-5.825,5.87-7.662,14.647-4.681,22.361l4.926,12.747C16.684,56.819,16,57.827,16,59c0,1.654,1.346,3,3,3h26c1.654,0,3-1.346,3-3   c0-1.174-0.684-2.182-1.669-2.675l4.937-12.835C54.244,35.753,52.379,26.965,46.517,21.103z M20,5c0-0.552,0.448-1,1-1h22   c0.552,0,1,0.448,1,1s-0.448,1-1,1H21C20.448,6,20,5.552,20,5z M45,60H19c-0.552,0-1-0.448-1-1s0.448-1,1-1h26c0.552,0,1,0.448,1,1   S45.552,60,45,60z M49.4,42.771l-2.039,5.301C47.249,48.029,47.128,48,47,48c-0.553,0-1,0.447-1,1v2   c0,0.141,0.031,0.275,0.083,0.397L44.313,56H19.686l-1.775-4.594C17.966,51.282,18,51.146,18,51v-2c0-0.553-0.447-1-1-1   c-0.134,0-0.26,0.028-0.377,0.076l-2.017-5.218c-2.697-6.979-1.035-14.921,4.235-20.232l2.353-2.37   c3.018-3.042,3.995-7.6,2.491-11.61L23.443,8h17.113l-0.232,0.619c-0.873,2.329-0.906,4.837-0.195,7.127L37.351,22H31   c-0.332,0-0.642,0.165-0.828,0.439c-0.186,0.274-0.224,0.624-0.101,0.932l3.716,9.289l-2.892,2.169l-3.447-1.724   c-0.494-0.245-1.094-0.048-1.342,0.447c-0.247,0.494-0.047,1.095,0.447,1.342l3.225,1.612l-0.726,2.177   c-0.175,0.524,0.108,1.091,0.632,1.265C29.789,39.983,29.896,40,30,40c0.419,0,0.809-0.265,0.948-0.684l0.901-2.704l3.657-2.743   l6.352-2.823l-3.004,6.007c-0.247,0.494-0.047,1.095,0.447,1.342c0.144,0.071,0.296,0.105,0.446,0.105   c0.367,0,0.72-0.202,0.896-0.553l4.25-8.5c0.188-0.378,0.12-0.833-0.172-1.138c-0.291-0.307-0.744-0.394-1.129-0.224l-8.051,3.578   L32.477,24H38c0.396,0,0.753-0.232,0.914-0.594l2.317-5.214c0.45,0.741,0.985,1.438,1.614,2.067l2.257,2.257   C50.406,27.82,52.094,35.771,49.4,42.771z"/>
	<path style="fill:#8D6C9F;" d="M27,48c-0.553,0-1,0.447-1,1v2c0,0.553,0.447,1,1,1s1-0.447,1-1v-2C28,48.447,27.553,48,27,48z"/>
	<path style="fill:#8D6C9F;" d="M32,48c-0.553,0-1,0.447-1,1v2c0,0.553,0.447,1,1,1s1-0.447,1-1v-2C33,48.447,32.553,48,32,48z"/>
	<path style="fill:#8D6C9F;" d="M37,48c-0.553,0-1,0.447-1,1v2c0,0.553,0.447,1,1,1s1-0.447,1-1v-2C38,48.447,37.553,48,37,48z"/>
	<path style="fill:#8D6C9F;" d="M42,48c-0.553,0-1,0.447-1,1v2c0,0.553,0.447,1,1,1s1-0.447,1-1v-2C43,48.447,42.553,48,42,48z"/>
	<path style="fill:#8D6C9F;" d="M22,48c-0.553,0-1,0.447-1,1v2c0,0.553,0.447,1,1,1s1-0.447,1-1v-2C23,48.447,22.553,48,22,48z"/>
	<path style="fill:#8D6C9F;" d="M38.422,40.155c-0.494-0.246-1.095-0.047-1.342,0.447l-0.975,1.95   c-0.247,0.494-0.047,1.095,0.447,1.342C36.696,43.966,36.849,44,36.999,44c0.367,0,0.721-0.202,0.896-0.553l0.975-1.95   C39.116,41.003,38.916,40.402,38.422,40.155z"/>
</g>
</svg>
