<?xml version="1.0" encoding="utf-8"?>
<!-- Generator: Adobe Illustrator 15.0.0, SVG Export Plug-In . SVG Version: 6.00 Build 0)  -->
<!DOCTYPE svg PUBLIC "-//W3C//DTD SVG 1.1//EN" "http://www.w3.org/Graphics/SVG/1.1/DTD/svg11.dtd">
<svg version="1.1"  xmlns="http://www.w3.org/2000/svg" xmlns:xlink="http://www.w3.org/1999/xlink" x="0px" y="0px"
	 width="48px" height="48px" viewBox="0 0 48 48" enable-background="new 0 0 48 48" xml:space="preserve">
<path fill="#FFD54F" d="M42.584,4c0,0-9.203,2.124-14.158,7.08c-0.373,0.374-0.662,0.769-0.89,1.175l8.21,8.211
	c0.406-0.228,0.802-0.516,1.175-0.89C41.877,14.62,44,5.416,44,5.416L42.584,4z"/>
<path fill="#FFECB3" d="M41.165,6.835L41.165,6.835c-2.62,0.77-7.915,2.251-11.324,5.661l1.417,1.415
	C33.167,12.003,38.73,7.825,41.165,6.835z"/>
<path fill="#9E9D24" d="M18.867,39.046c0.781-0.783,2.05-0.783,2.831,0l12.391-12.391l0.708-4.955l2.124-2.124l-8.495-8.496
	l-2.124,2.124l-4.955,0.707L8.956,26.301c0.781,0.782,0.781,2.051,0,2.833c-0.782,0.78-2.05,0.78-2.832,0L4,31.257L16.743,44
	l2.124-2.123C18.085,41.095,18.085,39.827,18.867,39.046z"/>
<path fill="#827717" d="M18.867,39.046c0.781-0.783,2.05-0.783,2.831,0L8.956,26.301c0.781,0.782,0.781,2.051,0,2.833
	c-0.782,0.78-2.05,0.78-2.832,0l12.743,12.743C18.085,41.095,18.085,39.827,18.867,39.046z"/>
<g>
	
		<rect x="16.981" y="14.178" transform="matrix(0.7071 0.7071 -0.7071 0.7071 21.4872 -5.9968)" fill="#C0CA33" width="2.003" height="17.522"/>
	
		<rect x="6.892" y="31.525" transform="matrix(0.7069 0.7074 -0.7074 0.7069 25.6759 4.0977)" fill="#C0CA33" width="2.003" height="3.004"/>
	
		<rect x="28.486" y="12.765" transform="matrix(0.7069 0.7074 -0.7074 0.7069 18.7348 -16.6756)" fill="#C0CA33" width="2.002" height="3.003"/>
</g>
<polygon fill="#AFB42B" points="26.302,13.204 21.347,13.911 34.089,26.655 34.797,21.7 "/>
<polygon fill="#DCE775" points="23.47,16.036 27.718,14.62 29.133,16.036 24.886,17.452 "/>
</svg>
