<?xml version="1.0" encoding="iso-8859-1"?>
<!-- Generator: Adobe Illustrator 22.0.1, SVG Export Plug-In . SVG Version: 6.00 Build 0)  -->
<svg version="1.1" xmlns="http://www.w3.org/2000/svg" xmlns:xlink="http://www.w3.org/1999/xlink" x="0px" y="0px"
	 viewBox="0 0 64 64" style="enable-background:new 0 0 64 64;" xml:space="preserve">
<g id="&#x421;&#x43B;&#x43E;&#x439;_2" style="display:none;">
</g>
<g id="Layer_1">
	<circle style="fill:#F283A5;" cx="32" cy="20" r="15"/>
	<path style="fill:#ED7899;" d="M37,32c-8.284,0-15-6.716-15-15c0-4.41,1.915-8.364,4.945-11.108C21.152,7.969,17,13.492,17,20
		c0,8.284,6.716,15,15,15c3.874,0,7.393-1.481,10.055-3.892C40.473,31.675,38.777,32,37,32z"/>
	<rect x="20" y="23" style="fill:#ED7899;" width="26" height="3"/>
	<circle style="fill:none;stroke:#8D6C9F;stroke-width:2;stroke-miterlimit:10;" cx="32" cy="20" r="15"/>
	<path style="fill:none;stroke:#8D6C9F;stroke-width:2;stroke-linecap:round;stroke-miterlimit:10;" d="M24.703,28.235
		c1.124,0.997,2.472,1.779,3.998,2.259c1.493,0.469,3.011,0.604,4.474,0.446"/>
	<path style="fill:none;stroke:#8D6C9F;stroke-width:2;stroke-linecap:round;stroke-miterlimit:10;" d="M21.435,23.068
		c0.278,0.954,0.684,1.866,1.204,2.709"/>
	<path style="fill:none;stroke:#8D6C9F;stroke-width:2;stroke-linecap:round;stroke-miterlimit:10;" d="M38.587,11.187
		c-1.203-0.9-2.611-1.567-4.172-1.919c-1.527-0.344-3.051-0.351-4.496-0.072"/>
	<path style="fill:none;stroke:#8D6C9F;stroke-width:2;stroke-linecap:round;stroke-miterlimit:10;" d="M42.273,16.064
		c-0.357-0.928-0.837-1.803-1.425-2.6"/>
	<path style="fill:#F283A5;" d="M48,23H16c-0.552,0-1-0.448-1-1v-4c0-0.552,0.448-1,1-1h32c0.552,0,1,0.448,1,1v4
		C49,22.552,48.552,23,48,23z"/>
	<path style="fill:#ED7899;" d="M48,23H16c-0.552,0-1-0.448-1-1v-1c0-0.552,0.448-1,1-1h32c0.552,0,1,0.448,1,1v1
		C49,22.552,48.552,23,48,23z"/>
	<path style="fill:none;stroke:#8D6C9F;stroke-width:2;stroke-miterlimit:10;" d="M48,23H16c-0.552,0-1-0.448-1-1v-4
		c0-0.552,0.448-1,1-1h32c0.552,0,1,0.448,1,1v4C49,22.552,48.552,23,48,23z"/>
	<polyline style="fill:#FFF8EE;" points="30,61 30,35 34,35 34,61 	"/>
	<polyline style="fill:none;stroke:#8D6C9F;stroke-width:2;stroke-linecap:round;stroke-miterlimit:10;" points="30,61 30,35 34,35 
		34,61 	"/>
	
		<line style="fill:none;stroke:#8D6C9F;stroke-width:2;stroke-linecap:round;stroke-miterlimit:10;" x1="50.467" y1="13.125" x2="52.321" y2="12.375"/>
	
		<line style="fill:none;stroke:#8D6C9F;stroke-width:2;stroke-linecap:round;stroke-miterlimit:10;" x1="47.766" y1="8.354" x2="49.362" y2="7.15"/>
	
		<line style="fill:none;stroke:#8D6C9F;stroke-width:2;stroke-linecap:round;stroke-miterlimit:10;" x1="43.922" y1="4.446" x2="45.152" y2="2.869"/>
</g>
<g id="&#x421;&#x43B;&#x43E;&#x439;_3" style="display:none;">
</g>
</svg>
