<?xml version="1.0"?>
<svg xmlns="http://www.w3.org/2000/svg" id="Layer_1" data-name="Layer 1" viewBox="0 0 64 64"><title>Icons8 RSL Colored Part 8</title><path d="M61,33c0,13.81-6,30-29,30S3,46.81,3,33,16,11,32,11,61,19.19,61,33Z" style="fill:#ed7899;"/><path d="M23.55,58.72h0a3.08,3.08,0,0,1-4.22,2.17A25.09,25.09,0,0,1,6,48.29,37.87,37.87,0,0,1,3.1,35.71,3.49,3.49,0,0,1,6.59,32h0a2.48,2.48,0,0,1,2.47,2.36c.44,8.17,3.32,16.9,12.64,20.7A3.14,3.14,0,0,1,23.55,58.72Z" style="fill:#e0678f;"/><path d="M61,33a40.69,40.69,0,0,1-1.38,10.79,2.49,2.49,0,0,1-3.55,1.57h0a2.47,2.47,0,0,1-1.23-2.85A36.25,36.25,0,0,0,56,33a14.79,14.79,0,0,0-5-11,2.47,2.47,0,0,1-.08-3.58l0,0a2.46,2.46,0,0,1,3.35-.14A19.12,19.12,0,0,1,61,33Z" style="fill:#f283a5;"/><path d="M48.2,12.57s-3.69-4.2-8-4a7.89,7.89,0,0,0-3.31.94,7.87,7.87,0,0,1-7.14.2,7.49,7.49,0,0,0-2-.68c-4.28-.76-8.48,2.75-8.48,2.75s1.74,4.73,6,5.49l.38,0C24.4,19.81,25.44,23,25.44,23s3.64-.52,5.3-3c.5,4.1,4.84,7,4.84,7a13.24,13.24,0,0,0,3-5.55,3.86,3.86,0,0,0,.7.31c2.64.82,5.71-1.5,5.71-1.5a9,9,0,0,0-2.54-3.77A28.79,28.79,0,0,0,48.2,12.57Z" style="fill:#72caaf;"/><path d="M48.72,13.45l.15-.13A1,1,0,0,0,49,11.9c-.16-.18-4-4.57-8.82-4.36a9,9,0,0,0-3.73,1A7.58,7.58,0,0,1,34,9.37a13.8,13.8,0,0,1,3.48-7.81A1,1,0,0,0,36.07.19a15.82,15.82,0,0,0-4,9.17,6.27,6.27,0,0,1-1.85-.58A8.9,8.9,0,0,0,27.87,8c-4.69-.83-9.11,2.81-9.29,3a1,1,0,0,0-.3,1.11.54.54,0,0,1,0,.11C8.29,15.75,2,23.33,2,33c0,9.32,2.92,31,30,31S62,42.32,62,33C62,24.35,57,17.36,48.72,13.45ZM27.52,10a6.25,6.25,0,0,1,.72.17,7.07,7.07,0,0,1,1,.42,8.19,8.19,0,0,0,2.63.78,14,14,0,0,0,.1,1.79A1,1,0,0,0,33,14h.14A1,1,0,0,0,34,12.86a12.43,12.43,0,0,1-.07-1.48,9.45,9.45,0,0,0,3.4-1l.11,0a6.75,6.75,0,0,1,2.78-.78c2.75-.11,5.3,1.85,6.51,3l-.07,0c-.5.4-1.18.92-1.94,1.44A20.6,20.6,0,0,1,42,15.57a1,1,0,0,0-.57.8,1,1,0,0,0,.38.9,7.18,7.18,0,0,1,1.9,2.6,7.31,7.31,0,0,1-3,1.05h0a3.17,3.17,0,0,1-1.16-.12c-1.75-.55-2.9-3-3.2-3.84a1,1,0,0,0-1.9.63,9.89,9.89,0,0,0,3,4.31,12.53,12.53,0,0,1-2,3.73c-1.16-1-3.36-3.06-3.68-5.7a1,1,0,0,0-.76-.85l-.24,0a1,1,0,0,0-.82.44,6.71,6.71,0,0,1-3.73,2.34,7.8,7.8,0,0,1,.11-3.56l.34,0a10.27,10.27,0,0,0,1.15-.06,1,1,0,1,0-.23-2,8.56,8.56,0,0,1-1.84,0,1,1,0,0,0-.22,0h-.09a6.68,6.68,0,0,1-4.14-2.87,10.55,10.55,0,0,1-.81-1.32,15.5,15.5,0,0,1,1.61-1A8.87,8.87,0,0,1,27.52,10ZM32,62C21.54,62,4,58.23,4,33c0-8.83,5.87-15.76,15.25-19a9.23,9.23,0,0,0,5,4,10.62,10.62,0,0,0,.2,5.29,1,1,0,0,0,1.1.69,10.72,10.72,0,0,0,4.63-2A13.76,13.76,0,0,0,35,27.84a1,1,0,0,0,.55.16,1,1,0,0,0,.73-.32,14.8,14.8,0,0,0,2.9-4.9l.25,0,.28.05a5.3,5.3,0,0,0,.63,0h.47A9.94,9.94,0,0,0,45.54,21a1,1,0,0,0,.34-1.11,10.77,10.77,0,0,0-1.8-3.2A28,28,0,0,0,47,14.85C55,18.37,60,24.88,60,33,60,58.23,42.46,62,32,62Z" style="fill:#8d6c9f;"/><path d="M19.47,51a1,1,0,0,0-1.37.36l-1,1.73a1,1,0,0,0,1.73,1l1-1.73A1,1,0,0,0,19.47,51Z" style="fill:#8d6c9f;"/><path d="M15,48.58,13.54,50A1,1,0,1,0,15,51.41L16.37,50A1,1,0,0,0,15,48.58Z" style="fill:#8d6c9f;"/><path d="M14,45.47a1,1,0,0,0-1.37-.37l-1.73,1a1,1,0,0,0,1,1.73l1.73-1A1,1,0,0,0,14,45.47Z" style="fill:#8d6c9f;"/><path d="M12.5,41.85a1,1,0,0,0-1.22-.71l-1.93.51a1,1,0,1,0,.51,1.93l1.93-.51A1,1,0,0,0,12.5,41.85Z" style="fill:#8d6c9f;"/><path d="M11,39h0a1,1,0,0,0,0-2H9a1,1,0,0,0,0,2Z" style="fill:#8d6c9f;"/><path d="M56.67,30.65a1,1,0,1,0-2,.42,16.21,16.21,0,0,1-.43,8.54,1,1,0,1,0,1.9.63A18.18,18.18,0,0,0,56.67,30.65Z" style="fill:#8d6c9f;"/><path d="M55,25.89a24.3,24.3,0,0,0-1.2-2.21,1,1,0,1,0-1.71,1,22.43,22.43,0,0,1,1.1,2A1,1,0,0,0,55,25.89Z" style="fill:#8d6c9f;"/></svg>
