<?xml version="1.0" encoding="iso-8859-1"?>
<!-- Generator: Adobe Illustrator 22.0.1, SVG Export Plug-In . SVG Version: 6.00 Build 0)  -->
<svg xmlns="http://www.w3.org/2000/svg" xmlns:xlink="http://www.w3.org/1999/xlink" version="1.1" id="Layer_1" x="0px" y="0px" viewBox="0 0 64 64" style="enable-background:new 0 0 64 64;" xml:space="preserve">
<g>
	<path style="fill:#97E0BB;" d="M37.768,11.456C36.198,9.851,33.984,9.37,32,9.37c-2.041,0-4.325,0.509-5.901,2.227l-0.14-0.347   c-1.278-1.15-3.066-1.879-4.699-1.879c-2.966,0-5.37,1.074-6.444,5.37c-0.582,2.33-7.519,37.593-7.519,37.593h49.318   c0,0-6.847-35.263-7.429-37.593c-1.074-4.296-3.478-5.37-6.444-5.37c-1.609,0-3.369,0.708-4.643,1.829L37.768,11.456z"/>
	<path style="fill:#72CAAF;" d="M24.316,12.669c-2.388,0.302-4.285,1.615-5.204,5.294c-0.582,2.33-7.519,37.593-7.519,37.593h5.721   L24.316,12.669z"/>
	<path style="fill:#72CAAF;" d="M39.519,12.669c2.388,0.302,4.285,1.615,5.204,5.294c0.582,2.33,7.519,37.593,7.519,37.593H46.52   L39.519,12.669z"/>
	<path style="fill:#72CAAF;" d="M41,53c0,0-4.446-31.637-4.773-33.602C35.623,15.775,33.667,14.87,32,14.87   c-1.667,0-3.623,0.906-4.226,4.528C27.446,21.363,23,53,23,53"/>
	<path style="fill:#C2CDE7;" d="M61,53.333H3v0.296c0,2.209,1.791,4,4,4h50c2.209,0,4-1.791,4-4V53.333z"/>
</g>
<g>
	<path style="fill:#8D6C9F;" d="M57.568,52c-0.512-2.635-6.842-35.219-7.413-37.502C49.063,10.125,46.722,8,43,8   c-2.96,0-4.029,1.01-5.063,1.988c-0.029,0.027-0.061,0.056-0.09,0.083C36.138,8.601,33.957,8,32,8c-1.955,0-4.133,0.6-5.841,2.067   c-0.001-0.001-0.001-0.001-0.002-0.002C25.094,9.05,23.995,8,21,8c-3.722,0-6.063,2.125-7.155,6.498   C13.274,16.781,6.857,49.385,6.343,52H2v1c0,2.757,2.243,5,5,5h50c2.757,0,5-2.243,5-5v-1H57.568z M15.785,14.983   C16.882,10.592,19.037,10,21,10c2.193,0,2.823,0.601,3.775,1.511c0.014,0.013,0.029,0.027,0.043,0.041   c-0.564,0.817-1.018,1.79-1.307,2.946c-0.586,2.346-3.825,22.887-3.963,23.76c-0.086,0.546,0.287,1.058,0.832,1.144   c0.053,0.008,0.105,0.012,0.157,0.012c0.484,0,0.909-0.352,0.987-0.844c0.034-0.213,3.362-21.326,3.928-23.586   C26.608,10.359,30.756,10,32,10s5.392,0.359,6.548,4.983c0.146,0.581,0.586,2.91,1.861,10.704c0.089,0.545,0.606,0.909,1.148,0.826   c0.545-0.089,0.915-0.603,0.826-1.148c-1.046-6.401-1.666-9.956-1.894-10.867c-0.289-1.154-0.741-2.126-1.304-2.941   c0.041-0.038,0.085-0.078,0.125-0.115C40.229,10.573,40.835,10,43,10c1.963,0,4.118,0.592,5.215,4.983   c0.531,2.126,6.469,32.658,7.316,37.017H8.381C9.241,47.633,15.253,17.11,15.785,14.983z M57,56H7c-1.304,0-2.416-0.836-2.829-2   h55.657C59.416,55.164,58.304,56,57,56z"/>
	<path style="fill:#8D6C9F;" d="M19.992,41.68c-0.547-0.089-1.06,0.278-1.151,0.822l-0.716,4.296   c-0.091,0.545,0.277,1.06,0.822,1.151c0.056,0.009,0.111,0.014,0.166,0.014c0.48,0,0.904-0.347,0.985-0.835l0.716-4.296   C20.904,42.286,20.536,41.771,19.992,41.68z"/>
	<path style="fill:#8D6C9F;" d="M41.934,28.832c-0.545,0.088-0.916,0.601-0.828,1.146l0.504,3.141   c0.079,0.492,0.503,0.842,0.986,0.842c0.052,0,0.105-0.004,0.159-0.013c0.545-0.087,0.917-0.6,0.83-1.145L43.08,29.66   C42.992,29.115,42.477,28.742,41.934,28.832z"/>
	<path style="fill:#8D6C9F;" d="M43,6c0.552,0,1-0.448,1-1V3c0-0.552-0.448-1-1-1s-1,0.448-1,1v2C42,5.552,42.448,6,43,6z"/>
	<path style="fill:#8D6C9F;" d="M48,7.34c0.157,0.091,0.33,0.134,0.499,0.134c0.346,0,0.682-0.179,0.867-0.5l1-1.732   c0.276-0.478,0.112-1.09-0.366-1.366c-0.479-0.276-1.09-0.112-1.366,0.366l-1,1.732C47.358,6.452,47.521,7.063,48,7.34z"/>
	<path style="fill:#8D6C9F;" d="M52.527,11.5c0.169,0,0.342-0.043,0.499-0.134l1.732-1C55.237,10.09,55.4,9.478,55.125,9   c-0.277-0.479-0.889-0.643-1.366-0.366l-1.732,1C51.548,9.91,51.384,10.522,51.66,11C51.846,11.321,52.182,11.5,52.527,11.5z"/>
	<path style="fill:#8D6C9F;" d="M53,16c0,0.552,0.448,1,1,1h2c0.552,0,1-0.448,1-1s-0.448-1-1-1h-2C53.448,15,53,15.448,53,16z"/>
</g>
</svg>
