<?xml version="1.0" encoding="iso-8859-1"?>
<!-- Generator: Adobe Illustrator 22.1.0, SVG Export Plug-In . SVG Version: 6.00 Build 0)  -->
<svg xmlns="http://www.w3.org/2000/svg" xmlns:xlink="http://www.w3.org/1999/xlink" version="1.1" id="Layer_1" x="0px" y="0px" viewBox="0 0 64 64" style="enable-background:new 0 0 64 64;" xml:space="preserve">
<path style="fill:#ACB7D0;" d="M21,1h22c3.314,0,6,2.686,6,6v50c0,3.314-2.686,6-6,6H21c-3.314,0-6-2.686-6-6V7  C15,3.686,17.686,1,21,1z"/>
<path style="fill:#C5E4FA;" d="M15,9c0-5,1.333-8,6-8l3,8h16l3-8c4.667,0,6,2,6,8v48c0,3.314-2.686,6-6,6H21c-3.314,0-6-2.686-6-6V9  z"/>
<path style="fill:#E3F2FF;" d="M21,63l28.38-28.37L49,20L15,54v3.25c0,3.176,2.574,5.75,5.75,5.75H21z"/>
<polygon style="fill:#E3F2FF;" points="15,50 49,16 49,10 15,44 "/>
<polygon style="fill:#E3F2FF;" points="15,40 49,6 47,3 15,35 "/>
<path style="fill:#FFF8F8;" d="M35.63,32.81c0.392-0.268,0.494-0.803,0.226-1.195c-0.02-0.03-0.042-0.058-0.066-0.085  c-1.886-2.151-5.159-2.366-7.31-0.48c-2.151,1.886-2.366,5.159-0.48,7.31c1.886,2.151,5.159,2.366,7.31,0.48  c0.17-0.149,0.331-0.31,0.48-0.48c0.314-0.356,0.281-0.899-0.075-1.214c-0.027-0.024-0.055-0.046-0.085-0.066  c-1.176-0.804-1.478-2.409-0.674-3.586c0.181-0.265,0.41-0.493,0.674-0.674V32.81z"/>
<path style="fill:#8D6C9F;" d="M43,0H21c-3.866,0-7,3.134-7,7v50c0,3.866,3.134,7,7,7h22c3.866,0,7-3.134,7-7V7  C50,3.134,46.866,0,43,0z M48,57c0,2.761-2.239,5-5,5H21c-2.761,0-5-2.239-5-5V7c0-2.761,2.239-5,5-5h22c2.761,0,5,2.239,5,5V57z"/>
<path style="fill:#8D6C9F;" d="M19,55c-0.552,0-1,0.448-1,1v2c0,0.552,0.448,1,1,1s1-0.448,1-1v-2C20,55.448,19.552,55,19,55z"/>
<path style="fill:#8D6C9F;" d="M24,55c-0.552,0-1,0.448-1,1v2c0,0.552,0.448,1,1,1s1-0.448,1-1v-2C25,55.448,24.552,55,24,55z"/>
<path style="fill:#8D6C9F;" d="M29,55c-0.552,0-1,0.448-1,1v2c0,0.552,0.448,1,1,1s1-0.448,1-1v-2C30,55.448,29.552,55,29,55z"/>
<path style="fill:#8D6C9F;" d="M45,55c-0.552,0-1,0.448-1,1v2c0,0.552,0.448,1,1,1s1-0.448,1-1v-2C46,55.448,45.552,55,45,55z"/>
<path style="fill:#8D6C9F;" d="M35,55c-0.552,0-1,0.448-1,1v2c0,0.552,0.448,1,1,1s1-0.448,1-1v-2C36,55.448,35.552,55,35,55z"/>
<path style="fill:#8D6C9F;" d="M40,55c-0.552,0-1,0.448-1,1v2c0,0.552,0.448,1,1,1s1-0.448,1-1v-2C41,55.448,40.552,55,40,55z"/>
<path style="fill:#8D6C9F;" d="M33,6h4c0.552,0,1-0.448,1-1s-0.448-1-1-1h-4c-0.552,0-1,0.448-1,1S32.448,6,33,6z"/>
<path style="fill:#8D6C9F;" d="M27,6h2c0.552,0,1-0.448,1-1s-0.448-1-1-1h-2c-0.552,0-1,0.448-1,1S26.448,6,27,6z"/>
<path style="fill:#8D6C9F;" d="M36.3,32.47c0.466-0.297,0.603-0.915,0.306-1.381c-0.034-0.053-0.073-0.103-0.116-0.149  c-2.184-2.492-5.975-2.741-8.467-0.557s-2.741,5.975-0.557,8.467s5.975,2.741,8.467,0.557c0.198-0.173,0.384-0.359,0.557-0.557  c0.364-0.415,0.323-1.047-0.092-1.411c-0.028-0.025-0.057-0.048-0.088-0.069c-1.364-0.94-1.708-2.809-0.767-4.173  c0.207-0.3,0.467-0.56,0.767-0.767L36.3,32.47z M34.24,38.24c-0.657,0.458-1.439,0.703-2.24,0.7c-2.209,0-4-1.791-4-4  c0-2.209,1.791-4,4-4c0.801-0.003,1.583,0.242,2.24,0.7c-1.652,1.886-1.652,4.704,0,6.59V38.24z"/>
<path style="fill:#8D6C9F;" d="M33,27.94c0.266,0.002,0.521-0.103,0.71-0.29l1-1c0.359-0.419,0.31-1.051-0.109-1.41  c-0.374-0.321-0.927-0.321-1.301,0l-1,1c-0.387,0.394-0.38,1.027,0.014,1.414C32.497,27.834,32.743,27.937,33,27.94z"/>
<polygon style="fill:#FFF8F8;" points="22.5,13 23.74,15.26 26,16.5 23.74,17.74 22.5,20 21.26,17.74 19,16.5 21.26,15.26 "/>
<polygon style="fill:#FFF8F8;" points="43.42,19.16 44.27,20.73 45.84,21.58 44.27,22.44 43.42,24 42.56,22.44 41,21.58   42.56,20.73 "/>
<polygon style="fill:#FFF8F8;" points="36.65,43.64 37.23,44.71 38.3,45.29 37.23,45.88 36.65,46.94 36.06,45.88 35,45.29   36.06,44.71 "/>
<path style="fill:none;stroke:#8D6C9F;stroke-width:2;stroke-miterlimit:10;" d="M21,1l2.027,5.404C23.612,7.966,25.105,9,26.772,9  h10.456c1.667,0,3.16-1.034,3.745-2.596L43,1"/>
</svg>
