<?xml version="1.0" encoding="iso-8859-1"?>
<!-- Generator: Adobe Illustrator 22.0.1, SVG Export Plug-In . SVG Version: 6.00 Build 0)  -->
<svg xmlns="http://www.w3.org/2000/svg" xmlns:xlink="http://www.w3.org/1999/xlink" version="1.1" id="Layer_1" x="0px" y="0px" viewBox="0 0 64 64" style="enable-background:new 0 0 64 64;" xml:space="preserve">
<g>
	<circle style="fill:#F283A5;" cx="31" cy="12.667" r="9.6"/>
	<path style="fill:#F7A1C8;" d="M40.6,12.667c0-5.302-4.298-9.6-9.6-9.6c-0.677,0-1.336,0.072-1.973,0.205   c-0.121,2.203,1.217,4.302,3.412,5.023c1.891,0.621,3.16,2.378,3.16,4.372c0,2.309,1.573,4.233,3.701,4.808   C40.122,16.06,40.6,14.421,40.6,12.667z"/>
	<circle style="fill:#72CAAF;" cx="37.4" cy="23.333" r="9.6"/>
	<path style="fill:#97E0BB;" d="M47,23.192c0-5.302-4.298-9.6-9.6-9.6c-0.677,0-1.336,0.072-1.973,0.205   c-0.121,2.203,1.217,4.302,3.412,5.023C40.73,19.442,42,21.198,42,23.192c0,2.309,1.573,4.233,3.701,4.808   C46.522,26.585,47,24.946,47,23.192z"/>
	<circle style="fill:#F9DD8F;" cx="24.6" cy="23.333" r="9.6"/>
	<path style="fill:#FFEB9B;" d="M34,23.192c0-5.302-4.298-9.6-9.6-9.6c-0.677,0-1.336,0.072-1.973,0.205   c-0.121,2.203,1.217,4.302,3.412,5.023C27.73,19.442,29,21.198,29,23.192c0,2.309,1.573,4.233,3.701,4.808   C33.522,26.585,34,24.946,34,23.192z"/>
	<polygon style="fill:#EFD8BE;" points="46,31 16,31 31,63  "/>
</g>
<g>
	<path style="fill:#8D6C9F;" d="M46,30h-0.376C47.144,28.127,48,25.786,48,23.333c0-4.379-2.669-8.145-6.465-9.76   c0.025-0.303,0.065-0.605,0.065-0.907c0-5.845-4.755-10.6-10.6-10.6s-10.6,4.755-10.6,10.6c0,0.306,0.016,0.613,0.043,0.918   C16.659,15.204,14,18.964,14,23.333c0,2.438,0.86,4.791,2.378,6.667H16c-0.342,0-0.66,0.175-0.844,0.463   c-0.184,0.289-0.207,0.651-0.062,0.961l15,32C30.259,63.776,30.612,64,31,64s0.741-0.224,0.905-0.576l15-32   c0.146-0.31,0.122-0.672-0.062-0.961C46.66,30.175,46.342,30,46,30z M39.019,43.536l-1.555-1.547l4.279-4.264L39.019,43.536z    M32.707,33.293c-0.391-0.391-1.023-0.391-1.414,0l-1.282,1.282L27.423,32h17.004l-0.2,0.427l-8.181,8.152l-4.617-4.593   l1.278-1.278C33.098,34.316,33.098,33.684,32.707,33.293z M46,23.333c0,2.518-1.099,4.901-3.013,6.538   c-0.043,0.037-0.066,0.087-0.101,0.129H32.822c1.519-1.875,2.378-4.22,2.378-6.667c0-2.712-1.033-5.181-2.714-7.058   c1.435-0.999,3.153-1.542,4.914-1.542C42.143,14.733,46,18.591,46,23.333z M22.4,12.667c0-4.742,3.857-8.6,8.6-8.6   s8.6,3.858,8.6,8.6c0,0.098-0.018,0.196-0.021,0.294c-0.703-0.148-1.432-0.227-2.178-0.227c-2.317,0-4.569,0.772-6.405,2.167   c-1.78-1.353-3.992-2.167-6.395-2.167c-0.746,0-1.474,0.08-2.177,0.227C22.419,12.862,22.4,12.765,22.4,12.667z M18.792,29.675   C17.018,28.05,16,25.738,16,23.333c0-4.742,3.857-8.6,8.6-8.6s8.601,3.858,8.601,8.6c0,2.47-1.064,4.824-2.921,6.458   c-0.068,0.06-0.11,0.136-0.158,0.208H19.027C18.973,29.88,18.895,29.77,18.792,29.675z M24.587,32l4.01,3.989l-3.304,3.304   c-0.391,0.391-0.391,1.023,0,1.414C25.488,40.902,25.744,41,26,41s0.512-0.098,0.707-0.293l3.308-3.308l4.614,4.591l-4.621,4.604   l-3.301-3.301c-0.391-0.391-1.023-0.391-1.414,0s-0.391,1.023,0,1.414l3.299,3.299l-2.396,2.388L17.573,32H24.587z M31,60.644   l-3.903-8.326l2.909-2.898l1.287,1.287C31.488,50.902,31.744,51,32,51s0.512-0.098,0.707-0.293c0.391-0.391,0.391-1.023,0-1.414   l-1.284-1.284l4.625-4.608l2.07,2.059L31,60.644z"/>
	<path style="fill:#986CA1;" d="M11.199,25.838l-1.934,0.513c-0.534,0.142-0.853,0.689-0.711,1.223   c0.119,0.448,0.523,0.744,0.966,0.744c0.085,0,0.172-0.011,0.257-0.034l1.934-0.513c0.534-0.142,0.853-0.689,0.711-1.223   C12.279,26.014,11.726,25.698,11.199,25.838z"/>
	<path style="fill:#986CA1;" d="M10.977,22.991c0.033,0.003,0.066,0.005,0.099,0.005c0.509,0,0.943-0.386,0.994-0.902   c0.054-0.55-0.348-1.039-0.897-1.093l-1.99-0.195c-0.557-0.054-1.039,0.348-1.093,0.897c-0.054,0.55,0.348,1.039,0.897,1.093   L10.977,22.991z"/>
	<path style="fill:#986CA1;" d="M12.835,16.461l-1.795-0.883c-0.493-0.243-1.096-0.04-1.339,0.456s-0.039,1.095,0.456,1.339   l1.795,0.883c0.142,0.07,0.292,0.103,0.44,0.103c0.369,0,0.725-0.205,0.898-0.559C13.534,17.304,13.33,16.705,12.835,16.461z"/>
	<path style="fill:#986CA1;" d="M14.528,14.158c0.196,0.208,0.461,0.312,0.726,0.312c0.247,0,0.495-0.091,0.688-0.274   c0.4-0.38,0.417-1.013,0.037-1.414l-1.376-1.451c-0.379-0.401-1.014-0.417-1.414-0.038s-0.417,1.013-0.037,1.414L14.528,14.158z"/>
</g>
</svg>
