<?xml version="1.0" encoding="iso-8859-1"?>
<!-- Generator: Adobe Illustrator 22.0.1, SVG Export Plug-In . SVG Version: 6.00 Build 0)  -->
<svg xmlns="http://www.w3.org/2000/svg" xmlns:xlink="http://www.w3.org/1999/xlink" version="1.1" id="Layer_1" x="0px" y="0px" viewBox="0 0 64 64" style="enable-background:new 0 0 64 64;" xml:space="preserve">
<path style="fill:#C4939C;" d="M47.156,25.978c-0.099-1.25,0.365-2.475,1.269-3.345c1.351-1.3,3.377-3.258,4.768-4.649  c1.366-1.366,3.499-4.064,4.973-5.986L51.91,6.001c-1.894,1.53-4.608,3.766-5.814,4.972c-1.234,1.234-3.362,3.36-4.757,4.754  c-0.871,0.871-2.079,1.31-3.306,1.207L31,16.03c-2.506-0.211-4.978,0.693-6.756,2.472L1.986,40.767  c-1.161,1.173-1.156,3.064,0.012,4.231l16.829,16.829c1.165,1.165,3.052,1.172,4.226,0.016l22.471-22.13  C47.292,37.946,48.197,35.492,48,33L47.156,25.978z"/>
<path style="fill:#CDA1A7;" d="M49.826,7.285c-1.762,1.438-3.836,3.175-4.849,4.189c-1.234,1.234-3.362,3.36-4.757,4.754  c-0.871,0.87-2.079,1.31-3.306,1.207l-7.032-0.904c-2.506-0.211-4.978,0.693-6.756,2.472L1.946,40.187  c-1.161,1.173-1.156,3.064,0.012,4.231l13.417,13.417c0.533-0.117,1.043-0.374,1.46-0.785l21.392-21.05  c5.157-5.157,1.209-10.944,5.123-14.858c1.326-1.326,3.377-3.258,4.768-4.649c1.366-1.366,3.499-4.064,4.973-5.986L49.826,7.285z"/>
<polygon style="fill:#7E8089;" points="27.781,57.323 6.603,36.145 22.732,20.017 35.201,32.487 39.295,36.58 43.909,41.194 "/>
<polygon style="fill:#8B8E98;" points="22.269,51.249 6.416,35.395 22.732,20.017 38.585,35.871 "/>
<path style="fill:#C4939C;" d="M18.348,61.721L2.307,45.679c-0.647-0.647-0.647-1.696,0-2.343l0,0c1.562-1.562,4.095-1.562,5.657,0  l12.728,12.728c1.562,1.562,1.562,4.095,0,5.657l0,0C20.044,62.368,18.995,62.368,18.348,61.721z"/>
<path style="fill:#8D6C9F;" d="M13.707,48.879l-1.414,1.414c-0.391,0.391-0.391,1.023,0,1.414C12.488,51.902,12.744,52,13,52  s0.512-0.098,0.707-0.293l1.414-1.414c0.391-0.391,0.391-1.023,0-1.414S14.098,48.488,13.707,48.879z"/>
<path style="fill:#8D6C9F;" d="M6.636,41.808l-1.415,1.415c-0.391,0.391-0.391,1.023,0,1.414c0.195,0.195,0.451,0.293,0.707,0.293  s0.512-0.098,0.707-0.293l1.415-1.415c0.391-0.391,0.391-1.023,0-1.414S7.027,41.417,6.636,41.808z"/>
<path style="fill:#8D6C9F;" d="M10.172,45.343l-1.415,1.414c-0.391,0.39-0.391,1.023,0,1.414c0.195,0.195,0.451,0.293,0.707,0.293  s0.512-0.098,0.707-0.293l1.415-1.414c0.391-0.39,0.391-1.023,0-1.414S10.563,44.953,10.172,45.343z"/>
<path style="fill:#8D6C9F;" d="M15.829,53.829c-0.391,0.391-0.391,1.023,0,1.414c0.195,0.195,0.451,0.293,0.707,0.293  s0.512-0.098,0.707-0.293l1.414-1.414c0.391-0.391,0.391-1.023,0-1.414s-1.023-0.391-1.414,0L15.829,53.829z"/>
<path style="fill:#8D6C9F;" d="M20.071,59.071c0.256,0,0.512-0.098,0.707-0.293l1.414-1.415c0.391-0.391,0.391-1.024,0-1.414  c-0.391-0.391-1.024-0.391-1.414,0l-1.414,1.415c-0.391,0.391-0.391,1.024,0,1.414C19.56,58.974,19.815,59.071,20.071,59.071z"/>
<path style="fill:#7E8089;" d="M62.422,7l-5.15-5.422c-0.771-0.771-2.021-0.771-2.792,0l-2.785,2.785  c-0.386,0.386-0.391,1.01-0.012,1.402l0.243,0.251L51.91,6.001c-1.894,1.53-4.608,3.767-5.814,4.972  c-1.234,1.234-3.362,3.36-4.757,4.754l7.086,6.906c1.352-1.3,3.377-3.258,4.768-4.65c1.306-1.306,3.308-3.824,4.77-5.723l0.271,0.28  c0.388,0.402,1.031,0.407,1.426,0.012l2.761-2.761C63.193,9.021,63.193,7.771,62.422,7z"/>
<path style="fill:#8B8E98;" d="M59.542,4.12l-2.729-2.873c-0.748-0.405-1.699-0.3-2.332,0.332l-2.785,2.785  c-0.386,0.386-0.391,1.01-0.012,1.402l0.243,0.251L51.91,6.001c-1.894,1.53-4.608,3.767-5.814,4.972  c-1.223,1.223-3.324,3.322-4.72,4.717l4.169,4.063c1.352-1.3,3.377-3.258,4.768-4.65c1.306-1.306,3.308-3.824,4.77-5.723l0.271,0.28  c0.388,0.402,1.031,0.407,1.426,0.012l2.761-2.761C60.312,6.14,60.312,4.891,59.542,4.12z"/>
<line style="fill:none;stroke:#8D6C9F;stroke-width:2;stroke-linecap:round;stroke-miterlimit:10;" x1="29" y1="26" x2="44" y2="41"/>
<line style="fill:none;stroke:#8D6C9F;stroke-width:2;stroke-linecap:round;stroke-miterlimit:10;" x1="23" y1="20" x2="25.5" y2="22.5"/>
<polyline style="fill:none;stroke:#8D6C9F;stroke-width:2;stroke-linecap:round;stroke-miterlimit:10;" points="7,36 9.5,38.5   13,42 28,57 "/>
<ellipse transform="matrix(0.7071 -0.7071 0.7071 0.7071 -21.2548 28.6863)" style="fill:#F9EFDE;" cx="24" cy="40" rx="5.565" ry="4.362"/>
<ellipse transform="matrix(0.7071 -0.7071 0.7071 0.7071 -21.2548 28.6863)" style="fill:none;stroke:#8D6C9F;stroke-width:2;stroke-linecap:round;stroke-linejoin:round;stroke-miterlimit:10;" cx="24" cy="40" rx="5.565" ry="4.362"/>
<path style="fill:none;stroke:#8D6C9F;stroke-width:2;stroke-linecap:round;stroke-linejoin:round;stroke-miterlimit:10;" d="  M62.422,7l-5.15-5.422c-0.771-0.771-2.021-0.771-2.792,0l-2.785,2.785c-0.386,0.386-0.391,1.01-0.012,1.402l0.422,0.436  c-1.169,0.831-4.427,3.19-6.009,4.772c-1.234,1.234-3.362,3.36-4.757,4.754c-0.871,0.87-2.079,1.31-3.306,1.207L31,16.03  c-2.506-0.211-4.978,0.693-6.756,2.472L1.986,40.767c-1.161,1.173-1.156,3.064,0.012,4.231l16.82,16.82  c1.169,1.169,3.063,1.172,4.236,0.007l22.471-22.111C47.292,37.946,48.197,35.492,48,33l-0.844-7.022  c-0.099-1.25,0.365-2.475,1.269-3.345c1.352-1.3,3.377-3.258,4.768-4.65c1.971-1.971,4.158-5.053,4.686-5.81l0.355,0.367  c0.388,0.402,1.031,0.407,1.426,0.012l2.761-2.761C63.193,9.021,63.193,7.771,62.422,7z"/>
<path style="fill:none;stroke:#8D6C9F;stroke-width:2;stroke-linecap:round;stroke-linejoin:round;stroke-miterlimit:10;" d="  M47.657,21.765l-5.15-5.422"/>
<line style="fill:none;stroke:#8D6C9F;stroke-width:2;stroke-linecap:round;stroke-linejoin:round;stroke-miterlimit:10;" x1="52" y1="6" x2="55" y2="9"/>
<path style="fill:none;stroke:#F9EFDE;stroke-width:2;stroke-linecap:round;stroke-miterlimit:10;" d="M22.006,29.994  c3.151,0.011,6.369,0.789,8.888,3.308l-0.149-0.13c2.519,2.519,3.251,5.671,3.261,8.822"/>
</svg>
