<?xml version="1.0" encoding="iso-8859-1"?>
<!-- Generator: Adobe Illustrator 22.0.1, SVG Export Plug-In . SVG Version: 6.00 Build 0)  -->
<svg xmlns="http://www.w3.org/2000/svg" xmlns:xlink="http://www.w3.org/1999/xlink" version="1.1" id="Layer_1" x="0px" y="0px" viewBox="0 0 64 64" style="enable-background:new 0 0 64 64;" xml:space="preserve">
<circle style="fill:#ED7899;" cx="32" cy="32" r="28"/>
<circle style="fill:#8B8E98;" cx="35" cy="27" r="3"/>
<circle style="fill:#8B8E98;" cx="43" cy="19" r="3"/>
<circle style="fill:#8B8E98;" cx="30.5" cy="15.5" r="4.5"/>
<path style="fill:#E0678F;" d="M34.659,59.096c-0.502,0.502-1.174,0.82-1.923,0.877c-0.049,0.007-0.092,0.007-0.141,0.014  c-0.127,0-0.262,0.007-0.396,0c-0.226,0.014-0.453,0.014-0.686,0.007c-0.226,0-0.453,0-0.672-0.021  c-0.255,0-0.495-0.014-0.728-0.035c-0.396-0.014-0.792-0.042-1.188-0.085c-0.467-0.042-0.94-0.106-1.4-0.17  c-0.035-0.007-0.071-0.014-0.113-0.014c-11.526-1.81-20.725-10.67-23.059-22.026c-0.064-0.304-0.113-0.608-0.17-0.919  c-0.042-0.24-0.078-0.474-0.113-0.707c-0.064-0.445-0.113-0.891-0.149-1.322c-0.085-0.806-0.127-1.626-0.134-2.454  c0-0.028,0-0.071,0.007-0.092c0.028-1.64,1.351-2.977,3.005-2.977c0.834,0,1.577,0.332,2.114,0.87  c0.544,0.544,0.877,1.301,0.884,2.143c0.035,5.028,1.796,10.465,5.968,15.825c5.65,4.405,11.391,6.131,16.652,5.975  c1.704-0.05,3.118,1.28,3.118,2.991C35.536,57.809,35.203,58.552,34.659,59.096z"/>
<path style="fill:#F98CB3;" d="M48.371,50.468l0.01,0.019c0.946,1.797,3.397,2.185,4.795,0.711  c8.027-8.461,10.196-21.409,4.464-32.304c-0.946-1.797-2.059-3.449-3.311-4.947c-1.512-1.808-4.444-1.18-5.143,1.071l-0.003,0.008  c-0.298,0.961-0.1,2.01,0.546,2.782c0.983,1.174,1.86,2.468,2.602,3.879c4.488,8.531,2.8,18.654-3.455,25.302  C47.987,47.934,47.768,49.322,48.371,50.468z"/>
<g>
	<path style="fill:#8D6C9F;" d="M52.506,11.494c-11.307-11.307-29.705-11.307-41.012,0s-11.307,29.705,0,41.012   c5.653,5.653,13.08,8.48,20.506,8.48s14.853-2.827,20.506-8.48C63.812,41.199,63.812,22.801,52.506,11.494z M51.092,51.092   c-10.527,10.527-27.656,10.527-38.184,0s-10.527-27.656,0-38.184C18.172,7.645,25.086,5.013,32,5.013s13.828,2.632,19.092,7.896   C61.619,23.436,61.619,40.564,51.092,51.092z"/>
	<path style="fill:#8D6C9F;" d="M16.443,46.143l-1.414,1.414c-0.391,0.391-0.391,1.023,0,1.414c0.195,0.195,0.451,0.293,0.707,0.293   s0.512-0.098,0.707-0.293l1.414-1.414c0.391-0.391,0.391-1.023,0-1.414S16.834,45.752,16.443,46.143z"/>
	<path style="fill:#8D6C9F;" d="M21.689,49.082c-0.478-0.275-1.09-0.111-1.366,0.366l-1,1.732c-0.276,0.479-0.112,1.09,0.366,1.366   c0.157,0.091,0.329,0.134,0.499,0.134c0.346,0,0.682-0.18,0.867-0.5l1-1.732C22.332,49.97,22.168,49.358,21.689,49.082z"/>
	<path style="fill:#8D6C9F;" d="M13.069,37.849c-0.143-0.534-0.691-0.851-1.225-0.707l-1.932,0.518   c-0.533,0.143-0.85,0.691-0.707,1.225c0.119,0.447,0.523,0.741,0.965,0.741c0.086,0,0.173-0.011,0.26-0.034l1.932-0.518   C12.896,38.931,13.212,38.382,13.069,37.849z"/>
	<path style="fill:#8D6C9F;" d="M26.151,50.931c-0.532-0.143-1.082,0.173-1.225,0.707l-0.518,1.932   c-0.143,0.533,0.174,1.082,0.707,1.225c0.087,0.023,0.174,0.034,0.26,0.034c0.441,0,0.846-0.294,0.965-0.741l0.518-1.932   C27.001,51.622,26.685,51.073,26.151,50.931z"/>
	<path style="fill:#8D6C9F;" d="M14.918,42.311c-0.277-0.479-0.89-0.643-1.366-0.366l-1.732,1c-0.479,0.276-0.643,0.888-0.366,1.366   c0.186,0.32,0.521,0.5,0.867,0.5c0.17,0,0.342-0.043,0.499-0.134l1.732-1C15.03,43.4,15.194,42.789,14.918,42.311z"/>
	<path style="fill:#8D6C9F;" d="M35,23c-2.206,0-4,1.794-4,4s1.794,4,4,4s4-1.794,4-4S37.206,23,35,23z M35,29c-1.103,0-2-0.897-2-2   s0.897-2,2-2s2,0.897,2,2S36.103,29,35,29z"/>
	<path style="fill:#8D6C9F;" d="M43,15c-2.206,0-4,1.794-4,4s1.794,4,4,4s4-1.794,4-4S45.206,15,43,15z M43,21c-1.103,0-2-0.897-2-2   s0.897-2,2-2s2,0.897,2,2S44.103,21,43,21z"/>
	<path style="fill:#8D6C9F;" d="M36,15.5c0-3.032-2.468-5.5-5.5-5.5S25,12.468,25,15.5s2.468,5.5,5.5,5.5S36,18.532,36,15.5z    M30.5,19c-1.93,0-3.5-1.57-3.5-3.5s1.57-3.5,3.5-3.5s3.5,1.57,3.5,3.5S32.43,19,30.5,19z"/>
	<path style="fill:#8D6C9F;" d="M52.678,24.649c0.149,0.402,0.531,0.65,0.937,0.65c0.116,0,0.234-0.021,0.35-0.063   c0.518-0.192,0.78-0.769,0.587-1.286c-0.29-0.778-0.629-1.553-1.007-2.301c-0.249-0.493-0.85-0.693-1.343-0.442   c-0.493,0.249-0.691,0.851-0.442,1.343C52.104,23.233,52.412,23.939,52.678,24.649z"/>
	<path style="fill:#8D6C9F;" d="M55.709,28.346c-0.088-0.546-0.604-0.92-1.146-0.829c-0.545,0.087-0.917,0.6-0.829,1.146   c0.757,4.726-0.126,9.605-2.484,13.74c-0.274,0.479-0.107,1.09,0.373,1.363c0.156,0.09,0.326,0.132,0.494,0.132   c0.348,0,0.685-0.181,0.869-0.505C55.571,38.864,56.538,33.521,55.709,28.346z"/>
</g>
</svg>
