<?xml version="1.0"?>
<svg xmlns="http://www.w3.org/2000/svg" id="Layer_1" data-name="Layer 1" viewBox="0 0 64 64"><title>Icons8 RSL Colored Part 8</title><circle cx="31" cy="31" r="28" style="fill:#ed7899;"/><path d="M54,31A23,23,0,1,1,31,8,23,23,0,0,1,54,31Z" style="fill:#ed7899;"/><path d="M7.8,16.38c4.7,6.7,8.8,18.63,0,29C7.8,45.38,3.91,44,3,32S7.8,16.38,7.8,16.38Z" style="fill:#e0678f;"/><path d="M45.44,10.06h0a2.48,2.48,0,0,1-3.26.85,22.95,22.95,0,0,0-26,2.49A2.48,2.48,0,0,1,12.64,13h0A2.49,2.49,0,0,1,13,9.56a28,28,0,0,1,31.62-3A2.48,2.48,0,0,1,45.44,10.06Z" style="fill:#f283a5;"/><path d="M52,12.51s-22.86,19.26,0,37C52,49.49,68.07,33.11,52,12.51Z" style="fill:#e0678f;"/><path d="M52.76,11.86s0,0,0-.06a.93.93,0,0,0-.09-.08,29,29,0,0,0-46.27,4,1,1,0,0,0-.08.12,29,29,0,1,0,46.48-4Zm-1,36.34a23.31,23.31,0,0,1-8.36-13.06q2.92-.67,5.78-1.58a1,1,0,0,0-.61-1.91q-2.72.87-5.49,1.51A19.89,19.89,0,0,1,43,31c0-6.46,3.12-12.53,8.8-17.2a26.95,26.95,0,0,1,0,34.4ZM50.46,12.31C44.35,17.36,41,24,41,31a22,22,0,0,0,.16,2.58A71.35,71.35,0,0,1,27,35l-.88,0C26,33.66,26,32.33,26,31A70.56,70.56,0,0,1,31.32,4,26.92,26.92,0,0,1,50.46,12.31ZM29.15,4.07A72.56,72.56,0,0,0,24,31c0,1.32,0,2.63.11,3.94A71.12,71.12,0,0,1,13.8,33.76,21.77,21.77,0,0,0,14,31,23.08,23.08,0,0,0,8.43,16.21,27,27,0,0,1,29.15,4.07ZM7.33,18A21,21,0,0,1,12,31a19.73,19.73,0,0,1-.16,2.37A70.45,70.45,0,0,1,4,31.19c0-.06,0-.12,0-.19A26.83,26.83,0,0,1,7.33,18ZM4.11,33.32a72.43,72.43,0,0,0,7.39,2A21.8,21.8,0,0,1,7.33,44,26.8,26.8,0,0,1,4.11,33.32ZM8.43,45.8a23.94,23.94,0,0,0,5-10.07,73.14,73.14,0,0,0,10.8,1.21,72.31,72.31,0,0,0,4.89,21A27,27,0,0,1,8.43,45.8ZM31.32,58a70.32,70.32,0,0,1-5.05-21L27,37a73.35,73.35,0,0,0,14.49-1.45,25.24,25.24,0,0,0,9,14.13A26.92,26.92,0,0,1,31.32,58Z" style="fill:#8d6c9f;"/><path d="M56,30.57a1,1,0,0,0-1.19-.76l-2,.43a1,1,0,0,0,.22,2l.22,0,2-.43A1,1,0,0,0,56,30.57Z" style="fill:#8d6c9f;"/><path d="M54.48,36l-1.93-.52A1,1,0,0,0,52,37.4l1.93.52A1,1,0,1,0,54.48,36Z" style="fill:#8d6c9f;"/><path d="M52.42,41.63l-1.73-1a1,1,0,1,0-1,1.73l1.73,1a1,1,0,0,0,1-1.73Z" style="fill:#8d6c9f;"/><path d="M44.37,47.69a1,1,0,0,0-1.73,1l1,1.73a1,1,0,1,0,1.73-1Z" style="fill:#8d6c9f;"/><path d="M39.4,50a1,1,0,0,0-1.93.52L38,52.48A1,1,0,1,0,39.92,52Z" style="fill:#8d6c9f;"/></svg>
