<?xml version="1.0" encoding="iso-8859-1"?>
<!-- Generator: Adobe Illustrator 22.0.1, SVG Export Plug-In . SVG Version: 6.00 Build 0)  -->
<svg xmlns="http://www.w3.org/2000/svg" xmlns:xlink="http://www.w3.org/1999/xlink" version="1.1" id="Layer_1" x="0px" y="0px" viewBox="0 0 64 64" style="enable-background:new 0 0 64 64;" xml:space="preserve">
<path style="fill:#52AF8D;" d="M54.321,16.822L59,12l-6.795-7l-4.652,4.795c-1.381,1.381-3.25,2.052-5.144,2  c-0.679-0.019-1.361-0.089-2.025-0.311l-2.972-1.259c-2.883-0.964-6.064-0.21-8.208,1.945L2.376,39  c-1.562,1.562-1.562,4.095,0,5.657l16.967,16.967c1.562,1.562,4.095,1.562,5.657,0l26.879-26.88  c2.117-2.129,2.865-5.263,1.936-8.118l-1.2-2.686c-0.229-0.703-0.408-1.426-0.41-2.143C52.199,19.96,52.982,18.161,54.321,16.822z"/>
<path style="fill:#5DBC9D;" d="M47.553,9.795c-1.381,1.381-3.25,2.052-5.144,2c-0.679-0.019-1.361-0.089-2.025-0.311l-2.972-1.259  c-2.883-0.964-6.064-0.21-8.208,1.945L2.376,39c-1.562,1.562-1.562,4.095,0,5.657l16.108,16.107  c0.553-0.192,1.075-0.495,1.516-0.936l26.879-26.88c2.117-2.129,2.865-5.263,1.936-8.118l-1.2-2.686  c-0.229-0.703-0.408-1.426-0.41-2.143c-0.006-1.836,0.778-3.634,2.117-4.973L54,10.205l-3.423-3.526L47.553,9.795z"/>
<path style="fill:#FAEFDE;" d="M22.619,18.757L3,38.376L25.624,61l19.64-19.641c3.651-3.651,3.644-9.573-0.015-13.215l-9.444-9.402  C32.157,15.11,26.258,15.117,22.619,18.757z"/>
<path style="fill:#FFF7F0;" d="M29.219,20.025c-1.426,0-2.766,0.554-3.771,1.559L9.364,37.669l-0.707,0.707l0.707,0.707  l15.553,15.553l0.707,0.707l0.707-0.707L42.436,38.53c1.009-1.009,1.564-2.351,1.562-3.778c-0.002-1.427-0.56-2.767-1.571-3.774  l-9.444-9.401C31.978,20.576,30.641,20.025,29.219,20.025L29.219,20.025z"/>
<ellipse transform="matrix(0.7071 -0.7071 0.7071 0.7071 -11.7548 32.6213)" style="fill:#ED7899;" cx="33.5" cy="30.5" rx="4.586" ry="4.412"/>
<ellipse transform="matrix(0.7071 -0.7071 0.7071 0.7071 -11.7548 32.6213)" style="fill:none;stroke:#8D6C9F;stroke-width:2;stroke-miterlimit:10;" cx="33.5" cy="30.5" rx="4.586" ry="4.412"/>
<path style="fill:#52AF8D;" d="M20.499,62.284L1.886,43.919c-0.645-0.647-1.234-2.032-0.589-2.679l0,0  c1.556-1.563,4.079-1.563,5.635,0l15.901,15.384c1.556,1.563,1.556,4.097,0,5.66v0.381C22.188,63.312,21.143,62.932,20.499,62.284z"/>
<path style="fill:none;stroke:#8D6C9F;stroke-width:2;stroke-miterlimit:10;" d="M54.117,17.027l4.679-4.822l-6.795-7L47.348,10  c-1.381,1.381-3.25,2.052-5.144,2c-0.679-0.019-1.361-0.089-2.025-0.311l-2.972-1.259c-2.883-0.964-6.064-0.21-8.208,1.945  L2.172,39.205c-1.562,1.562-1.562,4.095,0,5.657l16.967,16.967c1.562,1.562,4.095,1.562,5.657,0l26.879-26.88  c2.117-2.129,2.865-5.263,1.936-8.118l-1.2-2.686C52.181,23.44,52.002,22.717,52,22C51.994,20.164,52.778,18.366,54.117,17.027z"/>
<path style="fill:#FAEFDE;" d="M53.172,1.586l-3.537,3.537c-0.415,0.415-0.415,1.088,0,1.503l7.739,7.739  c0.415,0.415,1.088,0.415,1.503,0l3.537-3.537c0.781-0.781,0.781-2.047,0-2.828L56,1.586C55.219,0.805,53.953,0.805,53.172,1.586z"/>
<path style="fill:#FFF7F0;" d="M54.377,10.189L58.689,6c0.415-0.415,0.415-1.088,0-1.503L56,1.586c-0.781-0.781-2.047-0.781-2.828,0  l-3.537,3.537c-0.415,0.415-0.415,1.088,0,1.503l3.239,3.563C53.289,10.604,53.962,10.604,54.377,10.189z"/>
<path style="fill:none;stroke:#8D6C9F;stroke-width:2;stroke-linejoin:round;stroke-miterlimit:10;" d="M53.253,1.581L49,5.834  L58.166,15l4.253-4.253c0.775-0.775,0.775-2.03,0-2.805l-6.361-6.361C55.283,0.806,54.028,0.806,53.253,1.581z"/>
<path style="fill:#8D6C9F;" d="M18,44.586L16.586,46c-0.391,0.391-0.391,1.023,0,1.414c0.195,0.195,0.451,0.293,0.707,0.293  s0.512-0.098,0.707-0.293L19.414,46c0.391-0.391,0.391-1.023,0-1.414S18.391,44.195,18,44.586z"/>
<path style="fill:#8D6C9F;" d="M10.929,37.515l-1.415,1.415c-0.391,0.391-0.391,1.023,0,1.414c0.195,0.195,0.451,0.293,0.707,0.293  s0.512-0.098,0.707-0.293l1.415-1.415c0.391-0.391,0.391-1.023,0-1.414S11.32,37.124,10.929,37.515z"/>
<path style="fill:#8D6C9F;" d="M14.465,41.05l-1.415,1.414c-0.391,0.39-0.391,1.023,0,1.414c0.195,0.195,0.451,0.293,0.707,0.293  s0.512-0.098,0.707-0.293l1.415-1.414c0.391-0.39,0.391-1.023,0-1.414S14.855,40.66,14.465,41.05z"/>
<path style="fill:#8D6C9F;" d="M20.122,49.536c-0.391,0.391-0.391,1.023,0,1.414c0.195,0.195,0.451,0.293,0.707,0.293  s0.512-0.098,0.707-0.293l1.414-1.414c0.391-0.391,0.391-1.023,0-1.414s-1.023-0.391-1.414,0L20.122,49.536z"/>
<path style="fill:#8D6C9F;" d="M24.364,54.778c0.256,0,0.512-0.098,0.707-0.293l1.414-1.415c0.391-0.391,0.391-1.024,0-1.414  c-0.391-0.391-1.024-0.391-1.414,0l-1.414,1.415c-0.391,0.391-0.391,1.024,0,1.414C23.853,54.681,24.108,54.778,24.364,54.778z"/>
<path style="fill:none;stroke:#8D6C9F;stroke-width:2;stroke-miterlimit:10;" d="M22.619,18.757L3,38.376L25.624,61l19.64-19.641  c3.651-3.651,3.644-9.573-0.015-13.215l-9.444-9.402C32.157,15.11,26.258,15.117,22.619,18.757z"/>
<rect x="22.672" y="29.308" transform="matrix(0.7071 -0.7071 0.7071 0.7071 -19.7548 29.3076)" style="fill:#ED7899;" width="5.657" height="18.385"/>
<rect x="22.672" y="29.308" transform="matrix(0.7071 -0.7071 0.7071 0.7071 -19.7548 29.3076)" style="fill:none;stroke:#8D6C9F;stroke-width:2;stroke-miterlimit:10;" width="5.657" height="18.385"/>
</svg>
