<?xml version="1.0" encoding="iso-8859-1"?>
<!-- Generator: Adobe Illustrator 22.0.1, SVG Export Plug-In . SVG Version: 6.00 Build 0)  -->
<svg xmlns="http://www.w3.org/2000/svg" xmlns:xlink="http://www.w3.org/1999/xlink" version="1.1" id="Layer_1" x="0px" y="0px" viewBox="0 0 64 64" style="enable-background:new 0 0 64 64;" xml:space="preserve">
<path style="fill:#52AF8D;" d="M9.969,61.017l-8.485-8.485c-0.781-0.781-0.781-2.047,0-2.828l0,0c0.781-0.781,2.047-0.781,2.828,0  l8.485,8.485c0.781,0.781,0.781,2.047,0,2.828l0,0C12.016,61.798,10.75,61.798,9.969,61.017z"/>
<path style="fill:#5DBC9D;" d="M63,24.95L49.57,38.39c-4.65,4.64-11.19,6.21-17.13,4.72c-0.63-0.16-1.3,0.04-1.69,0.57l-0.04,0.05  c-4.32,5.76-10.11,10.25-16.77,12.99l-1.85,0.76l-7.07-7.07l0.29-0.71l0.47-1.14c2.74-6.66,7.23-12.45,12.99-16.77l0.05-0.04  c0.53-0.39,0.73-1.06,0.57-1.69c-1.49-5.94,0.08-12.48,4.72-17.13l5.13-5.12l3.36-3.36l-0.37,3.33l-0.26,2.29l-0.19,1.74l4.58-0.04  l-0.35,9.06l12.22-0.43l-0.21,4.71L63,24.95z"/>
<g>
	<path style="fill:#81D6BB;" d="M32,6v6c-6,3-9.1,13.12-7.61,19.06c0.16,0.63-0.04,1.3-0.57,1.69l-0.05,0.04   C18.01,37.11,12.52,42.9,9.78,49.56l-1.45,3.16L5.31,49.7l0.47-1.14c2.74-6.66,7.23-12.45,12.99-16.77l0.05-0.04   c0.53-0.39,0.73-1.06,0.57-1.69c-1.49-5.94,0.08-12.48,4.72-17.13l5.13-5.12L32,6z"/>
</g>
<g>
	<path style="fill:#8D6C9F;" d="M63.924,24.566c-0.156-0.371-0.52-0.612-0.922-0.612c-0.003,0-0.007,0-0.011,0l-13.378,0.142   c-0.165-0.092-0.349-0.134-0.542-0.122l0.162-3.528c0.013-0.279-0.092-0.551-0.288-0.749c-0.196-0.199-0.473-0.312-0.746-0.296   l-11.146,0.392l0.304-7.989c0.01-0.273-0.092-0.539-0.282-0.735c-0.19-0.196-0.471-0.322-0.727-0.303l-3.45,0.032l0.691-6.239   c0.046-0.422-0.178-0.828-0.561-1.012s-0.84-0.105-1.14,0.194l-8.485,8.485c-4.765,4.765-6.626,11.522-4.979,18.075   c0.064,0.257-0.012,0.505-0.257,0.688c-5.9,4.425-10.503,10.369-13.312,17.189L4.645,48.69c-1.172-0.844-2.816-0.748-3.869,0.305   c-1.169,1.17-1.169,3.073,0,4.243l8.485,8.485v0c0.585,0.584,1.353,0.876,2.121,0.876c0.769,0,1.537-0.292,2.122-0.877   c1.053-1.054,1.148-2.697,0.305-3.869l0.512-0.211c6.82-2.809,12.764-7.412,17.231-13.368c0.141-0.189,0.388-0.266,0.646-0.201   c6.554,1.647,13.31-0.215,18.075-4.979l13.435-13.435C63.997,25.374,64.082,24.941,63.924,24.566z M12.09,60.309   c-0.389,0.391-1.024,0.391-1.415,0v0l-8.485-8.485c-0.39-0.39-0.39-1.024,0-1.414c0.389-0.39,1.024-0.391,1.415,0l8.485,8.485   C12.48,59.285,12.48,59.919,12.09,60.309z M48.86,37.682c-4.263,4.263-10.312,5.926-16.174,4.454   c-1.037-0.261-2.11,0.108-2.775,0.996c-4.209,5.612-9.863,9.991-16.351,12.663l-1.233,0.508l-6.128-6.128l0.508-1.233   c2.671-6.488,7.05-12.142,12.719-16.393c0.831-0.624,1.2-1.696,0.94-2.733c-1.474-5.865,0.191-11.911,4.454-16.174l6.471-6.471   l-0.502,4.528c-0.031,0.285,0.061,0.569,0.252,0.781c0.191,0.212,0.482,0.318,0.751,0.33l3.529-0.033l-0.305,8.016   c-0.01,0.278,0.095,0.547,0.292,0.744c0.197,0.197,0.469,0.303,0.743,0.293l11.137-0.391l-0.149,3.255l-5.001,1.923L38.96,23.54   c-0.252-0.252-0.619-0.352-0.964-0.259c-0.344,0.091-0.614,0.359-0.708,0.703l-1.889,6.926l-3.464-0.495l-1.219-3.657   c-0.174-0.523-0.738-0.807-1.265-0.632c-0.524,0.175-0.807,0.741-0.632,1.265l1.14,3.42l-2.053,1.027   c-0.494,0.247-0.694,0.848-0.447,1.342c0.175,0.351,0.528,0.553,0.896,0.553c0.15,0,0.303-0.034,0.446-0.105l2.55-1.275l4.64,0.663   c0.045,0.006,0.089,0.009,0.133,0.01c0.003,0,0.006,0.001,0.009,0.001c0.116,0,0.229-0.023,0.336-0.062   c0.036-0.013,0.066-0.036,0.101-0.053c0.066-0.033,0.131-0.066,0.189-0.112c0.034-0.028,0.061-0.063,0.091-0.095   c0.047-0.049,0.092-0.098,0.128-0.157c0.026-0.041,0.042-0.087,0.061-0.132c0.018-0.043,0.045-0.079,0.058-0.126l1.667-6.115   l2.317,2.317c0.279,0.279,0.697,0.368,1.066,0.226l6.793-2.613l11.622-0.123L48.86,37.682z"/>
	<path style="fill:#8D6C9F;" d="M19.161,41.924l-1.414,1.415c-0.391,0.391-0.391,1.024,0,1.414c0.195,0.195,0.451,0.293,0.707,0.293   s0.512-0.098,0.707-0.293l1.414-1.415c0.391-0.391,0.391-1.024,0-1.414C20.185,41.534,19.551,41.534,19.161,41.924z"/>
	<path style="fill:#8D6C9F;" d="M22.697,45.46l-1.415,1.415c-0.391,0.391-0.391,1.023,0,1.414c0.195,0.195,0.451,0.293,0.707,0.293   s0.512-0.098,0.707-0.293l1.415-1.415c0.391-0.391,0.391-1.023,0-1.414S23.087,45.069,22.697,45.46z"/>
	<path style="fill:#8D6C9F;" d="M15.625,38.389l-1.414,1.414c-0.391,0.391-0.391,1.023,0,1.414c0.195,0.195,0.451,0.293,0.707,0.293   s0.512-0.098,0.707-0.293l1.414-1.414c0.391-0.391,0.391-1.023,0-1.414S16.016,37.999,15.625,38.389z"/>
</g>
</svg>
