<?xml version="1.0" encoding="utf-8"?>
<!-- Generator: Adobe Illustrator 15.0.0, SVG Export Plug-In . SVG Version: 6.00 Build 0)  -->
<!DOCTYPE svg PUBLIC "-//W3C//DTD SVG 1.1//EN" "http://www.w3.org/Graphics/SVG/1.1/DTD/svg11.dtd">
<svg version="1.1"  xmlns="http://www.w3.org/2000/svg" xmlns:xlink="http://www.w3.org/1999/xlink" x="0px" y="0px"
	 width="48px" height="48px" viewBox="0 0 48 48" enable-background="new 0 0 48 48" xml:space="preserve">
<path fill="#9FA8DA" d="M38.635,5.711L33.047,8l-4.221,4.239c0.162,0.178,0.267,0.409,0.267,0.669c0,0.553-0.447,1-1,1
	c-0.258,0-0.487-0.104-0.664-0.264l-1.597,1.604c0.157,0.178,0.261,0.404,0.261,0.66c0,0.553-0.447,1-1,1
	c-0.254,0-0.479-0.102-0.655-0.258l-1.599,1.607c0.152,0.176,0.254,0.398,0.254,0.65c0,0.553-0.447,1-1,1
	c-0.25,0-0.471-0.101-0.646-0.252l-2.944,2.96l0.637,0.789L4.314,38.034c-0.394,0.393-0.394,1.029,0,1.423l4.268,4.268
	c0.395,0.393,1.03,0.393,1.424,0L24.83,29.097l0.711,0.712c0,0,0.073-0.074,0.788-0.789c-0.786-0.786-0.862-1.982-0.076-2.77
	l-0.712-0.711c0,0-0.711-0.711-0.003-1.419c1.781-1.782,6.554-6.553,9.963-9.964C38.365,11.293,38.998,7.174,38.635,5.711z"/>
<path fill="#455A64" d="M12.731,42.437c-0.786,0.786-2.061,0.786-2.846,0l-4.27-4.268c-0.785-0.786-0.785-2.061,0-2.847
	l12.466-12.284l7.115,7.114L12.731,42.437z"/>
<g>
	<circle fill="#CFD8DC" cx="17.093" cy="30.908" r="1"/>
	<circle fill="#CFD8DC" cx="12.001" cy="36" r="1"/>
</g>
<path fill="#37474F" d="M27.093,32.654c-0.394,0.394-1.03,0.394-1.423,0L15.412,22.339c-0.393-0.393-0.393-1.029,0-1.423
	l0.712-0.711c0.393-0.394,1.029-0.394,1.422,0L27.804,30.52c0.394,0.394,0.394,1.03,0,1.423L27.093,32.654z"/>
<g>
	<path fill="#C5CAE9" d="M42.812,4l-4.177,1.711c0.363,1.463-0.27,5.582-3.134,8.445c-3.409,3.411-8.182,8.182-9.963,9.964
		c-0.708,0.708,0.003,1.419,0.003,1.419l0.712,0.711c0.786-0.784,2.061-0.784,2.845,0c4.616-4.615,8.328-8.328,10.157-10.155
		C44.234,11.114,42.812,4,42.812,4z"/>
	<path fill="#C5CAE9" d="M24.8,20.201l-1.999-1.999c0.181,0.181,0.292,0.431,0.292,0.706c0,0.553-0.447,1-1,1
		c-0.275,0-0.525-0.111-0.706-0.292l1.999,1.999c0.195,0.195,0.451,0.293,0.707,0.293s0.512-0.098,0.707-0.293
		C25.19,21.225,25.19,20.592,24.8,20.201z"/>
	<path fill="#C5CAE9" d="M27.8,17.201l-1.999-1.999c0.181,0.181,0.292,0.431,0.292,0.706c0,0.553-0.447,1-1,1
		c-0.275,0-0.525-0.111-0.706-0.292l1.999,1.999c0.195,0.195,0.451,0.293,0.707,0.293s0.512-0.098,0.707-0.293
		C28.19,18.225,28.19,17.592,27.8,17.201z"/>
	<path fill="#C5CAE9" d="M30.8,14.201l-1.999-1.999c0.181,0.181,0.292,0.431,0.292,0.706c0,0.553-0.447,1-1,1
		c-0.275,0-0.525-0.111-0.706-0.292l1.999,1.999c0.195,0.195,0.451,0.293,0.707,0.293s0.512-0.098,0.707-0.293
		C31.19,15.225,31.19,14.592,30.8,14.201z"/>
</g>
</svg>
