<?xml version="1.0" encoding="iso-8859-1"?>
<!-- Generator: Adobe Illustrator 22.0.1, SVG Export Plug-In . SVG Version: 6.00 Build 0)  -->
<svg xmlns="http://www.w3.org/2000/svg" xmlns:xlink="http://www.w3.org/1999/xlink" version="1.1" id="Layer_1" x="0px" y="0px" viewBox="0 0 64 64" style="enable-background:new 0 0 64 64;" xml:space="preserve">
<path style="fill:#CDA1A7;" d="M47.54,57H14.46c-0.87,0-1.64-0.562-1.905-1.39l-1.703-5.323c-3.806-11.894-3.806-24.679,0-36.573  l1.703-5.323C12.82,7.562,13.59,7,14.46,7h33.08c0.87,0,1.64,0.562,1.905,1.39l1.703,5.323c3.806,11.894,3.806,24.679,0,36.573  l-1.703,5.323C49.18,56.438,48.41,57,47.54,57z"/>
<path style="fill:#C4939C;" d="M51.15,50.29l-1.71,5.32c-0.26,0.83-1.03,1.39-1.9,1.39H31V7h16.54c0.87,0,1.64,0.56,1.9,1.39  l1.71,5.32C54.95,25.61,54.95,38.39,51.15,50.29z"/>
<path style="fill:#DEB4BA;" d="M31,7v50H14.46c-0.87,0-1.64-0.56-1.9-1.39l-1.71-5.32c-3.8-11.9-3.8-24.68,0-36.58l1.71-5.32  C12.82,7.56,13.59,7,14.46,7H31z"/>
<path style="fill:#CDA1A7;" d="M21.59,57.143C19,44,17,25,21,7l10.385,0.159L31,57L21.59,57.143z"/>
<path style="fill:#CDA1A7;" d="M40.18,57.143C42.771,44,44.771,25,40.771,7L30.385,7.159L30.771,57L40.18,57.143z"/>
<path style="fill:#F6D397;" d="M52,19H10c-1.105,0-2-0.895-2-2v0c0-1.105,0.895-2,2-2h42c1.105,0,2,0.895,2,2v0  C54,18.105,53.105,19,52,19z"/>
<path style="fill:#F6D397;" d="M52,49H10c-1.105,0-2-0.895-2-2v0c0-1.105,0.895-2,2-2h42c1.105,0,2,0.895,2,2v0  C54,48.105,53.105,49,52,49z"/>
<g>
	<path style="fill:#8D6C9F;" d="M14,35c0.553,0,1-0.448,1-1s-0.447-1-1-1h-2c-0.553,0-1,0.448-1,1s0.447,1,1,1H14z"/>
	<path style="fill:#8D6C9F;" d="M12,30h2c0.553,0,1-0.448,1-1s-0.447-1-1-1h-2c-0.553,0-1,0.448-1,1S11.447,30,12,30z"/>
	<path style="fill:#8D6C9F;" d="M14.5,23h-2c-0.553,0-1,0.448-1,1s0.447,1,1,1h2c0.553,0,1-0.448,1-1S15.053,23,14.5,23z"/>
	<path style="fill:#8D6C9F;" d="M14.5,38h-2c-0.553,0-1,0.448-1,1s0.447,1,1,1h2c0.553,0,1-0.448,1-1S15.053,38,14.5,38z"/>
	<path style="fill:#8D6C9F;" d="M42.564,21.756c-0.551,0.043-0.963,0.524-0.92,1.075c0.057,0.723,0.105,1.446,0.149,2.171   c0.032,0.531,0.473,0.94,0.997,0.94c0.021,0,0.041,0,0.061-0.002c0.552-0.033,0.972-0.507,0.938-1.058   c-0.044-0.737-0.095-1.472-0.151-2.207C43.596,22.125,43.109,21.717,42.564,21.756z"/>
	<path style="fill:#8D6C9F;" d="M53.7,44.53c1.75-8.28,1.75-16.77,0.01-25.06C54.49,18.92,55,18.02,55,17   c0-1.55-1.19-2.84-2.71-2.98c-0.06-0.2-0.13-0.41-0.19-0.61l-1.7-5.32C50,6.84,48.85,6,47.54,6H14.46C13.15,6,12,6.84,11.6,8.09   l-1.7,5.32c-0.06,0.2-0.13,0.41-0.19,0.61C8.19,14.16,7,15.45,7,17c0,1.02,0.51,1.92,1.29,2.47C6.55,27.76,6.55,36.25,8.3,44.53   C7.52,45.07,7,45.98,7,47c0,1.55,1.19,2.84,2.71,2.98c0.06,0.2,0.12,0.41,0.19,0.61l1.7,5.32C12,57.16,13.15,58,14.46,58h33.08   c1.31,0,2.46-0.84,2.86-2.09l1.7-5.32c0.07-0.2,0.13-0.41,0.19-0.61C53.81,49.84,55,48.55,55,47C55,45.98,54.48,45.07,53.7,44.53z    M43.95,28.66c-0.01-0.54-0.46-0.97-0.99-0.97h-0.03c-0.56,0.01-0.99,0.47-0.98,1.03c0.15,5.15-0.04,10.27-0.56,15.28H32V20h19.78   c1.65,7.93,1.65,16.07,0,24H43.4C43.91,38.97,44.1,33.83,43.95,28.66z M10.22,44c-1.65-7.93-1.65-16.07,0-24h8.39   c-0.71,6.96-0.8,14.17-0.26,21.18c0.04,0.52,0.48,0.92,1,0.92h0.07c0.55-0.04,0.97-0.52,0.92-1.07   c-0.53-6.96-0.43-14.12,0.28-21.03H30v24H10.22z M47.54,8c0.44,0,0.82,0.28,0.95,0.7l1.7,5.3h-7.57c-0.01-0.15-0.04-0.29-0.06-0.44   L41.67,8H47.54z M21.41,13.87L22.35,8H30v6h-8.61C21.4,13.96,21.4,13.91,21.41,13.87z M32,8h7.65l0.94,5.87   c0.01,0.04,0.01,0.09,0.02,0.13H32V8z M13.51,8.7C13.64,8.28,14.02,8,14.46,8h5.87l-0.89,5.56c-0.02,0.15-0.05,0.29-0.06,0.44   h-7.57L13.51,8.7z M10,16h1.21h7.87h2.01H30h2h8.9h2.02h7.87H52c0.55,0,1,0.45,1,1s-0.45,1-1,1h-0.68h-8.15h-2.02H32h-2h-9.16   h-2.02h-8.14H10c-0.55,0-1-0.45-1-1S9.45,16,10,16z M14.46,56c-0.44,0-0.82-0.28-0.95-0.7l-1.7-5.3h7.56   c0.02,0.15,0.05,0.29,0.07,0.44L20.33,56H14.46z M40.59,50.13L39.65,56H32v-6h8.61C40.6,50.04,40.6,50.09,40.59,50.13z M30,56   h-7.65l-0.94-5.87c-0.01-0.04-0.01-0.09-0.02-0.13H30V56z M48.49,55.3c-0.13,0.42-0.51,0.7-0.95,0.7h-5.87l0.89-5.56   c0.02-0.15,0.05-0.29,0.07-0.44h7.56L48.49,55.3z M52,48h-1.21h-7.87h-2.01H32h-2h-8.9h-2.02h-7.87H10c-0.55,0-1-0.45-1-1   s0.45-1,1-1h0.68h8.15h2.01H30h2h9.17h2.01h8.14H52c0.55,0,1,0.45,1,1S52.55,48,52,48z"/>
</g>
</svg>
