<?xml version="1.0"?>
<svg xmlns="http://www.w3.org/2000/svg" id="Layer_1" data-name="Layer 1" viewBox="0 0 64 64"><title>Icons8 RSL Colored Part 10</title><circle cx="31" cy="33" r="28" style="fill:#faefde;"/><polygon points="30.99 21 17.99 30 23 45 39 45 42.99 30 30.99 21" style="fill:#c2cde7;"/><path d="M38.83,6.12l-6.69,5a2,2,0,0,1-2.34,0L22.69,6.26C32.86,4.19,38.83,6.12,38.83,6.12Z" style="fill:#acb7d0;"/><path d="M40.46,59.36l2.14-7.88A2,2,0,0,1,44.53,50H53S47.77,56.9,40.46,59.36Z" style="fill:#acb7d0;"/><path d="M22,59.51,19.44,51.4A2,2,0,0,0,17.53,50H9S15.46,58.09,22,59.51Z" style="fill:#acb7d0;"/><path d="M3,32.62l6.86-5.23a2,2,0,0,0,.68-2.24l-2.7-7.91S1.76,23.63,3,32.62Z" style="fill:#acb7d0;"/><path d="M59,32.13l-6.83-4.8a2,2,0,0,1-.77-2.21l2.48-8.27C57,21.66,59,32.13,59,32.13Z" style="fill:#acb7d0;"/><path d="M60,32.1A29,29,0,0,0,39.11,5.16,29,29,0,0,0,7,16.69,28.75,28.75,0,0,0,2,32.54c0,.16,0,.3,0,.46A29,29,0,0,0,21.67,60.46h0A28.62,28.62,0,0,0,31,62a29,29,0,0,0,9.77-1.69h0A29,29,0,0,0,60,33C60,32.69,60,32.37,60,32.1ZM54.2,19.21a26.73,26.73,0,0,1,3.64,10.9l-5.11-3.59a1,1,0,0,1-.38-1.1Zm-1.44-2.15-2.33,7.78a3,3,0,0,0-.12.87l-7.18,3.15L32,20.5V12.34a3,3,0,0,0,.75-.4L39,7.23A27,27,0,0,1,52.76,17.05ZM38.23,44H23.72L19.17,30.4,31,22.23,41.85,30.4ZM18.41,49.13a3,3,0,0,0-.88-.13H9.28A26.68,26.68,0,0,1,4,33.12l6.47-4.93a3,3,0,0,0,.54-.55l6.15,3.07,4.71,14.08ZM7.58,19.56l2,5.92a1,1,0,0,1-.34,1.12L4.12,30.52A26.79,26.79,0,0,1,7.58,19.56ZM31,6a26.86,26.86,0,0,1,5.55.58l-5,3.75a1,1,0,0,1-1.17,0L25,6.67A27,27,0,0,1,31,6ZM22.54,7.37,29.24,12a2.9,2.9,0,0,0,.76.37v8.1L17.91,28.84l-6.25-3.12a3,3,0,0,0-.16-.89L9,17.42A27,27,0,0,1,22.54,7.37ZM10.89,51h6.65a1,1,0,0,1,1,.7l1.94,6.14A26.73,26.73,0,0,1,10.89,51Zm11.91,7.7-2.4-7.6a3,3,0,0,0-.38-.77L23.47,46h15L42,50.37a3,3,0,0,0-.38.84l-2,7.35A27.12,27.12,0,0,1,22.79,58.7Zm19.16-1,1.61-5.95a1,1,0,0,1,1-.74h6.58A26.89,26.89,0,0,1,42,57.69ZM52.74,49H44.53a3,3,0,0,0-.93.15L40.1,44.77l3.73-14L51,27.59a3,3,0,0,0,.59.56L58,32.66c0,.11,0,.23,0,.34A26.78,26.78,0,0,1,52.74,49Z" style="fill:#8d6c9f;"/><path d="M26,49a1,1,0,0,0-1,1v2a1,1,0,0,0,2,0V50A1,1,0,0,0,26,49Z" style="fill:#8d6c9f;"/><path d="M31,49a1,1,0,0,0-1,1v2a1,1,0,0,0,2,0V50A1,1,0,0,0,31,49Z" style="fill:#8d6c9f;"/><path d="M36,49a1,1,0,0,0-1,1v2a1,1,0,0,0,2,0V50A1,1,0,0,0,36,49Z" style="fill:#8d6c9f;"/><path d="M14.52,33.63A1,1,0,0,0,13.27,33l-1.91.58a1,1,0,1,0,.58,1.91l1.91-.58A1,1,0,0,0,14.52,33.63Z" style="fill:#8d6c9f;"/><path d="M16,38.42a1,1,0,0,0-1.25-.66l-1.91.58a1,1,0,1,0,.58,1.91l1.91-.58A1,1,0,0,0,16,38.42Z" style="fill:#8d6c9f;"/><path d="M16.19,42.53l-1.91.58A1,1,0,1,0,14.87,45l1.91-.58a1,1,0,0,0-.58-1.91Z" style="fill:#8d6c9f;"/><path d="M47,43.12l-1.93-.52a1,1,0,1,0-.52,1.93l1.93.52A1,1,0,0,0,47,43.12Z" style="fill:#8d6c9f;"/><path d="M48.29,38.29l-1.93-.52a1,1,0,0,0-.52,1.93l1.93.52a1,1,0,0,0,.52-1.93Z" style="fill:#8d6c9f;"/><path d="M49.59,33.46l-1.93-.52a1,1,0,0,0-.52,1.93l1.93.52a1,1,0,1,0,.52-1.93Z" style="fill:#8d6c9f;"/><path d="M44.4,25.81a1,1,0,0,0,.8-.4l1.2-1.6a1,1,0,1,0-1.6-1.2l-1.2,1.6a1,1,0,0,0,.8,1.6Z" style="fill:#8d6c9f;"/><path d="M39.81,22.6a1,1,0,0,0,1.4-.2l1.2-1.6a1,1,0,0,0-1.6-1.2l-1.2,1.6A1,1,0,0,0,39.81,22.6Z" style="fill:#8d6c9f;"/><path d="M36.82,16.59l-1.2,1.6a1,1,0,0,0,1.6,1.2l1.2-1.6a1,1,0,0,0-1.6-1.2Z" style="fill:#8d6c9f;"/><path d="M16.69,25.28a1,1,0,1,0,1.63-1.16l-1.16-1.63a1,1,0,0,0-1.63,1.16Z" style="fill:#8d6c9f;"/><path d="M20.77,22.39a1,1,0,0,0,1.63-1.16l-1.16-1.63a1,1,0,1,0-1.63,1.16Z" style="fill:#8d6c9f;"/><path d="M24.85,19.51a1,1,0,0,0,1.63-1.16l-1.16-1.63a1,1,0,0,0-1.63,1.16Z" style="fill:#8d6c9f;"/></svg>
