<?xml version="1.0" encoding="iso-8859-1"?>
<!-- Generator: Adobe Illustrator 21.0.0, SVG Export Plug-In . SVG Version: 6.00 Build 0)  -->
<svg xmlns="http://www.w3.org/2000/svg" xmlns:xlink="http://www.w3.org/1999/xlink" version="1.1" x="0px" y="0px" viewBox="0 0 48 48" style="enable-background:new 0 0 48 48;" xml:space="preserve">
<g id="Layer_1">
</g>
<g id="Layer_2">
</g>
<g id="Layer_3">
	<rect x="2" y="10" style="fill:#EA352D;" width="44" height="30"/>
	<path style="fill-rule:evenodd;clip-rule:evenodd;fill:#FFD700;" d="M8.987,20l-2,2l1.22,1.293l1.053-1.028   c2.055,2.021,3.742,3.591,5.726,5.542c0.549,0.552,1.415-0.171,0.802-0.808c-2.096-1.979-3.549-3.435-5.733-5.51L11.487,20H8.987z"/>
	<path style="fill-rule:evenodd;clip-rule:evenodd;fill:#FFD700;" d="M8.936,25.91c4.174,4.197,10.462-3.494,2.052-7.91   c6.463,6.909,0.593,9.064-1.742,6.906l-0.111-0.09c-0.09,0.099-0.18,0.198-0.269,0.298c-0.17-0.158-0.435-0.205-0.516,0.066   c-0.335-0.023-0.531,0.16-0.619,0.502c-0.622,0.406-1.296,0.762-1.684,1.4c-0.221,0.675,0.217,0.968,0.712,0.912   c0.812-0.332,1.063-1.05,1.497-1.642c0.307-0.096,0.567-0.226,0.615-0.501"/>
	<polygon style="fill-rule:evenodd;clip-rule:evenodd;fill:#FFD701;" points="11,13.43 11.505,14.984 13.14,14.984 11.817,15.945    12.323,17.5 11,16.539 9.677,17.5 10.183,15.945 8.86,14.984 10.495,14.984  "/>
</g>
</svg>
