<?xml version="1.0" encoding="iso-8859-1"?>
<!-- Generator: Adobe Illustrator 22.1.0, SVG Export Plug-In . SVG Version: 6.00 Build 0)  -->
<svg xmlns="http://www.w3.org/2000/svg" xmlns:xlink="http://www.w3.org/1999/xlink" version="1.1" id="Layer_1" x="0px" y="0px" viewBox="0 0 48 48" style="enable-background:new 0 0 48 48;" xml:space="preserve">
<g>
</g>
<path style="fill:#78909C;" d="M27,9.25c0,0.828-1,1.75-3,1.75c-2,0-3-0.922-3-1.75S24,0,24,0S27,8.422,27,9.25z"/>
<path style="fill:#78909C;" d="M9.428,27.77c0.745-0.363,2.011,0.132,2.888,1.929c0.877,1.798,0.487,3.1-0.258,3.463  s-9.629,1.359-9.629,1.359S8.683,28.133,9.428,27.77z"/>
<path style="fill:#78909C;" d="M18.728,9.902c0.439,0.703,0.079,2.014-1.617,3.074c-1.696,1.06-3.032,0.808-3.471,0.106  c-0.439-0.703-2.358-9.434-2.358-9.434S18.289,9.199,18.728,9.902z"/>
<path style="fill:#78909C;" d="M12.058,14.838c0.745,0.363,1.135,1.666,0.258,3.464c-0.877,1.798-2.143,2.292-2.888,1.929  c-0.745-0.363-6.999-6.751-6.999-6.751S11.313,14.474,12.058,14.838z"/>
<path style="fill:#78909C;" d="M34.36,13.081c-0.439,0.703-1.775,0.954-3.472-0.106c-1.696-1.06-2.056-2.371-1.617-3.074  c0.439-0.703,7.446-6.255,7.446-6.255S34.799,12.379,34.36,13.081z"/>
<path style="fill:#78909C;" d="M38.572,20.23c-0.745,0.363-2.011-0.132-2.888-1.929c-0.877-1.798-0.487-3.1,0.258-3.463  c0.745-0.363,9.629-1.359,9.629-1.359S39.317,19.867,38.572,20.23z"/>
<circle style="fill:#78909C;" cx="24" cy="24" r="18"/>
<circle style="fill:#B0BEC5;" cx="21" cy="20" r="1"/>
<circle style="fill:#B0BEC5;" cx="27" cy="20" r="1"/>
<circle style="fill:#B0BEC5;" cx="33" cy="20" r="1"/>
<circle style="fill:#B0BEC5;" cx="9" cy="20" r="1"/>
<circle style="fill:#B0BEC5;" cx="21" cy="28" r="1"/>
<circle style="fill:#B0BEC5;" cx="27" cy="28" r="1"/>
<circle style="fill:#B0BEC5;" cx="15" cy="20" r="1"/>
<circle style="fill:#B0BEC5;" cx="15" cy="28" r="1"/>
<circle style="fill:#B0BEC5;" cx="33" cy="28" r="1"/>
<circle style="fill:#B0BEC5;" cx="39" cy="20" r="1"/>
<circle style="fill:#B0BEC5;" cx="39" cy="28" r="1"/>
<circle style="fill:#B0BEC5;" cx="9" cy="28" r="1"/>
<path style="fill:#B0BEC5;" d="M42,25H6c-0.552,0-1-0.447-1-1s0.448-1,1-1h36c0.552,0,1,0.447,1,1S42.552,25,42,25z"/>
<path style="fill:#546E7A;" d="M39.112,33.723c2.815,0.389,6.459,0.798,6.459,0.798s-2.559-2.613-4.598-4.592  c0.332-0.953,0.592-1.939,0.762-2.957C37.242,33.625,29.632,38,21,38c-3.866,0-7.526-0.878-10.794-2.445  c0.762,0.908,1.615,1.737,2.539,2.48c-0.68,2.757-1.463,6.319-1.463,6.319s2.851-2.26,5.029-4.078  c1.728,0.819,3.607,1.371,5.585,1.602C22.78,44.573,24,48,24,48s1.224-3.439,2.108-6.137c1.975-0.231,3.853-0.772,5.578-1.59  c2.178,1.818,5.032,4.081,5.032,4.081s-0.786-3.574-1.467-6.333C36.758,36.806,38.062,35.356,39.112,33.723z"/>
<path style="fill:#B0BEC5;" d="M13.826,14c-0.269,0-0.537-0.107-0.734-0.32c-0.375-0.406-0.351-1.038,0.055-1.414  C16.119,9.515,19.974,8,24,8c0.304,0,0.602,0.021,0.899,0.041l0.168,0.012c0.551,0.038,0.968,0.515,0.931,1.065  c-0.038,0.551-0.515,0.958-1.065,0.931l-0.175-0.013C24.507,10.019,24.256,10,24,10c-3.521,0-6.893,1.326-9.494,3.734  C14.313,13.912,14.069,14,13.826,14z"/>
</svg>
