<?xml version="1.0" encoding="utf-8"?>
<!-- Generator: Adobe Illustrator 15.0.0, SVG Export Plug-In . SVG Version: 6.00 Build 0)  -->
<!DOCTYPE svg PUBLIC "-//W3C//DTD SVG 1.1//EN" "http://www.w3.org/Graphics/SVG/1.1/DTD/svg11.dtd">
<svg version="1.1"  xmlns="http://www.w3.org/2000/svg" xmlns:xlink="http://www.w3.org/1999/xlink" x="0px" y="0px"
	 width="48px" height="48px" viewBox="0 0 48 48" enable-background="new 0 0 48 48" xml:space="preserve">
<g>
	<path fill="#CFD8DC" d="M31,37c0,0.553-0.447,1-1,1H7c-0.553,0-1-0.447-1-1V5c0-0.553,0.447-1,1-1h23c0.553,0,1,0.447,1,1V37z"/>
	<path fill="#CFD8DC" d="M42.284,11.362L31,8.015V37c0,0.553-0.447,1-1,1H12.529l20.085,5.958c0.529,0.158,1.086-0.145,1.243-0.674
		l9.101-30.679C43.115,12.075,42.813,11.52,42.284,11.362z"/>
</g>
<g>
	<path fill="#FF3D00" d="M38.021,16.426l-1.646-0.488l-0.552,0.81l-1.282-0.381l3.247-4.251l1.129,0.335l0.417,5.339l-1.288-0.382
		L38.021,16.426z M36.929,15.13l1.069,0.316l-0.043-1.82L36.929,15.13z"/>
	<path fill="#FF3D00" d="M32.458,19.593c-0.484-0.16-0.976-0.228-1.458-0.228v9.63c1.987-0.747,3.774-1.766,4.4-3.656
		C36.186,22.963,34.868,20.392,32.458,19.593z"/>
</g>
<path fill="#90A4AE" d="M33,8.608l-2-0.593V37c0,0.553-0.447,1-1,1H12.529l6.742,2H30c1.654,0,3-1.346,3-3V8.608z"/>
<g>
	<path fill="#263238" d="M18.882,19.834H18.5h-0.382C18.5,25.667,15.824,28,15.824,28h5.352C21.176,28,18.5,25.667,18.882,19.834z"
		/>
	<path fill="#263238" d="M15.546,24.889c1.235,0,2.319-0.621,2.954-1.564c0.635,0.943,1.719,1.564,2.955,1.564
		c1.957,0,3.545-1.564,3.545-3.494c0-3.477-5.525-5.151-6.5-7.395c-0.975,2.243-6.5,3.889-6.5,7.395
		C12,23.324,13.588,24.889,15.546,24.889"/>
	<g>
		<path fill="#263238" d="M27.354,10.066h-1.717L25.338,11H24l1.904-5h1.177L29,11h-1.344L27.354,10.066z M25.938,9.135h1.115
			l-0.559-1.733L25.938,9.135z"/>
	</g>
	<g>
		<path fill="#263238" d="M11.656,31H13l-1.919,5H9.904L8,31h1.338l0.299,0.934h1.717L11.656,31z M10.494,34.599l0.559-1.733H9.938
			L10.494,34.599z"/>
	</g>
</g>
<path fill="#DD2C00" d="M31,28.994c0.709-0.266,1.385-0.574,2-0.938v-8.223c-0.178-0.085-0.35-0.178-0.542-0.241
	c-0.485-0.16-0.976-0.228-1.458-0.228V28.994z"/>
</svg>
