<?xml version="1.0" encoding="utf-8"?>
<!-- Generator: Adobe Illustrator 21.0.2, SVG Export Plug-In . SVG Version: 6.00 Build 0)  -->
<svg xmlns="http://www.w3.org/2000/svg" xmlns:xlink="http://www.w3.org/1999/xlink" version="1.1" id="Layer_1" x="0px" y="0px" viewBox="0 0 48 48" style="enable-background:new 0 0 48 48;" xml:space="preserve">
<g id="surface1">
	<path style="fill:#56300D;" d="M37,11h-2V5.4c0-0.4,0.3-0.8,0.7-0.9c0.4-0.1,0.8,0,1.1,0.3l3,3.6l-1.5,1.3L37,8.2V11z"/>
	<path style="fill:#56300D;" d="M25.3,18.2l1.5-1.3l2.7,3l-1.5,1.3L25.3,18.2z"/>
	<path style="fill:#56300D;" d="M40,32c-9.7,0-15.6-5.8-17.2-7.5l4.5-4c2.4,2.7,7,5.5,12.7,5.5V32z"/>
	<path style="fill:#56300D;" d="M24.7,37l-3.4,2l-3.4-11.2l3.3-0.6L24.7,37z"/>
	<path style="fill:#56300D;" d="M22.1,39.3c-0.4,0-0.8-0.2-0.9-0.6c-0.2-0.5,0-1.1,0.5-1.3l2.9-1.3c0.5-0.2,1.1,0,1.3,0.5   c0.2,0.5,0,1.1-0.5,1.3l-2.9,1.3C22.4,39.3,22.2,39.3,22.1,39.3z"/>
	<path style="fill:#56300D;" d="M22.3,32.9L21,31.4c0,0,2.5-2.2,3.5-3.1c0.3-0.3,0.5-0.6,0.5-1c0-0.4-0.1-0.8-0.4-1.1l-1.7-1.9   l1.5-1.3l1.7,1.9c0.6,0.7,0.9,1.6,0.9,2.5c-0.1,0.9-0.5,1.8-1.2,2.4C24.8,30.8,22.3,32.9,22.3,32.9z"/>
	<path style="fill:#995F1A;" d="M25,22.5l-7.1,6.3c-0.8,0.7-2.1,0.7-2.8-0.2L12.6,26c-0.7-0.8-0.7-2.1,0.2-2.8l7.8-5.6   c0.8-0.7,2.1-0.7,2.8,0.2l1.9,1.9C25.9,20.5,25.8,21.7,25,22.5z M14.6,25.1l2,2.2l7.1-6.3l-2-2.2L14.6,25.1z"/>
	<path style="fill:#995F1A;" d="M31.7,16.5L43,6l-1.3-1.5L30.4,15L31.7,16.5z"/>
	<path style="fill:#995F1A;" d="M15.3,31.1l-8.2,7.3l-2-2.2l8.2-7.3L15.3,31.1z"/>
	
		<rect x="10" y="32" transform="matrix(1 -1.724135e-03 1.724135e-03 1 -6.296846e-02 1.903326e-02)" style="fill:#995F1A;" width="2" height="9.1"/>
	<path style="fill:#C68632;" d="M36.9,13.2l-6.8,7.4l-4-4.5l8.1-5.9L36.9,13.2z"/>
	<path style="fill:#C68632;" d="M28.3,28.8c-1.9-0.9-3.8-2.5-5.5-4.3l4.5-4c1.8,2,3.4,2.7,4,3.1L28.3,28.8z"/>
	<path style="fill:#C68632;" d="M18.9,30.6l9.7-8.7l-4-4.5c0,0-10.4,9.3-11.2,10c-0.7,0.7-0.1,1.4-0.1,1.4s1.3,1.5,2,2.2   c0.7,0.7,1.4,0.1,1.4,0.1S18.2,29.9,18.9,30.6z"/>
	<path style="fill:#C68632;" d="M5,36.3l1.5-1.3l6,6.7L11,43L5,36.3z"/>
</g>
</svg>
