<?xml version="1.0"?>
<svg xmlns="http://www.w3.org/2000/svg" id="Layer_1" data-name="Layer 1" viewBox="0 0 64 64"><title>Icons8 RSL Colored Part 10</title><path d="M23.08,23.92A12,12,0,1,1,27,15.05" style="fill:#f9dd8f;"/><circle cx="15" cy="15" r="7" style="fill:#f7cc8f;"/><path d="M41.17,38a17.86,17.86,0,0,0-.7,6.1L41,53v0c0,3.27,6.62,5.11,9.09,5.68A1.19,1.19,0,0,1,49.81,61H26.19a1.19,1.19,0,0,1-.28-2.34C28.38,58.14,35,56.3,35,53v0l.53-8.9a18.09,18.09,0,0,0-5.25-13.79L19,19l-4-4H61l-4,4L45.72,30.31A18,18,0,0,0,41.17,38Z" style="fill:#c5e4fa;"/><path d="M51,59.87A1.18,1.18,0,0,1,49.81,61H26.19a1.19,1.19,0,0,1-.28-2.34C28.38,58.14,35,56.3,35,53v0h6v0c0,3.27,6.62,5.11,9.09,5.68A1.18,1.18,0,0,1,51,59.87Z" style="fill:#badef4;"/><path d="M57,19,45.72,30.31a18.2,18.2,0,0,0-3.61,6,4.28,4.28,0,0,1-4,2.73h-.29a4.28,4.28,0,0,1-4-2.73,18.2,18.2,0,0,0-3.61-6L19,19Z" style="fill:#68bca0;"/><path d="M61.71,15.74A1,1,0,0,0,61,14H27.95a13,13,0,1,0-4.49,10.88L29.58,31a17,17,0,0,1,5,13L34,53c0,1.69-3.26,3.54-8.31,4.71A2.17,2.17,0,0,0,24,59.87,2.11,2.11,0,0,0,26.19,62H49.81A2.11,2.11,0,0,0,52,59.87a2.18,2.18,0,0,0-1.69-2.13c-5-1.17-8.31-3-8.31-4.76L41.47,44a17,17,0,0,1,5-13ZM15,26.05A11,11,0,1,1,25.95,14H15a1,1,0,0,0-.71,1.71l4,4h0L22,23.49A11,11,0,0,1,15,26.05Zm24.48,18.1L40,53c0,3.81,6.18,5.8,9.86,6.65a.19.19,0,0,1,.14.18.19.19,0,0,1-.19.19H26.19a.19.19,0,0,1-.19-.19.18.18,0,0,1,.14-.18c3.68-.85,9.86-2.85,9.86-6.6l.53-8.93A19,19,0,0,0,31,29.61L21.41,20H43a1,1,0,0,0,1-1,1,1,0,0,0-1-1H19.41l-2-2H58.59L45,29.61A19,19,0,0,0,39.48,44.16Z" style="fill:#8d6c9f;"/><path d="M51,18H47a1,1,0,0,0,0,2h4a1,1,0,0,0,0-2Z" style="fill:#8d6c9f;"/><path d="M15,10.05a1,1,0,0,0,1-1v-2a1,1,0,0,0-2,0v2A1,1,0,0,0,15,10.05Z" style="fill:#8d6c9f;"/><path d="M15,20.05a1,1,0,0,0-1,1v2a1,1,0,0,0,2,0v-2A1,1,0,0,0,15,20.05Z" style="fill:#8d6c9f;"/><path d="M10,8.69A1,1,0,0,0,8.64,10.1l1.42,1.41a1,1,0,0,0,1.41-1.41Z" style="fill:#8d6c9f;"/><path d="M10,15.05a1,1,0,0,0-1-1H7a1,1,0,0,0,0,2H9A1,1,0,0,0,10,15.05Z" style="fill:#8d6c9f;"/><path d="M19.24,11.81a1,1,0,0,0,.71-.29l1.42-1.41A1,1,0,0,0,20,8.69L18.54,10.1a1,1,0,0,0,.71,1.71Z" style="fill:#8d6c9f;"/><path d="M10.05,18.59,8.64,20A1,1,0,1,0,10,21.42L11.46,20a1,1,0,0,0-1.41-1.41Z" style="fill:#8d6c9f;"/></svg>
