<?xml version="1.0"?>
<svg xmlns="http://www.w3.org/2000/svg" id="Layer_1" data-name="Layer 1" viewBox="0 0 64 64"><title>Icons8 RSL Colored Part 12</title><path d="M45,59.57V60a1,1,0,0,1-1,1H20a1,1,0,0,1-1-1v-.43a2,2,0,0,1,1.52-2l5.6-1.38a4,4,0,0,0,3-3.67l.71-13.14A2,2,0,0,0,28.7,37.5L27.6,37h8.8l-1.1.5a2,2,0,0,0-1.17,1.93l.71,13.14a4,4,0,0,0,3,3.67l5.6,1.38A2,2,0,0,1,45,59.57Z" style="fill:#c5e4fa;"/><path d="M41.58,34.64,36.4,37H27.6l-5.18-2.36A18,18,0,0,1,12.07,15.52L12.46,13l1.28-8.3a2,2,0,0,1,2-1.7H48.28a2,2,0,0,1,2,1.7L51.54,13l.39,2.52A18,18,0,0,1,41.58,34.64Z" style="fill:#ed7899;"/><path d="M30.36,34.19l-.13.32a2.82,2.82,0,0,1-3.54,1.61l-4.28-1.48c-2.54-1.15-6.11-3.35-7.63-6.55C11.92,22,12.31,14,12.31,14h2.85A2.82,2.82,0,0,1,18,17.15c-.06.5-.1.91-.1,1.08a12.06,12.06,0,0,0,7,11,19.9,19.9,0,0,0,3.46,1.21A2.83,2.83,0,0,1,30.36,34.19Z" style="fill:#f283a5;"/><path d="M51.54,13H12.46l1.28-8.3a2,2,0,0,1,2-1.7H48.28a2,2,0,0,1,2,1.7Z" style="fill:#c5e4fa;"/><path d="M35.71,38.41,42,35.55A19.07,19.07,0,0,0,52.91,15.37L51.25,4.54a3,3,0,0,0-3-2.54H15.72a3,3,0,0,0-3,2.54L11.09,15.37A19.07,19.07,0,0,0,22,35.55l6.28,2.86a1,1,0,0,1,.58,1l-.71,13.14a3,3,0,0,1-2.28,2.75l-5.6,1.38A3,3,0,0,0,18,59.57V60a2,2,0,0,0,2,2H44a2,2,0,0,0,2-2v-.43a3,3,0,0,0-2.28-2.91l-5.6-1.38a3,3,0,0,1-2.28-2.75l-.71-13.14A1,1,0,0,1,35.71,38.41ZM33.84,52.63a5,5,0,0,0,3.79,4.58l5.6,1.38a1,1,0,0,1,.76,1V60H20v-.43a1,1,0,0,1,.76-1l5.6-1.38a5,5,0,0,0,3.79-4.58l.71-13.14a3,3,0,0,0-1.75-2.89l-6.28-2.86a17.06,17.06,0,0,1-9.77-18.06L13.32,14H39a1,1,0,0,0,0-2H13.63l1.1-7.15a1,1,0,0,1,1-.85H48.28a1,1,0,0,1,1,.85l1.67,10.82a17.06,17.06,0,0,1-9.77,18.06l-6.28,2.86a3,3,0,0,0-1.76,2.89Z" style="fill:#8d6c9f;"/><path d="M23.22,26.41l-1.36,1.86a1,1,0,0,0,1.62,1.18l1.36-1.86a1,1,0,1,0-1.62-1.18Z" style="fill:#8d6c9f;"/><path d="M21.53,23a1,1,0,0,0-1.41-.08l-1.69,1.52a1,1,0,1,0,1.34,1.49l1.69-1.52A1,1,0,0,0,21.53,23Z" style="fill:#8d6c9f;"/><path d="M19.53,18.87a1,1,0,0,0-1.36-.38l-1.91,1.07a1,1,0,1,0,1,1.74l1.91-1.07A1,1,0,0,0,19.53,18.87Z" style="fill:#8d6c9f;"/><path d="M28.58,28.18a1,1,0,0,0-1.32.5l-.93,2.07a1,1,0,1,0,1.82.82l.93-2.07A1,1,0,0,0,28.58,28.18Z" style="fill:#8d6c9f;"/><path d="M43,14h4a1,1,0,0,0,0-2H43a1,1,0,0,0,0,2Z" style="fill:#8d6c9f;"/></svg>
