<?xml version="1.0"?>
<svg xmlns="http://www.w3.org/2000/svg" id="Layer_1" data-name="Layer 1" viewBox="0 0 64 64"><title>Icons8 RSL Colored Part 6</title><path d="M61.84,16.8,47.7,2.66a2,2,0,0,0-2.83,0L3.16,44.37a2,2,0,0,0,0,2.83L17.3,61.34a2,2,0,0,0,2.83,0L61.84,19.63A2,2,0,0,0,61.84,16.8ZM47.41,11.41a2,2,0,0,1-2.73.08l-.09-.08a2,2,0,0,1,2.82-2.82l.08.09A2,2,0,0,1,47.41,11.41Z" style="fill:#faefde;"/><path d="M47.78,8.39l-.29.29-.08-.09a2,2,0,0,0-2.82,2.82l.09.08L8.91,47.26a4,4,0,0,1-5.41.23l-.34-.29a2,2,0,0,1,0-2.83L44.87,2.66a2,2,0,0,1,2.83,0l.08.07.09.1A4,4,0,0,1,47.78,8.39Z" style="fill:#fff7f0;"/><path d="M61.84,16.8l-.28-.22a2.94,2.94,0,0,0-3.89.23L17.3,57.19a2.94,2.94,0,0,0,0,4.15h0a2,2,0,0,0,2.83,0L61.84,19.63A2,2,0,0,0,61.84,16.8Z" style="fill:#efd8be;"/><path d="M62.55,16.09,48.41,1.95a3.07,3.07,0,0,0-4.24,0L2.45,43.67a3,3,0,0,0,0,4.24L16.59,62.05a3,3,0,0,0,4.24,0L62.55,20.33A3,3,0,0,0,62.55,16.09Zm-1.41,2.83-.73.73a1,1,0,0,0-.1-.15l-2.12-2.12a1,1,0,0,0-1.41,1.41l2.12,2.12A1,1,0,0,0,59,21l-2.17,2.17a1,1,0,0,0-.1-.15l-4.95-5a1,1,0,0,0-1.41,1.41l4.95,5a1,1,0,0,0,.15.1l-2.17,2.17a1,1,0,0,0-.1-.15l-2.12-2.12a1,1,0,0,0-1.41,1.41L51.82,28a1,1,0,0,0,.15.1L49.8,30.26a1,1,0,0,0-.1-.15L47.58,28a1,1,0,0,0-1.41,1.41l2.12,2.12a.94.94,0,0,0,.15.1l-2.17,2.17a1,1,0,0,0-.1-.15l-4.95-5a1,1,0,0,0-1.41,1.41l4.95,5a1,1,0,0,0,.15.1l-2.17,2.17a1,1,0,0,0-.1-.15l-2.12-2.12a1,1,0,0,0-1.41,1.41l2.12,2.12a1,1,0,0,0,.15.1l-2.17,2.17a1,1,0,0,0-.1-.15L37,38.6A1,1,0,0,0,35.56,40l2.12,2.12a1,1,0,0,0,.15.1L35.66,44.4a1,1,0,0,0-.1-.15L30.61,39.3a1,1,0,0,0-1.41,1.41l4.95,4.95a1,1,0,0,0,.15.1l-2.17,2.17a1,1,0,0,0-.1-.15L29.9,45.67a1,1,0,0,0-1.41,1.41l2.12,2.12a1,1,0,0,0,.15.1l-2.17,2.17a1,1,0,0,0-.1-.15L26.37,49.2A1,1,0,0,0,25,50.62l2.12,2.12a1,1,0,0,0,.15.1L25.05,55a1,1,0,0,0-.1-.15L20,49.91a1,1,0,0,0-1.41,1.41l4.95,4.95a1,1,0,0,0,.15.1l-2.17,2.17a.94.94,0,0,0-.1-.15L19.3,56.27a1,1,0,0,0-1.41,1.41L20,59.81a1,1,0,0,0,.15.1l-.73.73a1,1,0,0,1-1.41,0L3.86,46.5a1,1,0,0,1,0-1.42L45.58,3.36h0a1,1,0,0,1,1.41,0L61.14,17.5A1,1,0,0,1,61.14,18.92Z" style="fill:#8d6c9f;"/><path d="M43.88,7.88a3,3,0,0,0,0,4.24h0a3,3,0,0,0,4.24-4.24A3.07,3.07,0,0,0,43.88,7.88Zm2.83,2.83a1,1,0,0,1-1.41,0h0a1,1,0,0,1,0-1.41,1,1,0,0,1,1.41,0A1,1,0,0,1,46.71,10.71Z" style="fill:#8d6c9f;"/></svg>
