<?xml version="1.0"?>
<svg xmlns="http://www.w3.org/2000/svg" id="Layer_1" data-name="Layer 1" viewBox="0 0 64 64"><title>Icons8 RSL Colored Part 11</title><path d="M10.92,40.33h0c-.5,0-2.11-1.33-3-4.47s-.09-5.28.31-5.38c0,0,.73-1.47,3.1-1.15.88.12.14-1.78.29-2.63a9.83,9.83,0,0,0-.13-2.79,36.18,36.18,0,0,1-.21-8.79c.54-5.45,3.74-8.7,8.57-8.7a1.7,1.7,0,0,0,1-.34C23.24,4.32,27.92,3,31.79,3h1.71c10.35,0,17.83,5.29,20.9,14.64-1.18-.13-.78.69-1.62,1.5-.65.63-2.88,1.13-2.1,3.24a20.67,20.67,0,0,1,1.54,6.95c0,.61,3.06-.47,3.09-.47.41.14,1.16,3.83.31,7s-2.45,4.47-3,4.47A1.76,1.76,0,0,0,51,41.55C48.15,51.21,40.62,61,31.79,61S15.43,51.21,12.56,41.55A1.71,1.71,0,0,0,10.92,40.33Z" style="fill:#faefde;"/><path d="M8,35.85c-.85-3.19-.09-5.28.31-5.38,0,0,.19-1.51,2.56-1.19.88.12,1.46,8.63,1.28,12C12.07,42.06,8.81,39,8,35.85Z" style="fill:#efd8be;"/><path d="M55.48,35.85c.85-3.19.09-5.28-.31-5.38,0,0-.19-1.51-2.56-1.19-.88.12-1.46,8.63-1.28,12C51.37,42.06,54.64,39,55.48,35.85Z" style="fill:#efd8be;"/><path d="M10,24s7,1,10-7c5,1.61,7.6,5.61,31,4,2.32-.16,2.57-2.49,3.79-2.36C51.62,9.29,43.72,3,33,3H31A17.35,17.35,0,0,0,21,6c-.31.22-1.63-.09-2,0-4,1-7.18,4.89-8,10a34.54,34.54,0,0,0-.6,8.9S10,24,10,24Z" style="fill:#cda1a7;"/><path d="M10.4,24.9c0-.27-.06-.56-.08-.87L10,24S10.41,24.93,10.4,24.9Z" style="fill:#dbb2ba;"/><path d="M33,3H31A17.35,17.35,0,0,0,21,6s0,.17,0,.38a4,4,0,0,0,5.46,2.83,14.55,14.55,0,0,1,5-1.21h1.74C41.61,8,48,13.12,51.24,21c2.1-.3,2.71-1.22,3.89-1.09C52,10.53,43.72,3,33,3Z" style="fill:#dbb2ba;"/><path d="M47,49a10.64,10.64,0,0,0-7.21,2.87,11.89,11.89,0,0,1-8,3.52,11.89,11.89,0,0,1-8-3.52A10.64,10.64,0,0,0,16.6,49H15.18C18.9,55.59,25,61,31.79,61S44.68,55.59,48.4,49Z" style="fill:#efd8be;"/><path d="M57,31.17c-.35-1.72-1.22-2.85-2.43-3.17a2.75,2.75,0,0,0-1.57.07A18.78,18.78,0,0,0,52,22a1.86,1.86,0,0,1-.18-.91c.28-.22,1.75,0,3.14.55a1,1,0,0,0,1.36-1.14C53.8,8.91,45.21,2,33.36,2H31.75c-3.51,0-8.53,1.11-11.56,3.22-5.44.17-9.67,4.9-10.35,11.62a29.67,29.67,0,0,0,.23,9.25c0,.27.09.5.12.71s.08.76.1,1.2a2.67,2.67,0,0,0-1.38,0c-2.32.62-3.25,4.18-2.15,8.27.86,3.19,2.65,5.53,4.54,6,3.12,9.84,11,19.6,20.45,19.6s17.33-9.76,20.45-19.6c1.89-.51,3.68-2.86,4.54-6A11.43,11.43,0,0,0,57,31.17Zm-2.21,4.58c-.82,3-2.48,4.67-3.37,4.67h0a1,1,0,0,0-1,.72C47.7,50.47,40.38,59.91,31.75,59.91S15.8,50.47,13,41.13a1,1,0,0,0-1-.72h0c-.89,0-2.56-1.62-3.37-4.67-.86-3.2-.14-5.59.74-5.82a1.28,1.28,0,0,1,.91.27h0c0,.26,0,.5,0,.68a1,1,0,0,0,1,1,1,1,0,0,0,1-1,33.12,33.12,0,0,0-.16-4.43c0-.23-.08-.5-.14-.81A27.86,27.86,0,0,1,11.83,17c.58-5.79,4.14-9.83,8.69-9.83a1,1,0,0,0,.6-.2c2.62-2,7.43-3,10.63-3h1.61C43.77,4,51.18,9.51,53.94,19.19c-1.2-.28-2.66-.38-3.5.43s-.81,1.7-.31,3A20.1,20.1,0,0,1,51,30.86a1,1,0,0,0,.93,1.06H52A1,1,0,0,0,53,31c0-.25,0-.49,0-.73a1,1,0,0,0,.17-.07,1.3,1.3,0,0,1,.91-.27c.43.12.8.73,1,1.64A9.55,9.55,0,0,1,54.81,35.75Z" style="fill:#8d6c9f;"/><path d="M38.46,20.26A30.52,30.52,0,0,1,25,17.11l-2.51-1.23a2.61,2.61,0,0,0-3.32.91l-2.58,3.91a1,1,0,1,0,1.67,1.1l2.58-3.91a.61.61,0,0,1,.78-.21l2.51,1.23a32.51,32.51,0,0,0,14.34,3.35,1,1,0,0,0,0-2Z" style="fill:#8d6c9f;"/><path d="M46,20.26H42.76a1,1,0,0,0,0,2H46a1,1,0,0,0,0-2Z" style="fill:#8d6c9f;"/><circle cx="23" cy="32" r="2" style="fill:#8d6c9f;"/><circle cx="42" cy="32" r="2" style="fill:#8d6c9f;"/><path d="M31.79,9.93h.08a1,1,0,0,0,.92-1.08l-.16-1.93A1,1,0,0,0,31.55,6a1,1,0,0,0-.92,1.08L30.79,9A1,1,0,0,0,31.79,9.93Z" style="fill:#8d6c9f;"/><path d="M45.88,11.54,44.72,13a1,1,0,0,0,1.58,1.23l1.15-1.49a1,1,0,0,0-1.58-1.23Z" style="fill:#8d6c9f;"/><path d="M41,11.69a1,1,0,0,0,1.31-.52l.76-1.76a1,1,0,1,0-1.84-.79l-.76,1.76A1,1,0,0,0,41,11.69Z" style="fill:#8d6c9f;"/><path d="M36.53,10.16h.16a1,1,0,0,0,1-.84L38,7.42a1,1,0,0,0-2-.32L35.71,9A1,1,0,0,0,36.53,10.16Z" style="fill:#8d6c9f;"/></svg>
